<?xml version="1.0" encoding="UTF-8" standalone="no"?>
<!-- Created with Inkscape (http://www.inkscape.org/) -->

<svg
   xmlns:dc="http://purl.org/dc/elements/1.1/"
   xmlns:cc="http://creativecommons.org/ns#"
   xmlns:rdf="http://www.w3.org/1999/02/22-rdf-syntax-ns#"
   xmlns:svg="http://www.w3.org/2000/svg"
   xmlns="http://www.w3.org/2000/svg"
   xmlns:sodipodi="http://sodipodi.sourceforge.net/DTD/sodipodi-0.dtd"
   xmlns:inkscape="http://www.inkscape.org/namespaces/inkscape"
   width="200.05914mm"
   height="231.00839mm"
   viewBox="0 0 200.05914 231.00839"
   version="1.1"
   id="svg574"
   inkscape:version="0.92.4 (5da689c313, 2019-01-14)"
   sodipodi:docname="logo.svg">
  <defs
     id="defs568" />
  <sodipodi:namedview
     id="base"
     pagecolor="#ffffff"
     bordercolor="#666666"
     borderopacity="1.0"
     inkscape:pageopacity="0.0"
     inkscape:pageshadow="2"
     inkscape:zoom="0.35"
     inkscape:cx="392.14509"
     inkscape:cy="320.10431"
     inkscape:document-units="mm"
     inkscape:current-layer="layer1"
     showgrid="false"
     inkscape:window-width="2560"
     inkscape:window-height="1410"
     inkscape:window-x="0"
     inkscape:window-y="30"
     inkscape:window-maximized="1"
     fit-margin-top="0"
     fit-margin-left="0"
     fit-margin-right="0"
     fit-margin-bottom="0" />
  <metadata
     id="metadata571">
    <rdf:RDF>
      <cc:Work
         rdf:about="">
        <dc:format>image/svg+xml</dc:format>
        <dc:type
           rdf:resource="http://purl.org/dc/dcmitype/StillImage" />
        <dc:title></dc:title>
      </cc:Work>
    </rdf:RDF>
  </metadata>
  <g
     inkscape:label="Layer 1"
     inkscape:groupmode="layer"
     id="layer1"
     transform="translate(-2.0782776,-2.5192052)">
    <path
       inkscape:connector-curvature="0"
       style="fill:#ffffff;fill-opacity:1;stroke:none;stroke-width:0.49039069;stroke-linecap:square;stroke-linejoin:miter;stroke-miterlimit:4;stroke-dasharray:none;stroke-dashoffset:15.41049957;stroke-opacity:1;paint-order:markers fill stroke"
       id="path2107"
       d="M 16.938443,167.19602 V 68.850825 l 85.169407,-49.172571 85.16944,49.172571 v 98.345195 l -85.16944,49.17261 z" />
    <path
       inkscape:connector-curvature="0"
       id="path2109"
       style="opacity:0.28145704;fill:#999999;fill-opacity:1;stroke:none;stroke-width:0.51360077px;stroke-linecap:butt;stroke-linejoin:miter;stroke-opacity:1"
       d="m 102.10738,19.678054 c 0,0 0.058,54.010221 0.058,81.095436 l 3.05552,2.28444 c 19.08924,6.02515 12.35215,28.41015 -1.11983,29.80949 l -2.05086,2.40602 c 0.25266,27.0487 0.0572,81.09527 0.0572,81.09527 L 187.2776,167.19656 V 68.851215 Z" />
    <path
       inkscape:connector-curvature="0"
       d="M 102.16541,44.427607 91.747935,72.598965 102.16541,100.77349 112.58288,72.598965 Z m -57.95203,14.97352 20.87018,45.362123 21.871588,10.06235 a 15.256707,15.256707 0 0 1 13.0282,-11.93086 L 89.572298,80.274465 Z m 116.51516,0.726301 -45.35895,20.873347 -10.14866,22.057155 a 15.256707,15.256707 0 0 1 11.71324,12.98025 l 22.9242,-10.54866 z M 56.68492,107.54679 28.510394,117.96426 56.68492,128.38173 84.856272,117.96426 Z m 90.84574,0.1186 -28.17128,10.41747 28.17128,10.41748 28.17456,-10.41748 z M 86.85273,120.20731 64.357248,130.5576 43.487116,175.91972 88.846024,155.04638 99.077938,132.81005 A 15.256707,15.256707 0 0 1 86.85273,120.20731 Z m 29.80949,0.74227 a 15.256707,15.256707 0 0 1 -12.56112,11.91807 l 10.54226,22.9082 45.35891,20.87014 -20.87017,-45.35891 z m -14.61198,14.32405 -10.417465,28.17456 10.417465,28.17131 10.41747,-28.17131 z"
       style="fill:#980069;fill-opacity:1;stroke:none;stroke-width:1.08426702;stroke-linecap:round;stroke-linejoin:round;stroke-miterlimit:4;stroke-dasharray:none;stroke-dashoffset:15.41049957;stroke-opacity:1;paint-order:markers fill stroke"
       id="path2111" />
    <path
       inkscape:connector-curvature="0"
       style="fill:#980069;fill-opacity:1;stroke:none;stroke-width:0.57595277;stroke-linecap:square;stroke-linejoin:miter;stroke-miterlimit:4;stroke-dasharray:none;stroke-dashoffset:15.41049957;stroke-opacity:1;paint-order:markers fill stroke"
       id="path2113"
       d="M 2.0782776,175.7755 V 60.271305 L 102.10785,2.5192052 202.13742,60.271305 V 175.7755 l -100.02957,57.7521 z" />
    <path
       inkscape:connector-curvature="0"
       id="path2115"
       style="fill:#fec7e6;fill-opacity:1;stroke:none;stroke-width:0.49039069;stroke-linecap:square;stroke-linejoin:miter;stroke-miterlimit:4;stroke-dasharray:none;stroke-dashoffset:15.41049957;stroke-opacity:1;paint-order:markers fill stroke"
       d="M 16.938443,167.19602 V 68.850825 l 85.169407,-49.172571 85.16944,49.172571 v 98.345195 l -85.16944,49.17261 z" />
    <path
       inkscape:connector-curvature="0"
       d="m 102.10738,19.678054 c 0,0 0.058,54.010261 0.058,81.095486 l 3.05552,2.28439 c 19.08924,6.02515 12.35215,28.41015 -1.11983,29.80949 l -2.05086,2.40602 c 0.25266,27.04874 0.0572,81.09531 0.0572,81.09531 L 187.27763,167.1966 V 68.851215 Z"
       style="fill:#f0a8d0;fill-opacity:1;stroke:none;stroke-width:0.51360077px;stroke-linecap:butt;stroke-linejoin:miter;stroke-opacity:1"
       id="path2117" />
    <path
       inkscape:connector-curvature="0"
       id="path2119"
       d="m 102.10684,134.4884 -10.633004,28.75468 10.633004,28.75673 10.63498,-28.75673 z"
       style="fill:#980069;fill-opacity:1;stroke:none;stroke-width:1.83970928;stroke-linecap:round;stroke-linejoin:round;stroke-miterlimit:4;stroke-dasharray:none;stroke-dashoffset:15.41049957;stroke-opacity:1;paint-order:markers fill stroke" />
    <path
       inkscape:connector-curvature="0"
       id="path2121"
       d="m 116.98443,120.53701 a 15.072096,15.072096 0 0 1 -4.19374,8.12655 15.072096,15.072096 0 0 1 -8.24473,4.21 l 10.76344,23.39132 46.29766,21.30063 -21.30062,-46.29767 z"
       style="fill:#980069;fill-opacity:1;stroke:none;stroke-width:1.83970928;stroke-linecap:round;stroke-linejoin:round;stroke-miterlimit:4;stroke-dasharray:none;stroke-dashoffset:15.41049957;stroke-opacity:1;paint-order:markers fill stroke" />
    <path
       inkscape:connector-curvature="0"
       id="path2123"
       d="m 87.316802,120.39028 -23.436169,10.78379 -21.306656,46.30378 46.301762,-21.3067 10.728699,-23.31389 a 15.072096,15.072096 0 0 1 -8.128597,-4.19571 15.072096,15.072096 0 0 1 -4.159039,-8.27127 z"
       style="fill:#980069;fill-opacity:1;stroke:none;stroke-width:1.83970928;stroke-linecap:round;stroke-linejoin:round;stroke-miterlimit:4;stroke-dasharray:none;stroke-dashoffset:15.41049957;stroke-opacity:1;paint-order:markers fill stroke" />
    <path
       inkscape:connector-curvature="0"
       id="path2125"
       d="m 147.3293,107.39148 -28.75669,10.633 28.75669,10.63298 28.75472,-10.63298 z"
       style="fill:#980069;fill-opacity:1;stroke:none;stroke-width:1.83970928;stroke-linecap:round;stroke-linejoin:round;stroke-miterlimit:4;stroke-dasharray:none;stroke-dashoffset:15.41049957;stroke-opacity:1;paint-order:markers fill stroke" />
    <path
       inkscape:connector-curvature="0"
       id="path2127"
       d="m 56.88832,107.39148 -28.756685,10.633 28.756685,10.63298 28.754689,-10.63298 z"
       style="fill:#980069;fill-opacity:1;stroke:none;stroke-width:1.83970928;stroke-linecap:round;stroke-linejoin:round;stroke-miterlimit:4;stroke-dasharray:none;stroke-dashoffset:15.41049957;stroke-opacity:1;paint-order:markers fill stroke" />
    <path
       inkscape:connector-curvature="0"
       id="path2129"
       d="m 161.69468,58.534416 -46.29766,21.300599 -10.75733,23.381155 a 15.072096,15.072096 0 0 1 8.151,4.1305 15.072096,15.072096 0 0 1 4.21202,8.24881 l 23.39135,-10.76339 z"
       style="fill:#980069;fill-opacity:1;stroke:none;stroke-width:1.83970928;stroke-linecap:round;stroke-linejoin:round;stroke-miterlimit:4;stroke-dasharray:none;stroke-dashoffset:15.41049957;stroke-opacity:1;paint-order:markers fill stroke" />
    <path
       inkscape:connector-curvature="0"
       id="path2131"
       d="m 42.661599,58.444751 21.306647,46.301729 23.375059,10.75524 a 15.072096,15.072096 0 0 1 4.132536,-8.15301 15.072096,15.072096 0 0 1 8.273267,-4.16109 L 88.965366,79.751445 Z"
       style="fill:#980069;fill-opacity:1;stroke:none;stroke-width:1.83970928;stroke-linecap:round;stroke-linejoin:round;stroke-miterlimit:4;stroke-dasharray:none;stroke-dashoffset:15.41049957;stroke-opacity:1;paint-order:markers fill stroke" />
    <path
       inkscape:connector-curvature="0"
       id="path2133"
       d="M 102.10684,44.047109 91.473836,72.801785 102.10684,101.55853 112.74182,72.801785 Z"
       style="fill:#980069;fill-opacity:1;stroke:none;stroke-width:1.83970928;stroke-linecap:round;stroke-linejoin:round;stroke-miterlimit:4;stroke-dasharray:none;stroke-dashoffset:15.41049957;stroke-opacity:1;paint-order:markers fill stroke" />
  </g>
</svg>
