<?xml version="1.0" encoding="utf-8"?>
<!-- Generator: Adobe Illustrator 15.0.0, SVG Export Plug-In . SVG Version: 6.00 Build 0)  -->
<!DOCTYPE svg PUBLIC "-//W3C//DTD SVG 1.1//EN" "http://www.w3.org/Graphics/SVG/1.1/DTD/svg11.dtd">
<svg version="1.1" xmlns="http://www.w3.org/2000/svg" xmlns:xlink="http://www.w3.org/1999/xlink" x="0px" y="0px"
	 width="793.701px" height="368.504px" viewBox="0 0 793.701 368.504" enable-background="new 0 0 793.701 368.504"
	 xml:space="preserve">
<g id="BOB">
	<path fill="#E2001A" d="M272.986,50.213c-2.411,1.262-2.898,4.123-2.44,6.553c0.618,3.266,2.025,6.078,2.186,9.473
		c0.331,6.971-1.594,13.834-0.909,20.84c0.442,3.02,2.606,7.578,6.418,5.684c2.887-1.563,3.055-5.684,3.597-8.525
		c1.138-7.843,1.703-18.777-0.096-26.522C280.916,54.165,277.673,47.756,272.986,50.213z"/>
	<path fill="#E2001A" d="M232.984,52.06c-7.014,4.035-6.344,19.664-5.409,26.493c0.532,3.885,3.001,9.645,7.949,6.457
		c2.168-1.396,2.196-4.15,2.107-6.457c-0.197-3.789-1.058-7.406-0.225-11.367c0.795-3.783,3.156-8.339,2.58-12.26
		C239.393,51.663,235.826,50.495,232.984,52.06z"/>
	<path fill="#E2001A" d="M179.478,60.583c-2.708,1.921-2.098,5.669-0.074,7.776c2.787,2.901,6.872,4.306,10.006,6.775
		c3.751,2.952,6.631,6.827,10.42,9.785c2.124,1.683,5.423,3.644,8.111,1.952c4.095-2.577,0.407-8.26-1.718-10.759
		c-5.111-6.013-10.68-10.821-17.76-14.437C185.903,60.392,182.192,58.661,179.478,60.583z"/>
	<path d="M286.031,170.549c-6.863,3.679,0.947,12.912,7.438,9.191C300.766,175.461,292.129,167.596,286.031,170.549z"/>
	<path d="M202.671,171.221c-7.223,2.822-1.367,12.818,5.58,9.881C215.757,178.017,209.67,168.567,202.671,171.221z"/>
	<path d="M248.141,181.887c-4.455,2.267-2.842,10.945-2.842,15.075c0,14.622-1.895,29.058-3.189,43.575
		c-0.329,3.516,1.462,8.148,5.931,6.771c4.74-1.463,5.018-9.381,5.513-13.402c1.664-13.553,1.218-27.154,1.218-40.733
		C254.771,189.694,255.016,178.567,248.141,181.887z"/>
	<path d="M212.144,244.327c-2.958,0.947-3.441,3.934-2.842,6.631c1.544,5.113,5.193,10.121,8.942,13.768
		c9.51,9.254,29.25,15.598,42.211,10.861c7.164-2.756,15.035-9.711,18.945-16.104c2.263-3.326,3.361-10.395-2.843-9.793
		c-4.517,0.436-8.253,6.951-11.367,9.631c-6.639,6.002-12.899,7.955-21.786,6.352c-7.935-1.43-15.453-5.51-20.47-11.873
		C220.351,250.52,217.828,242.458,212.144,244.327z"/>
	<path d="M757.773,305.903c-17.051-0.174-34.119,0.943-51.152,0.943c-60.309,0-120.6-0.232-180.929-0.947
		c-11.05,0-21.985-1.895-33.155-1.895c1.895-11.723-8.751-23.08-20.84-20.471c-5.999,1.295-10.42,5.732-15.156,9.104
		c-4.736-11.367-20.42-10.42-25.576,0c-2.842-2.1-5.251-5.131-8.539-6.543c-6.771-2.906-13.569,3.236-18.933,6.543
		c-0.947-2.795-2.035-5.234-4.101-7.398c-8.474-8.885-20.626-0.432-23.56,9.293c-1.421,4.736-1.512,10.607,3.032,13.262
		c-10.5,3.104-24.11,0.947-35.049,0.947c5.236-5,3.758-12.23,3.789-18.945c0-13.752,1.895-26.941,0.947-40.732
		c-0.633-10.42-1.093-20.84-3.271-31.26c-2.413-11.111-5.929-22.118-8.688-33.155c-4.487-17.944-9.606-33.731-18.109-50.206
		c-4.687-9.081-9.313-17.998-16.433-25.561c-5.05-5.316-12.251-10.436-18.86-13.795c-2.842-1.311-5.828-0.967-8.525-2.324
		c-2.842-1.529-4.736-4.318-7.593-5.684c-6.979-3.471-18.762-4.736-26.509-3.652c-2.684,0.42-4.789,2.781-7.593,2.854
		c-2.971,0.076-5.416-1.873-8.511-1.551c-7.604,0.788-14.899,4.244-21.787,7.219c-20.226,8.943-38.063,22.059-41.41,45.336
		c-4.059,27.555-5.006,55.449-5.006,83.361c0,9.994,0.787,20.359-0.161,30.312c-1.771,18.619-5.527,37.891,1.108,55.889
		c-7.676,0-15.156-1.566-22.734-1.895c1.745-8.973-4.99-21.961-15.156-22.262c-4.921-0.146-8.812,3.975-13.262,3.859
		c-2.977-0.076-5.508-2.438-8.525-2.83c-2.842-0.281-4.9,1.531-7.578,1.664c-3.012,0.146-5.702-2.398-8.525-3.166
		c-5.487-1.652-8.841,0.947-13.262,3.789c-4.527-11.58-20.189-8.738-27.254-0.859c-4.646,5.18-4.953,12.295-4.953,18.857
		c-5.721,0-13.31-1.33-18.945,0.301c-3.301,1.021-3.686,6.33-1.323,8.602c2.683,2.676,7.546,0.877,10.795,0.654
		c8.768-0.6,17.735-0.084,26.524-0.084c23.294,0,46.829-0.947,70.098,0.037c13.262,0.586,26.288,2.805,39.785,2.805
		c11.649,0,23.411-0.473,35.049,0.037c6.631,0.291,13.247,1.68,19.893,1.857c54.178,1.312,108.739,0.641,162.931,0
		c6.99,0,13.88-1.895,20.84-2.682c9.401-0.895,18.946,0.217,28.419-0.16c6.019-0.301,11.971-1.732,17.998-1.881
		c19.113-0.469,38.685-0.844,57.783,0.023c4.497,0.205,8.746,1.857,13.262,1.857c25.857,0.629,51.812,0,77.677,0
		c44.504,0,89.008,0.947,133.565,0.947c10.161,0,21.285-1.68,31.26-0.402c3.373,0.432,9.197,1.059,10.063-3.387
		C772.885,305.899,761.854,305.944,757.773,305.903z M46.371,303.057c0-4.514,3.449-17.814,10.885-13.195
		c3.325,2.084,4.09,9.666,5.219,13.195H46.371z M74.79,303.057c0-3.99,0.888-6.934,2.842-10.42h1.895
		c1.806,3.443,2.664,6.631,2.842,10.42H74.79z M94.682,303.057c0.268-8.189,5.859-7.205,7.578,0H94.682z M112.681,303.057
		c0.518-2.074,0.75-4.658,1.895-6.492c4.52-7.137,9.11,2.703,10.42,6.492H112.681z M338.131,307.793
		c-38.484,0-77.097,0.947-115.567,0c-7.269-0.193-14.524-1.539-21.787-1.857c-11.367-0.496-22.767-0.037-34.102-0.037
		c-0.278-6.459-2.842-12.486-2.842-18.945c-0.137-11.367,1.895-22.734,2.757-34.102c1.233-17.998,1.003-36.93,1.032-54.942
		c0-17.901,0-35.479,3.434-53.048c1.303-7.062,1.979-13.262,5.351-19.893c5.425-10.84,18.365-17.621,29.106-22.402
		c17.051-7.635,36.348-12.025,54.942-6.422c7.578,2.301,15.156,7.037,21.787,11.35c4.926,3.266,9.934,6.147,13.646,10.859
		c17.229,21.864,24.904,47.374,31.506,73.872c2.212,9.473,5.783,18.946,7.602,28.419c2.375,12.424,3.136,25.307,3.998,37.891
		C340.026,274.78,334.277,291.69,338.131,307.793z M385.496,306.846c0-3.666-0.685-11.367,3.977-12.934
		c4.549-1.275,7.391,7.947,8.338,11.039L385.496,306.846z M412.02,304.952c0.349-3.102,2.744-9.648,7.172-6.805
		c2.096,1.348,2.604,4.605,3.248,6.805H412.02z M437.596,303.057c0.799-3.334,3.789-9.473,8.313-6.881
		c2.331,1.406,3.054,4.49,4.001,6.881H437.596z M464.119,303.057c4.561-9.75,16.052-12.162,18.945,0H464.119z"/>
	<g>
		<path d="M458.869,185.958v6.727l6.86-6.859c-0.77-0.089-1.31-0.307-1.62-0.655c-0.312-0.348-0.467-0.899-0.467-1.653
			c0-0.874,0.211-1.503,0.633-1.888s1.136-0.577,2.143-0.577h5.439c1.007,0,1.721,0.192,2.143,0.577s0.633,1.014,0.633,1.888
			c0,0.813-0.211,1.424-0.633,1.831s-1.04,0.61-1.854,0.61h-0.511l-6.461,6.416c1.199,0.889,2.294,2.055,3.286,3.497
			c0.991,1.443,2.153,3.659,3.485,6.649h0.289h0.443c0.873,0,1.524,0.2,1.954,0.6c0.429,0.399,0.644,0.999,0.644,1.799
			c0,0.873-0.218,1.502-0.655,1.887c-0.437,0.385-1.158,0.578-2.164,0.578h-2.73c-1.199,0-2.169-0.807-2.909-2.421
			c-0.133-0.296-0.236-0.532-0.311-0.71c-0.977-2.072-1.872-3.672-2.687-4.796c-0.813-1.125-1.769-2.153-2.864-3.087l-2.087,1.999
			v4.151h0.355c0.8,0,1.41,0.203,1.832,0.611c0.422,0.406,0.633,1.002,0.633,1.787c0,0.873-0.219,1.502-0.655,1.887
			s-1.158,0.578-2.165,0.578h-5.728c-1.021,0-1.747-0.189-2.176-0.566c-0.43-0.379-0.644-1.012-0.644-1.898
			c0-0.785,0.207-1.381,0.621-1.787c0.414-0.408,1.021-0.611,1.82-0.611h0.378v-16.562h-0.378c-0.784,0-1.38-0.207-1.787-0.621
			s-0.61-1.021-0.61-1.82c0-0.874,0.211-1.503,0.633-1.888s1.136-0.577,2.143-0.577h5.728c0.992,0,1.71,0.192,2.154,0.577
			c0.443,0.385,0.666,1.014,0.666,1.888c0,0.799-0.211,1.406-0.633,1.82s-1.032,0.621-1.832,0.621H458.869z"/>
		<path d="M498.867,186.379c3.598,0,6.513,1.007,8.748,3.02c2.235,2.014,3.353,4.596,3.353,7.748c0,3.168-1.117,5.758-3.353,7.771
			c-2.235,2.012-5.15,3.02-8.748,3.02c-3.581,0-6.49-1.008-8.725-3.02c-2.235-2.014-3.353-4.604-3.353-7.771
			c0-3.152,1.121-5.734,3.363-7.748C492.396,187.386,495.301,186.379,498.867,186.379z M498.867,191.064
			c-1.731,0-3.156,0.566-4.273,1.698c-1.117,1.133-1.676,2.58-1.676,4.341c0,1.776,0.559,3.245,1.676,4.407s2.542,1.742,4.273,1.742
			c1.732,0,3.16-0.58,4.285-1.742s1.688-2.631,1.688-4.407c0-1.761-0.559-3.208-1.676-4.341
			C502.046,191.63,500.614,191.064,498.867,191.064z"/>
		<path d="M544.572,202.475h0.289c0.829,0,1.45,0.204,1.865,0.611c0.414,0.406,0.621,1.018,0.621,1.832
			c0,0.873-0.211,1.502-0.633,1.887s-1.136,0.578-2.143,0.578h-5.461c-0.992,0-1.706-0.193-2.143-0.578s-0.655-1.014-0.655-1.887
			c0-0.814,0.211-1.426,0.633-1.832c0.422-0.407,1.055-0.611,1.898-0.611h0.267v-6.416c0-1.775-0.248-3.037-0.744-3.785
			c-0.496-0.747-1.321-1.121-2.476-1.121c-1.229,0-2.231,0.447-3.008,1.344c-0.777,0.895-1.166,2.083-1.166,3.562v6.416h0.267
			c0.844,0,1.473,0.204,1.887,0.611c0.415,0.406,0.622,1.018,0.622,1.832c0,0.873-0.215,1.502-0.644,1.887
			c-0.43,0.385-1.14,0.578-2.132,0.578h-5.506c-0.992,0-1.702-0.193-2.132-0.578c-0.429-0.385-0.644-1.014-0.644-1.887
			c0-0.814,0.207-1.426,0.622-1.832c0.414-0.407,1.043-0.611,1.887-0.611h0.267V191.73h-0.378c-0.799,0-1.405-0.203-1.82-0.61
			c-0.414-0.407-0.621-1.003-0.621-1.787c0-0.873,0.214-1.502,0.644-1.887c0.429-0.385,1.154-0.578,2.176-0.578h3.774
			c0.414,0,0.729,0.082,0.943,0.244c0.215,0.163,0.322,0.4,0.322,0.711v1.731c0.681-1.065,1.55-1.868,2.608-2.409
			c1.059-0.539,2.283-0.811,3.675-0.811c2.368,0,4.133,0.719,5.295,2.154s1.742,3.627,1.742,6.572V202.475z"/>
		<path d="M573.048,187.512h4.773c1.021,0,1.747,0.188,2.176,0.566c0.43,0.377,0.645,0.994,0.645,1.854
			c0,0.857-0.219,1.48-0.655,1.865s-1.158,0.576-2.165,0.576h-4.773v10.146h4.419c1.021,0,1.746,0.186,2.176,0.555
			c0.429,0.371,0.644,0.984,0.644,1.844c0,0.873-0.219,1.502-0.655,1.887s-1.158,0.578-2.164,0.578h-12.233
			c-1.021,0-1.747-0.193-2.176-0.578c-0.43-0.385-0.644-1.014-0.644-1.887c0-0.859,0.211-1.473,0.633-1.844
			c0.421-0.369,1.15-0.555,2.187-0.555h2.354v-10.146h-2.354c-1.021,0-1.747-0.191-2.176-0.576c-0.43-0.385-0.644-1.008-0.644-1.865
			c0-0.873,0.211-1.495,0.633-1.865c0.421-0.37,1.15-0.555,2.187-0.555h2.354v-1.266c0-2.901,0.747-4.963,2.242-6.184
			s4.041-1.832,7.638-1.832c1.864,0,3.237,0.223,4.118,0.666c0.881,0.445,1.321,1.133,1.321,2.065c0,0.622-0.196,1.117-0.589,1.487
			s-0.921,0.555-1.587,0.555c-0.489,0-1.181-0.066-2.076-0.199s-1.521-0.199-1.876-0.199c-1.377,0-2.343,0.307-2.897,0.92
			c-0.555,0.615-0.833,1.699-0.833,3.254V187.512z"/>
		<path d="M601.969,198.435c0.385,1.644,1.129,2.872,2.231,3.686s2.571,1.222,4.407,1.222c1.835,0,3.648-0.448,5.439-1.344
			s2.871-1.344,3.241-1.344c0.548,0,0.995,0.204,1.343,0.611c0.348,0.406,0.521,0.928,0.521,1.564c0,1.392-1.028,2.59-3.086,3.598
			c-2.057,1.006-4.603,1.51-7.637,1.51c-3.582,0-6.494-1.008-8.736-3.02c-2.242-2.014-3.364-4.604-3.364-7.771
			c0-3.152,1.122-5.734,3.364-7.748c2.242-2.013,5.154-3.02,8.736-3.02c3.197,0,5.846,0.943,7.948,2.831
			c2.102,1.888,3.152,4.2,3.152,6.938c0,0.873-0.211,1.473-0.633,1.798s-1.291,0.488-2.608,0.488H601.969z M613.936,194.971
			c-0.252-1.376-0.899-2.441-1.942-3.197c-1.044-0.754-2.401-1.132-4.074-1.132c-1.613,0-2.912,0.358-3.896,1.077
			c-0.984,0.718-1.669,1.802-2.054,3.252H613.936z"/>
		<path d="M643.388,195.327v7.193h5.24c1.006,0,1.72,0.186,2.142,0.555c0.422,0.371,0.633,0.984,0.633,1.844
			c0,0.873-0.211,1.502-0.633,1.887s-1.136,0.578-2.142,0.578h-12.411c-1.021,0-1.746-0.193-2.176-0.578s-0.644-1.014-0.644-1.887
			c0-0.859,0.212-1.473,0.635-1.844c0.425-0.369,1.157-0.555,2.198-0.555h1.695v-10.79h-0.96c-1.013,0-1.73-0.188-2.155-0.565
			c-0.425-0.378-0.637-1.004-0.637-1.877s0.204-1.494,0.611-1.865c0.406-0.369,1.128-0.555,2.164-0.555h4.729
			c0.399,0,0.71,0.086,0.933,0.256c0.222,0.17,0.332,0.403,0.332,0.699v3.285c1.614-1.73,3.12-2.967,4.519-3.707
			s2.904-1.11,4.518-1.11c1.466,0,2.628,0.329,3.486,0.988s1.287,1.543,1.287,2.653c0,0.857-0.296,1.564-0.888,2.12
			c-0.592,0.555-1.354,0.833-2.287,0.833c-0.666,0-1.454-0.244-2.364-0.733c-0.91-0.488-1.543-0.732-1.898-0.732
			c-0.71,0-1.546,0.317-2.509,0.954C645.845,193.01,644.705,193.995,643.388,195.327z"/>
		<path d="M674.728,198.435c0.385,1.644,1.129,2.872,2.231,3.686s2.571,1.222,4.407,1.222c1.835,0,3.648-0.448,5.438-1.344
			c1.791-0.896,2.872-1.344,3.242-1.344c0.547,0,0.995,0.204,1.343,0.611c0.348,0.406,0.521,0.928,0.521,1.564
			c0,1.392-1.028,2.59-3.086,3.598c-2.057,1.006-4.603,1.51-7.637,1.51c-3.582,0-6.494-1.008-8.736-3.02
			c-2.243-2.014-3.364-4.604-3.364-7.771c0-3.152,1.121-5.734,3.364-7.748c2.242-2.013,5.154-3.02,8.736-3.02
			c3.196,0,5.846,0.943,7.948,2.831c2.102,1.888,3.152,4.2,3.152,6.938c0,0.873-0.211,1.473-0.633,1.798s-1.291,0.488-2.608,0.488
			H674.728z M686.694,194.971c-0.252-1.376-0.899-2.441-1.942-3.197c-1.044-0.754-2.402-1.132-4.074-1.132
			c-1.613,0-2.912,0.358-3.896,1.077c-0.984,0.718-1.669,1.802-2.054,3.252H686.694z"/>
		<path d="M726.472,202.475h0.288c0.829,0,1.451,0.204,1.865,0.611c0.414,0.406,0.621,1.018,0.621,1.832
			c0,0.873-0.211,1.502-0.633,1.887c-0.421,0.385-1.136,0.578-2.142,0.578h-5.462c-0.992,0-1.706-0.193-2.143-0.578
			s-0.655-1.014-0.655-1.887c0-0.814,0.211-1.426,0.633-1.832c0.422-0.407,1.055-0.611,1.898-0.611h0.267v-6.416
			c0-1.775-0.248-3.037-0.744-3.785c-0.495-0.747-1.32-1.121-2.476-1.121c-1.229,0-2.23,0.447-3.008,1.344
			c-0.777,0.895-1.166,2.083-1.166,3.562v6.416h0.267c0.844,0,1.473,0.204,1.888,0.611c0.414,0.406,0.621,1.018,0.621,1.832
			c0,0.873-0.215,1.502-0.644,1.887c-0.43,0.385-1.14,0.578-2.132,0.578h-5.506c-0.991,0-1.702-0.193-2.131-0.578
			c-0.43-0.385-0.645-1.014-0.645-1.887c0-0.814,0.208-1.426,0.622-1.832c0.414-0.407,1.043-0.611,1.887-0.611h0.267V191.73h-0.377
			c-0.8,0-1.406-0.203-1.821-0.61c-0.414-0.407-0.621-1.003-0.621-1.787c0-0.873,0.215-1.502,0.644-1.887
			c0.43-0.385,1.154-0.578,2.176-0.578h3.774c0.414,0,0.729,0.082,0.943,0.244c0.215,0.163,0.322,0.4,0.322,0.711v1.731
			c0.681-1.065,1.551-1.868,2.608-2.409c1.059-0.539,2.283-0.811,3.675-0.811c2.368,0,4.133,0.719,5.295,2.154
			s1.743,3.627,1.743,6.572V202.475z"/>
		<path d="M750.751,202.92h7.237l0.134-1.533c0.089-1.139,0.3-1.887,0.633-2.242c0.333-0.354,0.898-0.532,1.698-0.532
			c0.77,0,1.324,0.211,1.665,0.633c0.34,0.422,0.511,1.136,0.511,2.142v3.264c0,1.17-0.141,1.918-0.422,2.242
			c-0.281,0.326-0.992,0.49-2.132,0.49h-13.81c-0.888,0-1.558-0.189-2.009-0.566c-0.451-0.379-0.677-0.93-0.677-1.654
			c0-0.415,0.096-0.836,0.288-1.266s0.459-0.829,0.8-1.199l10.768-11.367h-6.816v1.043c0,0.947-0.181,1.654-0.544,2.121
			c-0.362,0.466-0.921,0.699-1.676,0.699c-0.829,0-1.417-0.207-1.766-0.622c-0.348-0.414-0.521-1.147-0.521-2.198v-2.819
			c0-1.154,0.137-1.891,0.411-2.209c0.273-0.317,0.987-0.478,2.143-0.478h13.099c0.918,0,1.603,0.193,2.054,0.578
			s0.677,0.969,0.677,1.754c0,0.385-0.1,0.776-0.3,1.176c-0.199,0.4-0.492,0.807-0.877,1.222L750.751,202.92z"/>
	</g>
	<g>
		<path d="M618.014,53.487c-4.354-0.678-8.873-1.387-13.262-0.824c-9.11,1.167-18.093,2.858-25.576,8.623
			c-30.495,23.496-29.551,81.463,6.631,99.554c10.112,5.093,21.275,5.29,32.207,3.985c17.451-2.082,31.528-16.891,36.939-32.994
			C665.065,101.874,653.611,59.041,618.014,53.487z M612.33,145.454c-11.407,2.138-21.101-4.98-24.914-15.518
			c-6.346-17.473-6.095-52.078,17.336-56.393c11.907-2.193,21.598,5.826,25.239,16.607
			C635.902,107.646,635.389,141.132,612.33,145.454z"/>
	</g>
	<g>
		<path d="M540.681,114.818c-3.436-4.564-8.868-6.669-13.604-9.511c16.74-8.689,15.678-34.871,0-44.188
			c-9.473-5.625-21.506-6.018-32.208-6.018h-32.207c-3.93,0.006-8.757-0.264-11.907,2.561c-7.513,6.732-1.032,16.588,7.171,17.332
			v67.256c-8.525,0.764-13.999,10.242-7.827,17.602c2.545,3.033,6.88,3.238,10.669,3.238c12.942,0.156,25.896,0,38.839,0
			c9.287,0,19.82,0.262,28.418-3.695C544.127,151.921,551.955,129.936,540.681,114.818z M480.659,74.995
			c8.468,0,21.955-2.541,29.152,2.842c5.421,4.043,4.77,13.396-0.837,17.051c-7.475,4.736-19.927,2.842-28.315,2.842V74.995z
			 M514.746,139.938c-9.457,5.154-23.736,3.26-34.087,3.26v-27.471c7.98,0,15.745,0.225,23.683,0.947
			c4.67,0.297,9.473,0.67,13.124,4.053C523.287,126.268,521.719,136.165,514.746,139.938z"/>
	</g>
	<g>
		<path d="M763.895,115.741c-3.407-5.145-9.06-7.426-14.209-10.434c16.739-8.689,15.678-34.871,0-44.188
			c-6.187-3.676-12.923-4.484-19.894-5.341c-14.59-1.791-29.824-0.677-44.522-0.677c-4.225,0.006-9.52-0.253-12.596,3.238
			c-6.358,7.216-0.183,15.924,7.86,16.654v67.256c-8.354,0.759-14.264,10.42-7.86,17.602c2.641,2.996,6.913,3.238,10.702,3.238
			c12.94,0.156,25.896,0,38.838,0c9.363,0,19.733,0.303,28.419-3.695C766.606,152.042,774.03,130.883,763.895,115.741z
			 M703.269,74.995c8.468,0,21.955-2.541,29.152,2.842c5.42,4.043,4.77,13.396-0.837,17.051c-7.476,4.736-19.927,2.842-28.315,2.842
			V74.995z M737.355,139.938c-9.458,5.154-23.736,3.26-34.087,3.26v-27.471c7.98,0,15.744,0.225,23.682,0.947
			c4.671,0.297,9.473,0.67,13.125,4.053C745.896,126.268,744.328,136.165,737.355,139.938z"/>
	</g>
</g>
<g id="ag_dots">
</g>
<g id="ag">
</g>
<g id="Text_fp">
</g>
<g id="FP">
</g>
<g id="lb_logo">
</g>
</svg>
