<svg xmlns="http://www.w3.org/2000/svg" viewBox="0 0 498.94 220"><defs><style>.cls-1{fill:#fff;}</style></defs><title>FBY_LOGO</title><g id="Layer_2" data-name="Layer 2"><g id="fbEvent"><rect class="cls-1" x="2.52" y="2.52" width="493.89" height="214.95"/><path d="M498.94,220H0V0H498.94ZM5.05,215H493.89V5.05H5.05Z"/><path d="M106.92,89.65v3.5h13.82v10.6H106.92v26.3h13.82v10.6H85.16v-10.6h9.65v-26.3H85.16V93.15h9.65V89.27c0-11.45,6.34-18.16,20.44-18.16h8.14V81.7h-9.46C108.91,81.7,106.92,84,106.92,89.65Z"/><path d="M156.75,154.85c-19.49-3.79-27.63-19.69-27.63-40.5s8.14-36.62,27.63-40.41v8.33c-14.19,4.07-18,15.71-18,32.08s3.79,28.1,18,32.17Z"/><path d="M166,71.11h12.2V97.69L176,105h3.12c2.27-6.81,7.57-12.77,18.93-12.77,13.72,0,21.38,11,21.38,24.69s-7.66,24.7-21.38,24.7c-11.36,0-16.66-6-18.93-12.68H176l2.17,7.19v4.54H166ZM192.86,131c8.8,0,14.38-4.26,14.38-14.1s-5.58-14.1-14.38-14.1-14.67,4.26-14.67,14.1S184.16,131,192.86,131Z"/><path d="M276.8,93.15l-21.29,45.61v14.1c0,4.64-2.55,7.19-7.47,7l-21.29-.76V148.51l16.65.57V138.76L222,93.15h13.62l12.21,30.47v6h3.22v-6l12.11-30.47Z"/><path d="M294.92,114.35c0-16.37-3.78-28-18-32.08V73.94c19.49,3.79,27.63,19.59,27.63,40.41s-8.14,36.71-27.63,40.5v-8.33C291.14,142.45,294.92,130.72,294.92,114.35Z"/><path d="M327.81,95l-9.37,2.47-7.19-26.78,9.37-2.56Z"/><path d="M355.29,68.84c11.64,0,16.66,6.81,16.66,14.76,0,13.24-13.63,17.79-30.75,20.06v2.27l5.39-1.14h25v8h-33.5V97.69c4.07-.56,24.23-3,24.23-14.09,0-3.69-1.9-6.72-7.48-6.72-6.72,0-9.37,3.78-9.37,11.92H335.8C335.8,77,343,68.84,355.29,68.84Z"/><path d="M417.52,90.88c0,13-6.53,22.52-19,22.52-12.68,0-19.21-9.56-19.21-22.52,0-12.77,6.53-22.42,19.21-22.42C411,68.46,417.52,78.11,417.52,90.88Zm-28.58,0a18.32,18.32,0,0,0,.95,6.34L404.55,80a8.46,8.46,0,0,0-6.05-2.18C392.63,77.82,388.94,82.74,388.94,90.88Zm18.93,0a24.91,24.91,0,0,0-.76-6.34l-14.76,17A8.41,8.41,0,0,0,398.5,104C404.93,104,407.87,99.11,407.87,90.88Z"/></g></g></svg>