<svg id="Ebene_1" data-name="Ebene 1" xmlns="http://www.w3.org/2000/svg" viewBox="0 0 167.61 42.61"><defs><style>.cls-1{fill:#2d428d;}</style></defs><title>frobese-logo-blue</title><path class="cls-1" d="M8.7,22.2v.08h6.61v4.87H8.7v15H3.54v-15H0V22.28H3.54V22c0-5.67,4-8,8.09-8a12.29,12.29,0,0,1,4.69.9L15.38,19l-.68-.18a9.34,9.34,0,0,0-2.5-.4c-2.34,0-3.5,1.23-3.5,3.79"/><path class="cls-1" d="M30.47,21.91v5.31c-.39,0-.68-.07-1.26-.07-3.29,0-6.1,1.44-6.1,6.14v8.84H17.94V22.28h5.17v3.46a6.45,6.45,0,0,1,6.21-3.9,11.23,11.23,0,0,1,1.15.07"/><path class="cls-1" d="M52.24,32.21a10.35,10.35,0,1,1-20.69,0,10.35,10.35,0,1,1,20.69,0m-15.49,0a5.14,5.14,0,1,0,10.26,0,5.14,5.14,0,1,0-10.26,0"/><path class="cls-1" d="M75.46,32.21c0,6.1-3.9,10.36-9.06,10.36a7.52,7.52,0,0,1-6.29-3.11v2.67H55V14.33h5.16V25.06a7.52,7.52,0,0,1,6.29-3.22c5.09,0,9.06,4.23,9.06,10.37m-5.24,0c0-3.25-2.13-5.46-5-5.46a5.1,5.1,0,0,0-5.1,5.46c0,3.28,2.21,5.45,5.1,5.45s5-2.17,5-5.45"/><path class="cls-1" d="M98.21,33.54H83a4.92,4.92,0,0,0,5.16,4.77,4.61,4.61,0,0,0,4.41-2.49h5.34c-1.48,4.69-5.45,6.75-9.71,6.75A10,10,0,0,1,77.7,32.24a10,10,0,0,1,10.36-10.4c6.57,0,10.65,5.17,10.15,11.7m-15-3.79h9.5A4.63,4.63,0,0,0,88,26.1a4.82,4.82,0,0,0-4.8,3.65"/><path class="cls-1" d="M100.08,35.6h5.24c.39,1.59,1.59,2.67,4.8,2.67,2.27,0,3.36-.54,3.36-1.62,0-1.34-1.56-1.45-4.55-2.17-5.64-1.34-8-2.6-8-6,0-4.19,3.47-6.61,8.71-6.61,5.52,0,8.23,2.67,8.91,6.36h-5.23c-.4-1.27-1.48-2-3.86-2-2.06,0-3.33.57-3.33,1.66s.91,1.12,3.79,1.77c5.67,1.3,8.85,2.38,8.85,6.35,0,4.44-3.94,6.61-8.85,6.61-5.3,0-9.17-2.6-9.89-7"/><path class="cls-1" d="M141.31,33.54H126.08a4.92,4.92,0,0,0,5.16,4.77,4.61,4.61,0,0,0,4.41-2.49H141c-1.48,4.69-5.45,6.75-9.71,6.75a10,10,0,0,1-10.47-10.33,10,10,0,0,1,10.36-10.4c6.57,0,10.65,5.17,10.14,11.7m-15-3.79h9.5a4.63,4.63,0,0,0-4.7-3.65,4.81,4.81,0,0,0-4.8,3.65"/><path class="cls-1" d="M164.2,29.11h-2.76a1.27,1.27,0,0,0-.43.09l-7.38-5.45a1.78,1.78,0,0,0,.1-.56V20.64l5.85-.73v.78a1.18,1.18,0,0,0,1.18,1.18h2.76a1.18,1.18,0,0,0,1.18-1.18V17.94a1.18,1.18,0,0,0-1.18-1.18h-2.76a1.18,1.18,0,0,0-1.18,1.18v1l-5.85.73V18.37a1.57,1.57,0,0,0-1.57-1.57h-2.92L147.35,5.12H148a1.18,1.18,0,0,0,1.18-1.18V1.18A1.18,1.18,0,0,0,148,0h-2.76a1.18,1.18,0,0,0-1.18,1.18V3.94a1.18,1.18,0,0,0,1.18,1.18h1.06l1.89,11.68h-.93a1.56,1.56,0,0,0-1.56,1.48l-7.33-4.22a1.28,1.28,0,0,0,.05-.27V11a1.18,1.18,0,0,0-1.18-1.18h-2.75A1.18,1.18,0,0,0,133.35,11v2.76A1.18,1.18,0,0,0,134.53,15h2.75a1.19,1.19,0,0,0,.5-.12l7.95,4.57v3.77a1.57,1.57,0,0,0,1.57,1.57h2l2.43,12.73h-.57A1.18,1.18,0,0,0,150,38.67v2.76a1.18,1.18,0,0,0,1.18,1.18h2.75a1.18,1.18,0,0,0,1.18-1.18V38.67a1.18,1.18,0,0,0-1.18-1.18h-1.17l-2.42-12.73h1.83a1.55,1.55,0,0,0,.83-.24l7.34,5.42a1.36,1.36,0,0,0-.07.35v2.76a1.18,1.18,0,0,0,1.18,1.18h2.76a1.18,1.18,0,0,0,1.18-1.18V30.29A1.18,1.18,0,0,0,164.2,29.11Z"/><rect class="cls-1" x="160.03" y="2.52" width="5.12" height="5.12" rx="1.18"/><rect class="cls-1" x="165.38" y="10.12" width="2.23" height="2.23" rx="0.47"/><rect class="cls-1" x="154.75" y="30.56" width="2.23" height="2.23" rx="0.47"/><rect class="cls-1" x="152.62" y="7.4" width="2.23" height="2.23" rx="0.47"/><path class="cls-1" d="M153.86,16.24a.51.51,0,0,0,.31.11.52.52,0,0,0,.39-.19l2.15-2.76a.5.5,0,0,0-.08-.7.5.5,0,0,0-.7.09l-2.16,2.75A.5.5,0,0,0,153.86,16.24Z"/><path class="cls-1" d="M157.43,12.17a.53.53,0,0,0,.4-.19l1.06-1.36a.5.5,0,0,0-.79-.62L157,11.36a.5.5,0,0,0,.08.7A.47.47,0,0,0,157.43,12.17Z"/></svg>