<?xml version="1.0" encoding="UTF-8"?>
<svg width="51px" height="16px" viewBox="0 0 51 16" version="1.1" xmlns="http://www.w3.org/2000/svg" xmlns:xlink="http://www.w3.org/1999/xlink">
    <!-- Generator: Sketch 60 (88103) - https://sketch.com -->
    <title>Iconography / Wire Wordmark</title>
    <desc>Created with Sketch.</desc>
    <defs>
        <path d="M9.6504621,13.1260458 C8.94321096,12.2816097 8.51511362,11.1933857 8.51511362,10.0054465 L8.51710048,2.28359182 C8.51710048,1.65387191 9.02637524,1.14179591 9.65244896,1.14179591 C10.2784517,1.14179591 10.7877974,1.65387191 10.7877974,2.28359182 L10.7858106,10.0054465 C10.7858106,11.1933857 10.3577133,12.2816097 9.6504621,13.1260458 L9.6504621,13.1260458 Z M9.65244896,0 C10.9044545,0 11.9231459,1.02443772 11.9231459,2.28359182 L11.9231459,2.28359182 L11.9211591,10.0054465 C11.9211591,11.4940312 11.3874743,12.8546862 10.4910457,13.9039813 C11.2927437,14.5007009 12.2925599,14.8582041 13.364258,14.8582041 C16.0249471,14.8582041 18.1655757,12.6813275 18.1655757,10.0054465 L18.1655757,10.0054465 L18.1655757,0.585505228 L19.3009952,0.585505228 L19.3009952,10.0054465 C19.3009952,13.3107617 16.6449893,16 13.3582974,16 C11.96487,16 10.7023625,15.5129957 9.68629654,14.7042027 C8.67023061,15.5129957 7.3779202,16 5.98449281,16 C2.69772991,16 0,13.3107617 0,10.0054465 L0,10.0054465 L0,0.585505228 L1.13534848,0.585505228 L1.13534848,10.0054465 C1.13534848,12.6813275 3.31181152,14.8582041 5.97250069,14.8582041 C7.0441987,14.8582041 8.04401496,14.5007009 8.84571291,13.9039813 C7.94928432,12.8546862 7.37976514,11.4940312 7.37976514,10.0054465 L7.37976514,10.0054465 L7.381752,2.28359182 C7.381752,1.02443772 8.40037247,0 9.65244896,0 Z M23.8442411,0.554540666 L23.8442411,15.697533 L22.7088927,15.697533 L22.7088927,0.554540666 L23.8442411,0.554540666 Z M33.784061,0.29051688 L33.784061,1.43452709 C30.807674,1.43452709 28.3861886,3.86947741 28.3861886,6.86257556 L28.3861886,6.86257556 L28.3855499,6.86257556 L28.3855499,15.697583 L27.2502014,15.697583 L27.2502014,0.554590666 L28.3855499,0.554590666 L28.3855499,3.16404254 C29.5632611,1.43059849 31.5436636,0.29051688 33.784061,0.29051688 L33.784061,0.29051688 Z M45.3105162,3.01199832 L35.9119595,12.4727971 C33.7028552,9.83755926 33.8306529,5.88052393 36.296133,3.39871606 C38.7616132,0.916908187 42.6926154,0.788264181 45.3105162,3.01199832 Z M35.4932998,2.59056599 C38.5366723,-0.472961366 43.4886366,-0.472961366 46.5320092,2.59056599 C46.6669738,2.72649577 46.7956939,2.86628273 46.9187373,3.00942687 L46.9187373,3.00942687 L41.4127229,8.5518335 L36.7147928,13.2809472 C39.3321968,15.5042527 43.2622765,15.3760373 45.7278277,12.8955151 L45.7278277,12.8955151 L46.530661,13.7036652 C43.4871465,16.7658354 38.5362466,16.7654068 35.4932998,13.7023795 C32.4499272,10.6388521 32.4499272,5.65409334 35.4932998,2.59056599 Z M48.8855866,0.571440816 L48.8855866,0.684656113 L48.4866535,0.684656113 L48.4866535,1.71430816 L48.365668,1.71430816 L48.365668,0.684656113 L47.9684379,0.684656113 L47.9684379,0.571440816 L48.8855866,0.571440816 Z M49.2896217,0.571412245 L49.6833747,1.56327824 L50.0789017,0.571412245 L50.257861,0.571412245 L50.257861,1.71427959 L50.1402106,1.71427959 L50.1402106,0.696699078 L49.7361684,1.71427959 L49.625401,1.71427959 L49.2196558,0.693270476 L49.2196558,1.71427959 L49.1037793,1.71427959 L49.1037793,0.571412245 L49.2896217,0.571412245 Z" id="path-1"></path>
    </defs>
    <g id="Iconography-/-Wire-Wordmark" stroke="none" stroke-width="1" fill="none" fill-rule="evenodd">
        <mask id="mask-2" fill="white">
            <use xlink:href="#path-1"></use>
        </mask>
        <g id="Logo"></g>
        <g id="Mobile-/-⌘-/-Dark-Graphite" mask="url(#mask-2)" fill="#33373A">
            <rect id="Dark-Graphite" x="0" y="0" width="51" height="16"></rect>
        </g>
    </g>
</svg>