<?xml version="1.0" encoding="UTF-8"?><svg xmlns="http://www.w3.org/2000/svg" xmlns:xlink="http://www.w3.org/1999/xlink" fill-opacity="1" color-rendering="auto" color-interpolation="auto" text-rendering="auto" stroke="black" stroke-linecap="square" width="910" stroke-miterlimit="10" shape-rendering="auto" stroke-opacity="1" fill="black" stroke-dasharray="none" font-weight="normal" stroke-width="1" height="360" font-family="'Dialog'" font-style="normal" stroke-linejoin="miter" font-size="12px" stroke-dashoffset="0" image-rendering="auto">
  <!--Generated by ySVG 2.5-->
  <defs id="genericDefs"/>
  <g>
    <g fill="rgb(25,25,25)" text-rendering="geometricPrecision" shape-rendering="geometricPrecision" transform="scale(2,2) translate(935,-125)" stroke="rgb(25,25,25)">
      <rect x="-935" width="455" height="180" y="125" clip-path="url(#clipPath2)" stroke="none"/>
    </g>
    <g id="y.node.0">
      <g>
        <g stroke-linecap="butt" font-size="14px" transform="matrix(2,0,0,2,1870,-250)" fill="white" text-rendering="geometricPrecision" font-family="'Libertinus Serif'" shape-rendering="geometricPrecision" stroke="white" stroke-miterlimit="1.45">
          <text x="-791.2132" xml:space="preserve" y="244.3413" stroke="none">∅</text>
        </g>
      </g>
    </g>
    <g id="y.node.1">
      <g>
        <g stroke-linecap="butt" font-size="14px" transform="matrix(2,0,0,2,1870,-250)" fill="white" text-rendering="geometricPrecision" font-family="'Libertinus Serif'" shape-rendering="geometricPrecision" stroke="white" stroke-miterlimit="1.45">
          <text x="-815.7411" xml:space="preserve" y="147.7941" stroke="none">consistent</text>
        </g>
      </g>
    </g>
    <g id="y.node.2">
      <g>
        <g stroke-linecap="butt" font-size="14px" transform="matrix(2,0,0,2,1870,-250)" fill="white" text-rendering="geometricPrecision" font-family="'Libertinus Serif'" shape-rendering="geometricPrecision" stroke="white" stroke-miterlimit="1.45">
          <text x="-698.6109" xml:space="preserve" y="147.7941" stroke="none">diverge</text>
        </g>
      </g>
    </g>
    <g id="y.node.3">
      <g transform="matrix(2,0,0,2,1870,-250)" fill-opacity="0.8824" fill="rgb(25,25,25)" text-rendering="geometricPrecision" shape-rendering="geometricPrecision" stroke="rgb(25,25,25)" stroke-opacity="0.8824">
        <rect x="-745.4885" width="30" height="30" y="188.2581" stroke="none"/>
      </g>
      <g stroke-linecap="butt" transform="matrix(2,0,0,2,1870,-250)" fill="white" text-rendering="geometricPrecision" shape-rendering="geometricPrecision" stroke="white" stroke-miterlimit="1.45">
        <rect fill="none" x="-745.4885" width="30" height="30" y="188.2581"/>
      </g>
      <g/>
    </g>
    <g id="y.node.4">
      <g transform="matrix(2,0,0,2,1870,-250)" fill-opacity="0.8824" fill="rgb(25,25,25)" text-rendering="geometricPrecision" shape-rendering="geometricPrecision" stroke="rgb(25,25,25)" stroke-opacity="0.8824">
        <circle r="15" cx="-695.1969" cy="276.3525" stroke="none"/>
      </g>
      <g stroke-linecap="butt" transform="matrix(2,0,0,2,1870,-250)" fill="white" text-rendering="geometricPrecision" shape-rendering="geometricPrecision" stroke="white" stroke-miterlimit="1.45">
        <circle fill="none" r="15" cx="-695.1969" cy="276.3525"/>
      </g>
      <g/>
    </g>
    <g id="y.node.5">
      <g fill="purple" text-rendering="geometricPrecision" shape-rendering="geometricPrecision" transform="matrix(2,0,0,2,1870,-250)" stroke="purple">
        <rect x="-677.3563" width="30" height="30" y="188.2581" stroke="none"/>
      </g>
      <g stroke-linecap="butt" transform="matrix(2,0,0,2,1870,-250)" fill="white" text-rendering="geometricPrecision" shape-rendering="geometricPrecision" stroke="white" stroke-miterlimit="1.45">
        <rect fill="none" x="-677.3563" width="30" height="30" y="188.2581"/>
      </g>
      <g/>
    </g>
    <g id="y.node.6">
      <g transform="matrix(2,0,0,2,1870,-250)" fill-opacity="0.8824" fill="rgb(25,25,25)" text-rendering="geometricPrecision" shape-rendering="geometricPrecision" stroke="rgb(25,25,25)" stroke-opacity="0.8824">
        <circle r="15" cx="-636.5914" cy="276.3525" stroke="none"/>
      </g>
      <g stroke-linecap="butt" transform="matrix(2,0,0,2,1870,-250)" fill="rgb(255,204,0)" text-rendering="geometricPrecision" shape-rendering="geometricPrecision" stroke="rgb(255,204,0)" stroke-miterlimit="1.45">
        <circle fill="none" r="15" cx="-636.5914" cy="276.3525"/>
      </g>
      <g/>
    </g>
    <g id="y.node.7">
      <g transform="matrix(2,0,0,2,1870,-250)" fill-opacity="0.8824" fill="rgb(25,25,25)" text-rendering="geometricPrecision" shape-rendering="geometricPrecision" stroke="rgb(25,25,25)" stroke-opacity="0.8824">
        <rect x="-591.5914" y="261.3525" width="30" rx="4" ry="4" height="30" stroke="none"/>
      </g>
      <g stroke-linecap="butt" transform="matrix(2,0,0,2,1870,-250)" fill="rgb(255,204,0)" text-rendering="geometricPrecision" shape-rendering="geometricPrecision" stroke="rgb(255,204,0)" stroke-miterlimit="1.45">
        <rect x="-591.5914" y="261.3525" fill="none" width="30" rx="4" ry="4" height="30"/>
      </g>
      <g/>
    </g>
    <g id="y.node.8">
      <g>
        <g stroke-linecap="butt" font-size="14px" transform="matrix(2,0,0,2,1870,-250)" fill="white" text-rendering="geometricPrecision" font-family="'Libertinus Serif'" shape-rendering="geometricPrecision" stroke="white" stroke-miterlimit="1.45">
          <text x="-543.1284" xml:space="preserve" y="147.7941" stroke="none">consistent</text>
        </g>
      </g>
    </g>
    <g id="y.node.9">
      <g fill="purple" text-rendering="geometricPrecision" shape-rendering="geometricPrecision" transform="matrix(2,0,0,2,1870,-250)" stroke="purple">
        <rect x="-529.1065" y="224.8053" width="30" rx="4" ry="4" height="30" stroke="none"/>
      </g>
      <g stroke-linecap="butt" transform="matrix(2,0,0,2,1870,-250)" fill="rgb(255,204,0)" text-rendering="geometricPrecision" shape-rendering="geometricPrecision" stroke="rgb(255,204,0)" stroke-miterlimit="1.45">
        <rect x="-529.1065" y="224.8053" fill="none" width="30" rx="4" ry="4" height="30"/>
      </g>
      <g/>
    </g>
    <g id="y.node.10">
      <g>
        <g stroke-linecap="butt" font-size="14px" transform="matrix(2,0,0,2,1870,-250)" fill="white" text-rendering="geometricPrecision" font-family="'Libertinus Serif'" shape-rendering="geometricPrecision" stroke="white" stroke-miterlimit="1.45">
          <text x="-594.4833" xml:space="preserve" y="147.7941" stroke="none">merge</text>
        </g>
      </g>
    </g>
    <g id="y.node.11">
      <g fill="purple" text-rendering="geometricPrecision" shape-rendering="geometricPrecision" transform="matrix(2,0,0,2,1870,-250)" stroke="purple">
        <rect x="-591.5914" y="188.2581" width="30" rx="4" ry="4" height="30" stroke="none"/>
      </g>
      <g stroke-linecap="butt" transform="matrix(2,0,0,2,1870,-250)" fill="rgb(255,204,0)" text-rendering="geometricPrecision" shape-rendering="geometricPrecision" stroke="rgb(255,204,0)" stroke-miterlimit="1.45">
        <rect x="-591.5914" y="188.2581" fill="none" width="30" rx="4" ry="4" height="30"/>
      </g>
      <g/>
    </g>
    <g id="y.node.12">
      <a target="_blank" xlink:type="simple" xlink:href="https://www.vecteezy.com/free-vector/iot-devices" xlink:show="new">
        <g text-rendering="geometricPrecision" shape-rendering="geometricPrecision" transform="matrix(0.2377,0,0,0.2377,126.5616,126.5162)">
          <g>
            <svg xmlns:svg="http://www.w3.org/2000/svg" xmlns:sodipodi="http://sodipodi.sourceforge.net/DTD/sodipodi-0.dtd" xmlns:inkscape="http://www.inkscape.org/namespaces/inkscape" xmlns:dc="http://purl.org/dc/elements/1.1/" xmlns:cc="http://creativecommons.org/ns#" xmlns:rdf="http://www.w3.org/1999/02/22-rdf-syntax-ns#" opacity="1" writing-mode="lr-tb" stop-color="rgb(0, 0, 0)" shape-rendering="auto" glyph-orientation-horizontal="0deg" color-profile="auto" lighting-color="rgb(255, 255, 255)" color="rgb(0, 0, 0)" font-weight="400" alignment-baseline="auto" font-style="normal" version="1.1" color-interpolation-filters="linearrgb" text-anchor="start" stroke-linecap="butt" color-interpolation="srgb" font-variant="normal" word-spacing="normal" fill-opacity="1" text-rendering="auto" clip-path="none" text-decoration="none" letter-spacing="normal" viewBox="0 0 89.036179 89.036179" glyph-orientation-vertical="auto" display="inline" font-size-adjust="none" overflow="hidden" fill="rgb(0, 0, 0)" font-stretch="normal" stroke-dasharray="none" inkscape:version="1.0.1 (3bc2e813f5, 2020-09-07)" id="svg1.svg5390" stroke-miterlimit="4" stop-opacity="1" color-rendering="auto" font-size="12" pointer-events="visiblepainted" mask="none" direction="ltr" baseline-shift="baseline" sodipodi:docname="desk.svg" enable-background="accumulate" fill-rule="nonzero" image-rendering="auto" stroke-dashoffset="0" marker-end="none" width="89.036179mm" clip="auto" cursor="auto" stroke="none" filter="none" visibility="visible" kerning="auto" stroke-width="1" font-family="&quot;Arial&quot;,&quot;Helvetica&quot;,sans-serif" flood-opacity="1" clip-rule="nonzero" src="none" height="89.036179mm" unicode-bidi="normal" stroke-linejoin="miter" stroke-opacity="1" flood-color="rgb(0, 0, 0)" dominant-baseline="auto" marker-start="none" marker-mid="none">
                
              <defs id="svg1.defs5384">
                <clipPath clipPathUnits="userSpaceOnUse" id="clipPath1">
                  <path d="M0 0 L910 0 L910 360 L0 360 L0 0 Z"/>
                </clipPath>
                <clipPath clipPathUnits="userSpaceOnUse" id="clipPath2">
                  <path d="M-935 125 L-480 125 L-480 305 L-935 305 L-935 125 Z"/>
                </clipPath>
              </defs>
                
  
              <metadata id="svg1.metadata5387">
    
  </metadata>
                
              <g inkscape:groupmode="layer" id="svg1.layer1" transform="translate(-33.236457,-70.83168)" inkscape:label="Layer 1">
                    
                <circle r="43.74659" id="svg1.path6047" style="fill:#ffffff;fill-opacity:1;stroke:#0e212f;stroke-width:1.543;stroke-miterlimit:10;stroke-opacity:1" cx="77.754547" cy="115.34977"/>
                    
                <g id="svg1.g6565" transform="matrix(0.35277777,0,0,-0.35277777,-758.9716,390.54796)">
                        
                  <g id="svg1.g1190" transform="scale(0.150399)">
                            
                    <path style="fill:#2e798a;fill-opacity:1;fill-rule:nonzero;stroke:none" d="m 16300,5516.76 v -521.07 c 0,-31.08 -25.2,-56.27 -56.3,-56.27 h -947 c -31,0 -56.3,25.19 -56.3,56.27 v 521.07 c 0,31.05 25.3,56.26 56.3,56.26 h 947 c 31.1,0 56.3,-25.21 56.3,-56.26" id="svg1.path1192"/>
                          
                  </g>
                        
                  <g id="svg1.g1194" transform="scale(0.150399)">
                            
                    <path style="fill:none;stroke:#0e212f;stroke-width:29.0726;stroke-linecap:round;stroke-linejoin:round;stroke-miterlimit:10;stroke-dasharray:none;stroke-opacity:1" d="m 16300,5516.76 v -521.07 c 0,-31.08 -25.2,-56.27 -56.3,-56.27 h -947 c -31,0 -56.3,25.19 -56.3,56.27 v 521.07 c 0,31.05 25.3,56.26 56.3,56.26 h 947 c 31.1,0 56.3,-25.21 56.3,-56.26 z" id="svg1.path1196"/>
                          
                  </g>
                        
                  <g id="svg1.g1198" transform="scale(0.149645)">
                            
                    <path style="fill:#ffffff;fill-opacity:1;fill-rule:nonzero;stroke:none" d="m 16300,5028.69 h -900.7 v 439 h 900.7 v -439" id="svg1.path1200"/>
                          
                  </g>
                        
                  <g id="svg1.g1202" transform="scale(0.149645)">
                            
                    <path style="fill:none;stroke:#0e212f;stroke-width:29.2191;stroke-linecap:round;stroke-linejoin:round;stroke-miterlimit:10;stroke-dasharray:none;stroke-opacity:1" d="m 16300,5028.69 h -900.7 v 439 h 900.7 z" id="svg1.path1204"/>
                          
                  </g>
                        
                  <g id="svg1.g1206" transform="scale(0.150399)">
                            
                    <path style="fill:#5ec9ca;fill-opacity:1;fill-rule:nonzero;stroke:none" d="m 16300,5516.76 v -76.46 c 0,0 -1059.6,2.68 -1059.6,0 v 76.46 c 0,31.05 25.3,56.26 56.3,56.26 h 947 c 31.1,0 56.3,-25.21 56.3,-56.26" id="svg1.path1208"/>
                          
                  </g>
                        
                  <g id="svg1.g1210" transform="scale(0.150399)">
                            
                    <path style="fill:none;stroke:#0e212f;stroke-width:29.0726;stroke-linecap:round;stroke-linejoin:round;stroke-miterlimit:10;stroke-dasharray:none;stroke-opacity:1" d="m 16300,5516.76 v -76.46 c 0,0 -1059.6,2.68 -1059.6,0 v 76.46 c 0,31.05 25.3,56.26 56.3,56.26 h 947 c 31.1,0 56.3,-25.21 56.3,-56.26 z" id="svg1.path1212"/>
                          
                  </g>
                        
                  <g id="svg1.g1214" transform="scale(0.147694)">
                            
                    <path style="fill:#2e798a;fill-opacity:1;fill-rule:nonzero;stroke:none" d="m 16300,4888.5 h -515.5 v 63.06 h 515.5 v -63.06" id="svg1.path1216"/>
                          
                  </g>
                        
                  <g id="svg1.g1218" transform="scale(0.147694)">
                            
                    <path style="fill:none;stroke:#0e212f;stroke-width:29.605;stroke-linecap:round;stroke-linejoin:round;stroke-miterlimit:10;stroke-dasharray:none;stroke-opacity:1" d="m 16300,4888.5 h -515.5 v 63.06 h 515.5 z" id="svg1.path1220"/>
                          
                  </g>
                        
                  <g id="svg1.g1222" transform="scale(0.146452)">
                            
                    <path style="fill:#5ec9ca;fill-opacity:1;fill-rule:nonzero;stroke:none" d="m 16300,4993.58 h -243.2 v 78.99 h 243.2 v -78.99" id="svg1.path1224"/>
                          
                  </g>
                        
                  <g id="svg1.g1226" transform="scale(0.146452)">
                            
                    <path style="fill:none;stroke:#0e212f;stroke-width:29.8563;stroke-linecap:round;stroke-linejoin:round;stroke-miterlimit:10;stroke-dasharray:none;stroke-opacity:1" d="m 16300,4993.58 h -243.2 v 78.99 h 243.2 z" id="svg1.path1228"/>
                          
                  </g>
                        
                  <g id="svg1.g1230" transform="scale(0.142699)">
                            
                    <path style="fill:#ffffff;fill-opacity:1;fill-rule:nonzero;stroke:none" d="m 16240.3,5592.07 c 35,-14.12 59.7,-48.36 59.7,-88.42 0,-39.44 -24,-73.34 -58.2,-87.78" id="svg1.path1232"/>
                          
                  </g>
                        
                  <g id="svg1.g1234" transform="scale(0.142699)">
                            
                    <path style="fill:none;stroke:#0e212f;stroke-width:30.6415;stroke-linecap:round;stroke-linejoin:round;stroke-miterlimit:10;stroke-dasharray:none;stroke-opacity:1" d="m 16240.3,5592.07 c 35,-14.12 59.7,-48.36 59.7,-88.42 0,-39.44 -24,-73.34 -58.2,-87.78" id="svg1.path1236"/>
                          
                  </g>
                        
                  <g id="svg1.g1238" transform="scale(0.143375)">
                            
                    <path style="fill:none;stroke:#0e212f;stroke-width:30.497;stroke-linecap:round;stroke-linejoin:round;stroke-miterlimit:10;stroke-dasharray:none;stroke-opacity:1" d="m 16209.4,5611.49 c 53.1,-21.46 90.6,-73.46 90.6,-134.22 0,-59.9 -36.5,-111.32 -88.4,-133.3" id="svg1.path1240"/>
                          
                  </g>
                        
                  <g id="svg1.g1242" transform="scale(0.144)">
                            
                    <path style="fill:none;stroke:#0e212f;stroke-width:30.3646;stroke-linecap:round;stroke-linejoin:round;stroke-miterlimit:10;stroke-dasharray:none;stroke-opacity:1" d="m 16181.4,5629.04 c 69.5,-28.03 118.6,-96.12 118.6,-175.71 0,-78.44 -47.7,-145.75 -115.7,-174.5" id="svg1.path1244"/>
                          
                  </g>
                        
                  <g id="svg1.g1246" transform="scale(0.148696)">
                            
                    <path style="fill:#5ec9ca;fill-opacity:1;fill-rule:nonzero;stroke:none" d="m 16300,5390.36 c 0,-13.41 -10.8,-24.26 -24.2,-24.26 h -366.1 c -13.3,0 -24.2,10.85 -24.2,24.26 v 0 c 0,13.39 10.9,24.19 24.2,24.19 h 366.1 c 13.4,0 24.2,-10.8 24.2,-24.19 v 0" id="svg1.path1248"/>
                          
                  </g>
                        
                  <g id="svg1.g1250" transform="scale(0.148696)">
                            
                    <path style="fill:none;stroke:#0e212f;stroke-width:29.4056;stroke-linecap:round;stroke-linejoin:round;stroke-miterlimit:10;stroke-dasharray:none;stroke-opacity:1" d="m 16300,5390.36 c 0,-13.41 -10.8,-24.26 -24.2,-24.26 h -366.1 c -13.3,0 -24.2,10.85 -24.2,24.26 v 0 c 0,13.39 10.9,24.19 24.2,24.19 h 366.1 c 13.4,0 24.2,-10.8 24.2,-24.19 z" id="svg1.path1252"/>
                          
                  </g>
                        
                  <g id="svg1.g1254" transform="scale(0.148696)">
                            
                    <path style="fill:#5ec9ca;fill-opacity:1;fill-rule:nonzero;stroke:none" d="m 16300,5273.25 c 0,-13.37 -10.8,-24.19 -24.2,-24.19 h -366.1 c -13.3,0 -24.2,10.82 -24.2,24.19 v 0 c 0,13.42 10.9,24.25 24.2,24.25 h 366.1 c 13.4,0 24.2,-10.83 24.2,-24.25 v 0" id="svg1.path1256"/>
                          
                  </g>
                        
                  <g id="svg1.g1258" transform="scale(0.148696)">
                            
                    <path style="fill:none;stroke:#0e212f;stroke-width:29.4056;stroke-linecap:round;stroke-linejoin:round;stroke-miterlimit:10;stroke-dasharray:none;stroke-opacity:1" d="m 16300,5273.25 c 0,-13.37 -10.8,-24.19 -24.2,-24.19 h -366.1 c -13.3,0 -24.2,10.82 -24.2,24.19 v 0 c 0,13.42 10.9,24.25 24.2,24.25 h 366.1 c 13.4,0 24.2,-10.83 24.2,-24.25 z" id="svg1.path1260"/>
                          
                  </g>
                        
                  <g id="svg1.g1262" transform="scale(0.148696)">
                            
                    <path style="fill:#5ec9ca;fill-opacity:1;fill-rule:nonzero;stroke:none" d="m 16300,5145.99 c 0,-13.4 -10.8,-24.25 -24.2,-24.25 h -366.1 c -13.3,0 -24.2,10.85 -24.2,24.25 v 0 c 0,13.36 10.9,24.19 24.2,24.19 h 366.1 c 13.4,0 24.2,-10.83 24.2,-24.19 v 0" id="svg1.path1264"/>
                          
                  </g>
                        
                  <g id="svg1.g1266" transform="scale(0.148696)">
                            
                    <path style="fill:none;stroke:#0e212f;stroke-width:29.4056;stroke-linecap:round;stroke-linejoin:round;stroke-miterlimit:10;stroke-dasharray:none;stroke-opacity:1" d="m 16300,5145.99 c 0,-13.4 -10.8,-24.25 -24.2,-24.25 h -366.1 c -13.3,0 -24.2,10.85 -24.2,24.25 v 0 c 0,13.36 10.9,24.19 24.2,24.19 h 366.1 c 13.4,0 24.2,-10.83 24.2,-24.19 z" id="svg1.path1268"/>
                          
                  </g>
                      
                </g>
                  
              </g>
              
            </svg>
          </g>
        </g>
        <g>
          <g stroke-linecap="butt" font-size="14px" transform="matrix(2,0,0,2,1870,-250)" fill="white" text-rendering="geometricPrecision" font-family="'Libertinus Serif'" shape-rendering="geometricPrecision" stroke="white" stroke-miterlimit="1.45">
            <text x="-926.803" xml:space="preserve" y="212.7941" stroke="none">Device 1</text>
          </g>
        </g>
      </a>
    </g>
    <g id="y.node.13">
      <a target="_blank" xlink:type="simple" xlink:href="https://www.vecteezy.com/free-vector/iot-devices" xlink:show="new">
        <g text-rendering="geometricPrecision" shape-rendering="geometricPrecision" transform="matrix(0.2377,0,0,0.2377,121.8209,272.705)">
          <g>
            <svg xmlns:svg="http://www.w3.org/2000/svg" xmlns:sodipodi="http://sodipodi.sourceforge.net/DTD/sodipodi-0.dtd" xmlns:inkscape="http://www.inkscape.org/namespaces/inkscape" xmlns:dc="http://purl.org/dc/elements/1.1/" xmlns:cc="http://creativecommons.org/ns#" xmlns:rdf="http://www.w3.org/1999/02/22-rdf-syntax-ns#" opacity="1" writing-mode="lr-tb" stop-color="rgb(0, 0, 0)" shape-rendering="auto" glyph-orientation-horizontal="0deg" color-profile="auto" lighting-color="rgb(255, 255, 255)" color="rgb(0, 0, 0)" font-weight="400" alignment-baseline="auto" font-style="normal" version="1.1" color-interpolation-filters="linearrgb" text-anchor="start" stroke-linecap="butt" color-interpolation="srgb" font-variant="normal" word-spacing="normal" fill-opacity="1" text-rendering="auto" clip-path="none" text-decoration="none" letter-spacing="normal" viewBox="0 0 89.036179 89.036179" glyph-orientation-vertical="auto" display="inline" font-size-adjust="none" overflow="hidden" fill="rgb(0, 0, 0)" font-stretch="normal" stroke-dasharray="none" inkscape:version="1.0.1 (3bc2e813f5, 2020-09-07)" id="svg2.svg5390" stroke-miterlimit="4" stop-opacity="1" color-rendering="auto" font-size="12" pointer-events="visiblepainted" mask="none" direction="ltr" baseline-shift="baseline" sodipodi:docname="phone.svg" enable-background="accumulate" fill-rule="nonzero" image-rendering="auto" stroke-dashoffset="0" marker-end="none" width="89.036179mm" clip="auto" cursor="auto" stroke="none" filter="none" visibility="visible" kerning="auto" stroke-width="1" font-family="&quot;Arial&quot;,&quot;Helvetica&quot;,sans-serif" flood-opacity="1" clip-rule="nonzero" src="none" height="89.036179mm" unicode-bidi="normal" stroke-linejoin="miter" stroke-opacity="1" flood-color="rgb(0, 0, 0)" dominant-baseline="auto" marker-start="none" marker-mid="none">
                
              <defs id="svg2.defs5384"/>
                
  
              <metadata id="svg2.metadata5387">
    
  </metadata>
                
              <g inkscape:groupmode="layer" id="svg2.layer1" transform="translate(-33.236457,-70.83168)" inkscape:label="Layer 1">
                    
                <circle r="43.74659" id="svg2.path6047" style="fill:#ffffff;fill-opacity:1;stroke:#0e212f;stroke-width:1.543;stroke-miterlimit:10;stroke-opacity:1" cx="77.754547" cy="115.34977"/>
                    
                <g style="opacity:1" id="svg2.g6251" transform="matrix(0.35277777,0,0,-0.35277777,-9.4041398,577.9402)">
                        
                  <path style="fill:#2e798a;fill-opacity:1;fill-rule:nonzero;stroke:none;stroke-width:0.1" d="m 253.723,1248.74 c 0,-4.76 -3.857,-8.62 -8.617,-8.62 h -69.102 c -4.76,0 -8.619,3.86 -8.619,8.62 v 125.08 c 0,4.76 3.859,8.62 8.619,8.62 h 69.102 c 4.76,0 8.617,-3.86 8.617,-8.62 v -125.08" id="svg2.path42"/>
                        
                  <path style="fill:none;stroke:#0e212f;stroke-width:4.3725;stroke-linecap:round;stroke-linejoin:round;stroke-miterlimit:10;stroke-dasharray:none;stroke-opacity:1" d="m 253.723,1248.74 c 0,-4.76 -3.857,-8.62 -8.617,-8.62 h -69.102 c -4.76,0 -8.619,3.86 -8.619,8.62 v 125.08 c 0,4.76 3.859,8.62 8.619,8.62 h 69.102 c 4.76,0 8.617,-3.86 8.617,-8.62 z" id="svg2.path44"/>
                        
                  <path style="fill:#ffffff;fill-opacity:1;fill-rule:nonzero;stroke:none;stroke-width:0.1" d="m 218.703,1257.18 c 0,-4.5 -3.649,-8.15 -8.148,-8.15 -4.501,0 -8.148,3.65 -8.148,8.15 0,4.5 3.647,8.14 8.148,8.14 4.499,0 8.148,-3.64 8.148,-8.14" id="svg2.path46"/>
                        
                  <path style="fill:none;stroke:#0e212f;stroke-width:4.3725;stroke-linecap:round;stroke-linejoin:round;stroke-miterlimit:10;stroke-dasharray:none;stroke-opacity:1" d="m 218.703,1257.18 c 0,-4.5 -3.649,-8.15 -8.148,-8.15 -4.501,0 -8.148,3.65 -8.148,8.15 0,4.5 3.647,8.14 8.148,8.14 4.499,0 8.148,-3.64 8.148,-8.14 z" id="svg2.path48"/>
                        
                  <path style="fill:#ffffff;fill-opacity:1;fill-rule:nonzero;stroke:none;stroke-width:0.1" d="m 253.723,1278.45 h -86.338 v 83.91 h 86.338 v -83.91" id="svg2.path50"/>
                        
                  <path style="fill:none;stroke:#0e212f;stroke-width:4.3725;stroke-linecap:round;stroke-linejoin:round;stroke-miterlimit:10;stroke-dasharray:none;stroke-opacity:1" d="m 253.723,1278.45 h -86.338 v 83.91 h 86.338 z" id="svg2.path52"/>
                        
                  <path style="fill:none;stroke:#0e212f;stroke-width:4.3725;stroke-linecap:round;stroke-linejoin:round;stroke-miterlimit:10;stroke-dasharray:none;stroke-opacity:1" d="m 268.976,1335.81 c 9.703,-3.92 16.549,-13.42 16.549,-24.52 0,-10.95 -6.656,-20.35 -16.146,-24.36" id="svg2.path54"/>
                        
                  <path style="fill:none;stroke:#0e212f;stroke-width:4.3725;stroke-linecap:round;stroke-linejoin:round;stroke-miterlimit:10;stroke-dasharray:none;stroke-opacity:1" d="m 281.691,1348.56 c 14.799,-5.98 25.243,-20.47 25.243,-37.41 0,-16.69 -10.156,-31.02 -24.624,-37.14" id="svg2.path56"/>
                        
                  <path style="fill:none;stroke:#0e212f;stroke-width:4.3725;stroke-linecap:round;stroke-linejoin:round;stroke-miterlimit:10;stroke-dasharray:none;stroke-opacity:1" d="m 293.552,1360.3 c 19.459,-7.85 33.191,-26.91 33.191,-49.18 0,-21.97 -13.352,-40.81 -32.378,-48.85" id="svg2.path58"/>
                      
                </g>
                  
              </g>
              
            </svg>
          </g>
        </g>
        <g>
          <g stroke-linecap="butt" font-size="14px" transform="matrix(2,0,0,2,1870,-250)" fill="white" text-rendering="geometricPrecision" font-family="'Libertinus Serif'" shape-rendering="geometricPrecision" stroke="white" stroke-miterlimit="1.45">
            <text x="-929.1734" xml:space="preserve" y="285.8885" stroke="none">Device 2</text>
          </g>
        </g>
      </a>
    </g>
    <g id="y.edge.2">
      <g stroke-linecap="round" transform="matrix(2,0,0,2,1870,-250)" stroke-dashoffset="2" fill="white" text-rendering="geometricPrecision" shape-rendering="geometricPrecision" stroke-dasharray="0,8" stroke="white" stroke-width="2" stroke-miterlimit="1.45">
        <path fill="none" d="M-786.7192 158.2581 L-786.7192 224.8053"/>
      </g>
    </g>
    <g id="y.edge.0">
      <g stroke-linecap="butt" transform="matrix(2,0,0,2,1870,-250)" fill="white" text-rendering="geometricPrecision" shape-rendering="geometricPrecision" stroke="white" stroke-miterlimit="1.45">
        <path fill="none" d="M-774.1423 231.6309 L-752.1962 217.367"/>
        <path d="M-745.4885 213.0073 L-758.2748 215.3545 L-753.0346 217.912 L-752.8253 223.7392 Z" stroke="none"/>
      </g>
    </g>
    <g id="y.edge.1">
      <g stroke-linecap="butt" transform="matrix(2,0,0,2,1870,-250)" fill="white" text-rendering="geometricPrecision" shape-rendering="geometricPrecision" stroke="white" stroke-miterlimit="1.45">
        <path fill="none" d="M-772.7888 245.368 L-716.5568 267.8229"/>
        <path d="M-709.1273 270.7897 L-718.4173 261.696 L-717.4855 267.4521 L-722.1258 270.9829 Z" stroke="none"/>
      </g>
    </g>
    <g id="y.edge.3">
      <g stroke-linecap="butt" transform="matrix(2,0,0,2,1870,-250)" fill="white" text-rendering="geometricPrecision" shape-rendering="geometricPrecision" stroke="white" stroke-miterlimit="1.45">
        <path fill="none" d="M-715.4885 203.2581 L-685.3333 203.2581"/>
        <path d="M-677.3333 203.2581 L-689.3333 198.2581 L-686.3333 203.2581 L-689.3333 208.2581 Z" stroke="none"/>
      </g>
    </g>
    <g id="y.edge.5">
      <g stroke-linecap="butt" transform="matrix(2,0,0,2,1870,-250)" fill="white" text-rendering="geometricPrecision" shape-rendering="geometricPrecision" stroke="white" stroke-miterlimit="1.45">
        <path fill="none" d="M-680.1968 276.3525 L-659.5914 276.3525"/>
        <path d="M-651.5914 276.3525 L-663.5914 271.3525 L-660.5914 276.3525 L-663.5914 281.3525 Z" stroke="none"/>
      </g>
    </g>
    <g id="y.edge.4">
      <g stroke-linecap="butt" transform="matrix(2,0,0,2,1870,-250)" fill="white" text-rendering="geometricPrecision" shape-rendering="geometricPrecision" stroke-dasharray="6,2" stroke="white" stroke-miterlimit="1.45">
        <path fill="none" d="M-715.4885 210.3824 L-598.84 265.7853"/>
        <path d="M-591.6137 269.2175 L-600.3081 259.5528 L-599.7433 265.3563 L-604.5983 268.5857 Z" stroke="none"/>
      </g>
    </g>
    <g id="y.edge.8">
      <g stroke-linecap="butt" transform="matrix(2,0,0,2,1870,-250)" fill="white" text-rendering="geometricPrecision" shape-rendering="geometricPrecision" stroke="white" stroke-miterlimit="1.45">
        <path fill="none" d="M-621.5914 276.3525 L-591.5767 276.3525"/>
      </g>
    </g>
    <g id="y.edge.9">
      <g stroke-linecap="butt" transform="matrix(2,0,0,2,1870,-250)" fill="white" text-rendering="geometricPrecision" shape-rendering="geometricPrecision" stroke-dasharray="6,2" stroke="white" stroke-miterlimit="1.45">
        <path fill="none" d="M-561.6109 267.5904 L-536.0195 252.6221"/>
        <path d="M-529.114 248.5831 L-541.9967 250.3257 L-536.8828 253.127 L-536.9479 258.9576 Z" stroke="none"/>
      </g>
    </g>
    <g id="y.edge.10">
      <g stroke-linecap="round" transform="matrix(2,0,0,2,1870,-250)" stroke-dashoffset="2" fill="white" text-rendering="geometricPrecision" shape-rendering="geometricPrecision" stroke-dasharray="0,8" stroke="white" stroke-width="2" stroke-miterlimit="1.45">
        <path fill="none" d="M-514.1066 158.2581 L-514.1066 224.7939"/>
      </g>
    </g>
    <g id="y.edge.6">
      <g stroke-linecap="butt" transform="matrix(2,0,0,2,1870,-250)" fill="white" text-rendering="geometricPrecision" shape-rendering="geometricPrecision" stroke="white" stroke-miterlimit="1.45">
        <path fill="none" d="M-647.3563 203.2581 L-591.622 203.2581"/>
      </g>
    </g>
    <g id="y.edge.7">
      <g stroke-linecap="butt" transform="matrix(2,0,0,2,1870,-250)" fill="white" text-rendering="geometricPrecision" shape-rendering="geometricPrecision" stroke-dasharray="6,2" stroke="white" stroke-miterlimit="1.45">
        <path fill="none" d="M-627.0743 264.7583 L-593.8196 224.2461"/>
        <path d="M-588.7438 218.0626 L-600.2222 224.1655 L-594.454 225.0191 L-592.4928 230.5103 Z" stroke="none"/>
      </g>
    </g>
    <g id="y.edge.11">
      <g stroke-linecap="round" transform="matrix(2,0,0,2,1870,-250)" stroke-dashoffset="2" fill="white" text-rendering="geometricPrecision" shape-rendering="geometricPrecision" stroke-dasharray="0,8" stroke="white" stroke-width="2" stroke-miterlimit="1.45">
        <path fill="none" d="M-576.4599 158.2581 L-576.1969 188.2585"/>
      </g>
    </g>
    <g id="y.edge.12">
      <g stroke-linecap="butt" transform="matrix(2,0,0,2,1870,-250)" fill="white" text-rendering="geometricPrecision" shape-rendering="geometricPrecision" stroke-dasharray="6,2" stroke="white" stroke-miterlimit="1.45">
        <path fill="none" d="M-561.6109 212.0201 L-536.0195 226.9884"/>
        <path d="M-529.114 231.0275 L-536.9479 220.653 L-536.8828 226.4836 L-541.9967 229.2849 Z" stroke="none"/>
      </g>
    </g>
    <g id="y.edge.13">
      <g stroke-linecap="round" transform="matrix(2,0,0,2,1870,-250)" stroke-dashoffset="2" fill="white" text-rendering="geometricPrecision" shape-rendering="geometricPrecision" stroke-dasharray="0,8" stroke="white" stroke-width="2" stroke-miterlimit="1.45">
        <path fill="none" d="M-576.5914 218.2838 L-576.5914 261.3533"/>
      </g>
    </g>
    <g id="y.edge.14">
      <g stroke-linecap="round" transform="matrix(2,0,0,2,1870,-250)" stroke-dashoffset="2" fill="yellow" text-rendering="geometricPrecision" shape-rendering="geometricPrecision" stroke-dasharray="0,8" stroke="yellow" stroke-width="2" stroke-miterlimit="1.45">
        <path fill="none" d="M-851.7192 228.2805 L-851.7192 261.3727"/>
      </g>
    </g>
  </g>
</svg>
