<?xml version="1.0" encoding="UTF-8"?><svg xmlns="http://www.w3.org/2000/svg" xmlns:xlink="http://www.w3.org/1999/xlink" fill-opacity="1" color-rendering="auto" color-interpolation="auto" text-rendering="auto" stroke="black" stroke-linecap="square" width="636" stroke-miterlimit="10" shape-rendering="auto" stroke-opacity="1" fill="black" stroke-dasharray="none" font-weight="normal" stroke-width="1" height="304" font-family="'Dialog'" font-style="normal" stroke-linejoin="miter" font-size="12px" stroke-dashoffset="0" image-rendering="auto">
  <!--Generated by ySVG 2.5-->
  <defs id="genericDefs"/>
  <g>
    <defs id="defs1">
      <clipPath clipPathUnits="userSpaceOnUse" id="clipPath1">
        <path d="M0 0 L636 0 L636 304 L0 304 L0 0 Z"/>
      </clipPath>
      <clipPath clipPathUnits="userSpaceOnUse" id="clipPath2">
        <path d="M-666 1733 L-348 1733 L-348 1885 L-666 1885 L-666 1733 Z"/>
      </clipPath>
    </defs>
    <g fill="rgb(25,25,25)" text-rendering="geometricPrecision" shape-rendering="geometricPrecision" transform="scale(2,2) translate(666,-1733)" stroke="rgb(25,25,25)">
      <rect x="-666" width="318" height="152" y="1733" clip-path="url(#clipPath2)" stroke="none"/>
    </g>
    <g transform="matrix(2,0,0,2,1332,-3466)" fill-opacity="0.8824" fill="rgb(25,25,25)" text-rendering="geometricPrecision" shape-rendering="geometricPrecision" stroke="rgb(25,25,25)" stroke-opacity="0.8824">
      <circle r="10" clip-path="url(#clipPath2)" cx="-517.5819" cy="1788.0546" stroke="none"/>
    </g>
    <g stroke-linecap="butt" transform="matrix(2,0,0,2,1332,-3466)" fill="white" text-rendering="geometricPrecision" shape-rendering="geometricPrecision" stroke="white" stroke-miterlimit="1.45">
      <circle fill="none" r="10" clip-path="url(#clipPath2)" cx="-517.5819" cy="1788.0546"/>
    </g>
    <g transform="matrix(2,0,0,2,1332,-3466)" fill-opacity="0.8824" fill="rgb(25,25,25)" text-rendering="geometricPrecision" shape-rendering="geometricPrecision" stroke="rgb(25,25,25)" stroke-opacity="0.8824">
      <path d="M-527.5818 1736.4576 L-507.5819 1736.4576 L-517.5818 1756.4576 Z" fill-rule="evenodd" clip-path="url(#clipPath2)" stroke="none"/>
    </g>
    <g stroke-linecap="butt" transform="matrix(2,0,0,2,1332,-3466)" fill="white" text-rendering="geometricPrecision" shape-rendering="geometricPrecision" stroke="white" stroke-miterlimit="1.45">
      <path fill="none" d="M-527.5818 1736.4576 L-507.5819 1736.4576 L-517.5818 1756.4576 Z" fill-rule="evenodd" clip-path="url(#clipPath2)"/>
    </g>
    <g transform="matrix(2,0,0,2,1332,-3466)" fill-opacity="0.8824" fill="rgb(25,25,25)" text-rendering="geometricPrecision" shape-rendering="geometricPrecision" stroke="rgb(25,25,25)" stroke-opacity="0.8824">
      <path d="M-563.3898 1736.4576 L-543.3898 1736.4576 L-553.3898 1756.4576 Z" fill-rule="evenodd" clip-path="url(#clipPath2)" stroke="none"/>
    </g>
    <g stroke-linecap="butt" transform="matrix(2,0,0,2,1332,-3466)" fill="white" text-rendering="geometricPrecision" shape-rendering="geometricPrecision" stroke="white" stroke-miterlimit="1.45">
      <path fill="none" d="M-563.3898 1736.4576 L-543.3898 1736.4576 L-553.3898 1756.4576 Z" fill-rule="evenodd" clip-path="url(#clipPath2)"/>
    </g>
    <g transform="matrix(2,0,0,2,1332,-3466)" fill-opacity="0.8824" fill="rgb(25,25,25)" text-rendering="geometricPrecision" shape-rendering="geometricPrecision" stroke="rgb(25,25,25)" stroke-opacity="0.8824">
      <path d="M-491.7739 1736.4576 L-471.7739 1736.4576 L-481.7739 1756.4576 Z" fill-rule="evenodd" clip-path="url(#clipPath2)" stroke="none"/>
    </g>
    <g stroke-linecap="butt" transform="matrix(2,0,0,2,1332,-3466)" fill="yellow" text-rendering="geometricPrecision" shape-rendering="geometricPrecision" stroke="yellow" stroke-miterlimit="1.45">
      <path fill="none" d="M-491.7739 1736.4576 L-471.7739 1736.4576 L-481.7739 1756.4576 Z" fill-rule="evenodd" clip-path="url(#clipPath2)"/>
    </g>
    <g transform="matrix(2,0,0,2,1332,-3466)" fill-opacity="0.8824" fill="rgb(25,25,25)" text-rendering="geometricPrecision" shape-rendering="geometricPrecision" stroke="rgb(25,25,25)" stroke-opacity="0.8824">
      <circle r="10" clip-path="url(#clipPath2)" cx="-517.5819" cy="1829.6513" stroke="none"/>
    </g>
    <g stroke-linecap="butt" transform="matrix(2,0,0,2,1332,-3466)" fill="yellow" text-rendering="geometricPrecision" shape-rendering="geometricPrecision" stroke="yellow" stroke-miterlimit="1.45">
      <circle fill="none" r="10" clip-path="url(#clipPath2)" cx="-517.5819" cy="1829.6513"/>
    </g>
    <g transform="matrix(2,0,0,2,1332,-3466)" fill-opacity="0.8824" fill="rgb(25,25,25)" text-rendering="geometricPrecision" shape-rendering="geometricPrecision" stroke="rgb(25,25,25)" stroke-opacity="0.8824">
      <circle r="10" clip-path="url(#clipPath2)" cx="-517.5819" cy="1871.2481" stroke="none"/>
    </g>
    <g stroke-linecap="butt" transform="matrix(2,0,0,2,1332,-3466)" fill="yellow" text-rendering="geometricPrecision" shape-rendering="geometricPrecision" stroke="yellow" stroke-miterlimit="1.45">
      <circle fill="none" r="10" clip-path="url(#clipPath2)" cx="-517.5819" cy="1871.2481"/>
    </g>
    <g transform="matrix(2,0,0,2,1332,-3466)" fill-opacity="0.8824" fill="rgb(25,25,25)" text-rendering="geometricPrecision" shape-rendering="geometricPrecision" stroke="rgb(25,25,25)" stroke-opacity="0.8824">
      <circle r="10" clip-path="url(#clipPath2)" cx="-481.7739" cy="1829.6513" stroke="none"/>
    </g>
    <g stroke-linecap="butt" transform="matrix(2,0,0,2,1332,-3466)" fill="yellow" text-rendering="geometricPrecision" shape-rendering="geometricPrecision" stroke="yellow" stroke-miterlimit="1.45">
      <circle fill="none" r="10" clip-path="url(#clipPath2)" cx="-481.7739" cy="1829.6513"/>
    </g>
    <g stroke-linecap="butt" font-size="14px" transform="matrix(2,0,0,2,1332,-3466)" fill="white" text-rendering="geometricPrecision" font-family="'Libertinus Serif'" shape-rendering="geometricPrecision" stroke="white" stroke-miterlimit="1.45">
      <text x="-656.3126" xml:space="preserve" y="1834.1874" clip-path="url(#clipPath2)" stroke="none">ReplicatedList</text>
      <text x="-445.6791" xml:space="preserve" y="1834.1874" clip-path="url(#clipPath2)" stroke="none">LastWriterWins</text>
      <path fill="none" d="M-517.5819 1756.4913 L-517.5819 1770.0546" clip-path="url(#clipPath2)"/>
      <path d="M-517.5819 1778.0546 L-512.5819 1766.0546 L-517.5819 1769.0546 L-522.5819 1766.0546 Z" stroke="none" clip-path="url(#clipPath2)"/>
      <path fill="none" d="M-517.5819 1798.0546 L-517.5819 1811.6514" clip-path="url(#clipPath2)"/>
      <path d="M-517.5819 1819.6514 L-512.5819 1807.6514 L-517.5819 1810.6514 L-522.5819 1807.6514 Z" stroke="none" clip-path="url(#clipPath2)"/>
      <path fill="none" d="M-551.3613 1752.4254 L-529.1731 1817.6978" clip-path="url(#clipPath2)"/>
      <path d="M-526.5983 1825.2721 L-525.7265 1812.3014 L-529.4949 1816.751 L-535.1945 1815.5198 Z" stroke="none" clip-path="url(#clipPath2)"/>
    </g>
    <g stroke-linecap="butt" transform="matrix(2,0,0,2,1332,-3466)" fill="yellow" text-rendering="geometricPrecision" shape-rendering="geometricPrecision" stroke="yellow" stroke-miterlimit="1.45">
      <path fill="none" d="M-483.8091 1752.4128 L-506.0653 1817.5356" clip-path="url(#clipPath2)"/>
      <path d="M-508.6525 1825.1057 L-500.0404 1815.3676 L-505.7419 1816.5894 L-509.5031 1812.1335 Z" clip-path="url(#clipPath2)" stroke="none"/>
      <path fill="none" d="M-517.5819 1839.6514 L-517.5819 1853.2482" clip-path="url(#clipPath2)"/>
      <path d="M-517.5819 1861.2482 L-512.5819 1849.2482 L-517.5819 1852.2482 L-522.5819 1849.2482 Z" clip-path="url(#clipPath2)" stroke="none"/>
      <path fill="none" d="M-481.7739 1756.4913 L-481.7739 1811.6514" clip-path="url(#clipPath2)"/>
      <path d="M-481.7739 1819.6514 L-476.7739 1807.6514 L-481.7739 1810.6514 L-486.7739 1807.6514 Z" clip-path="url(#clipPath2)" stroke="none"/>
      <path fill="none" d="M-488.2979 1837.2301 L-505.8386 1857.6064" clip-path="url(#clipPath2)"/>
      <path d="M-511.0579 1863.6694 L-499.4397 1857.837 L-505.1862 1856.8486 L-507.0184 1851.313 Z" clip-path="url(#clipPath2)" stroke="none"/>
    </g>
    <g stroke-linecap="round" transform="matrix(2,0,0,2,1332,-3466)" stroke-dashoffset="2" fill="white" text-rendering="geometricPrecision" shape-rendering="geometricPrecision" stroke-dasharray="0,8" stroke="white" stroke-width="2" stroke-miterlimit="1.45">
      <path fill="none" d="M-569.5474 1829.6514 L-527.5819 1829.6514" clip-path="url(#clipPath2)"/>
      <path fill="none" d="M-441.7739 1829.6514 L-471.7739 1829.6514" clip-path="url(#clipPath2)"/>
    </g>
  </g>
</svg>
