<?xml version="1.0" encoding="UTF-8"?><svg xmlns="http://www.w3.org/2000/svg" xmlns:xlink="http://www.w3.org/1999/xlink" fill-opacity="1" color-rendering="auto" color-interpolation="auto" text-rendering="auto" stroke="black" stroke-linecap="square" width="636" stroke-miterlimit="10" shape-rendering="auto" stroke-opacity="1" fill="black" stroke-dasharray="none" font-weight="normal" stroke-width="1" height="304" font-family="'Dialog'" font-style="normal" stroke-linejoin="miter" font-size="12px" stroke-dashoffset="0" image-rendering="auto">
  <!--Generated by ySVG 2.5-->
  <defs id="genericDefs"/>
  <g>
    <defs id="defs1">
      <clipPath clipPathUnits="userSpaceOnUse" id="clipPath1">
        <path d="M0 0 L636 0 L636 304 L0 304 L0 0 Z"/>
      </clipPath>
      <clipPath clipPathUnits="userSpaceOnUse" id="clipPath2">
        <path d="M-588 1510 L-270 1510 L-270 1662 L-588 1662 L-588 1510 Z"/>
      </clipPath>
    </defs>
    <g fill="rgb(25,25,25)" text-rendering="geometricPrecision" shape-rendering="geometricPrecision" transform="scale(2,2) translate(588,-1510)" stroke="rgb(25,25,25)">
      <rect x="-588" width="318" height="152" y="1510" clip-path="url(#clipPath2)" stroke="none"/>
    </g>
    <g transform="matrix(2,0,0,2,1176,-3020)" fill-opacity="0.8824" fill="rgb(25,25,25)" text-rendering="geometricPrecision" shape-rendering="geometricPrecision" stroke="rgb(25,25,25)" stroke-opacity="0.8824">
      <circle r="10" clip-path="url(#clipPath2)" cx="-439.6061" cy="1565.4402" stroke="none"/>
    </g>
    <g stroke-linecap="butt" transform="matrix(2,0,0,2,1176,-3020)" fill="white" text-rendering="geometricPrecision" shape-rendering="geometricPrecision" stroke="white" stroke-miterlimit="1.45">
      <circle fill="none" r="10" clip-path="url(#clipPath2)" cx="-439.6061" cy="1565.4402"/>
    </g>
    <g transform="matrix(2,0,0,2,1176,-3020)" fill-opacity="0.8824" fill="rgb(25,25,25)" text-rendering="geometricPrecision" shape-rendering="geometricPrecision" stroke="rgb(25,25,25)" stroke-opacity="0.8824">
      <path d="M-449.6061 1513.8434 L-429.6061 1513.8434 L-439.6061 1533.8434 Z" fill-rule="evenodd" clip-path="url(#clipPath2)" stroke="none"/>
    </g>
    <g stroke-linecap="butt" transform="matrix(2,0,0,2,1176,-3020)" fill="white" text-rendering="geometricPrecision" shape-rendering="geometricPrecision" stroke="white" stroke-miterlimit="1.45">
      <path fill="none" d="M-449.6061 1513.8434 L-429.6061 1513.8434 L-439.6061 1533.8434 Z" fill-rule="evenodd" clip-path="url(#clipPath2)"/>
    </g>
    <g transform="matrix(2,0,0,2,1176,-3020)" fill-opacity="0.8824" fill="rgb(25,25,25)" text-rendering="geometricPrecision" shape-rendering="geometricPrecision" stroke="rgb(25,25,25)" stroke-opacity="0.8824">
      <path d="M-485.4141 1513.8434 L-465.4141 1513.8434 L-475.4141 1533.8434 Z" fill-rule="evenodd" clip-path="url(#clipPath2)" stroke="none"/>
    </g>
    <g stroke-linecap="butt" transform="matrix(2,0,0,2,1176,-3020)" fill="white" text-rendering="geometricPrecision" shape-rendering="geometricPrecision" stroke="white" stroke-miterlimit="1.45">
      <path fill="none" d="M-485.4141 1513.8434 L-465.4141 1513.8434 L-475.4141 1533.8434 Z" fill-rule="evenodd" clip-path="url(#clipPath2)"/>
    </g>
    <g transform="matrix(2,0,0,2,1176,-3020)" fill-opacity="0.8824" fill="rgb(25,25,25)" text-rendering="geometricPrecision" shape-rendering="geometricPrecision" stroke="rgb(25,25,25)" stroke-opacity="0.8824">
      <path d="M-413.7981 1513.8434 L-393.7981 1513.8434 L-403.7981 1533.8434 Z" fill-rule="evenodd" clip-path="url(#clipPath2)" stroke="none"/>
    </g>
    <g stroke-linecap="butt" transform="matrix(2,0,0,2,1176,-3020)" fill="white" text-rendering="geometricPrecision" shape-rendering="geometricPrecision" stroke="white" stroke-miterlimit="1.45">
      <path fill="none" d="M-413.7981 1513.8434 L-393.7981 1513.8434 L-403.7981 1533.8434 Z" fill-rule="evenodd" clip-path="url(#clipPath2)"/>
    </g>
    <g transform="matrix(2,0,0,2,1176,-3020)" fill-opacity="0.8824" fill="rgb(25,25,25)" text-rendering="geometricPrecision" shape-rendering="geometricPrecision" stroke="rgb(25,25,25)" stroke-opacity="0.8824">
      <circle r="10" clip-path="url(#clipPath2)" cx="-439.6061" cy="1607.037" stroke="none"/>
    </g>
    <g stroke-linecap="butt" transform="matrix(2,0,0,2,1176,-3020)" fill="white" text-rendering="geometricPrecision" shape-rendering="geometricPrecision" stroke="white" stroke-miterlimit="1.45">
      <circle fill="none" r="10" clip-path="url(#clipPath2)" cx="-439.6061" cy="1607.037"/>
    </g>
    <g transform="matrix(2,0,0,2,1176,-3020)" fill-opacity="0.8824" fill="rgb(25,25,25)" text-rendering="geometricPrecision" shape-rendering="geometricPrecision" stroke="rgb(25,25,25)" stroke-opacity="0.8824">
      <circle r="10" clip-path="url(#clipPath2)" cx="-439.6061" cy="1648.6338" stroke="none"/>
    </g>
    <g stroke-linecap="butt" transform="matrix(2,0,0,2,1176,-3020)" fill="white" text-rendering="geometricPrecision" shape-rendering="geometricPrecision" stroke="white" stroke-miterlimit="1.45">
      <circle fill="none" r="10" clip-path="url(#clipPath2)" cx="-439.6061" cy="1648.6338"/>
    </g>
    <g transform="matrix(2,0,0,2,1176,-3020)" fill-opacity="0.8824" fill="rgb(25,25,25)" text-rendering="geometricPrecision" shape-rendering="geometricPrecision" stroke="rgb(25,25,25)" stroke-opacity="0.8824">
      <circle r="10" clip-path="url(#clipPath2)" cx="-403.7981" cy="1607.037" stroke="none"/>
    </g>
    <g stroke-linecap="butt" transform="matrix(2,0,0,2,1176,-3020)" fill="white" text-rendering="geometricPrecision" shape-rendering="geometricPrecision" stroke="white" stroke-miterlimit="1.45">
      <circle fill="none" r="10" clip-path="url(#clipPath2)" cx="-403.7981" cy="1607.037"/>
      <text x="-578.3368" font-size="14px" y="1611.573" clip-path="url(#clipPath2)" font-family="'Libertinus Serif'" stroke="none" xml:space="preserve">ReplicatedList</text>
      <text x="-367.7032" font-size="14px" y="1611.573" clip-path="url(#clipPath2)" font-family="'Libertinus Serif'" stroke="none" xml:space="preserve">LastWriterWins</text>
      <path fill="none" d="M-439.6061 1533.8771 L-439.6061 1547.4402" clip-path="url(#clipPath2)"/>
      <path d="M-439.6061 1555.4402 L-434.6061 1543.4402 L-439.6061 1546.4402 L-444.6061 1543.4402 Z" clip-path="url(#clipPath2)" stroke="none"/>
      <path fill="none" d="M-439.6061 1575.4402 L-439.6061 1589.037" clip-path="url(#clipPath2)"/>
      <path d="M-439.6061 1597.037 L-434.6061 1585.037 L-439.6061 1588.037 L-444.6061 1585.037 Z" clip-path="url(#clipPath2)" stroke="none"/>
      <path fill="none" d="M-473.3855 1529.811 L-451.1972 1595.0834" clip-path="url(#clipPath2)"/>
      <path d="M-448.6225 1602.6577 L-447.7506 1589.687 L-451.5191 1594.1366 L-457.2186 1592.9054 Z" clip-path="url(#clipPath2)" stroke="none"/>
      <path fill="none" d="M-405.8333 1529.7985 L-428.0895 1594.9213" clip-path="url(#clipPath2)"/>
      <path d="M-430.6766 1602.4913 L-422.0646 1592.7531 L-427.7661 1593.975 L-431.5273 1589.5192 Z" clip-path="url(#clipPath2)" stroke="none"/>
      <path fill="none" d="M-439.6061 1617.037 L-439.6061 1630.6338" clip-path="url(#clipPath2)"/>
      <path d="M-439.6061 1638.6338 L-434.6061 1626.6338 L-439.6061 1629.6338 L-444.6061 1626.6338 Z" clip-path="url(#clipPath2)" stroke="none"/>
      <path fill="none" d="M-403.7981 1533.8771 L-403.7981 1589.037" clip-path="url(#clipPath2)"/>
      <path d="M-403.7981 1597.037 L-398.7981 1585.037 L-403.7981 1588.037 L-408.7981 1585.037 Z" clip-path="url(#clipPath2)" stroke="none"/>
      <path fill="none" d="M-410.3221 1614.6157 L-427.8628 1634.9921" clip-path="url(#clipPath2)"/>
      <path d="M-433.082 1641.0551 L-421.4638 1635.2227 L-427.2104 1634.2343 L-429.0425 1628.6986 Z" clip-path="url(#clipPath2)" stroke="none"/>
    </g>
    <g stroke-linecap="round" transform="matrix(2,0,0,2,1176,-3020)" stroke-dashoffset="2" fill="white" text-rendering="geometricPrecision" shape-rendering="geometricPrecision" stroke-dasharray="0,8" stroke="white" stroke-width="2" stroke-miterlimit="1.45">
      <path fill="none" d="M-491.5716 1607.037 L-449.6061 1607.037" clip-path="url(#clipPath2)"/>
      <path fill="none" d="M-363.7981 1607.037 L-393.7981 1607.037" clip-path="url(#clipPath2)"/>
    </g>
  </g>
</svg>
