<?xml version="1.0" encoding="UTF-8"?><svg xmlns="http://www.w3.org/2000/svg" xmlns:xlink="http://www.w3.org/1999/xlink" fill-opacity="1" color-rendering="auto" color-interpolation="auto" text-rendering="auto" stroke="black" stroke-linecap="square" width="198" stroke-miterlimit="10" shape-rendering="auto" stroke-opacity="1" fill="black" stroke-dasharray="none" font-weight="normal" stroke-width="1" height="304" font-family="'Dialog'" font-style="normal" stroke-linejoin="miter" font-size="12px" stroke-dashoffset="0" image-rendering="auto">
  <!--Generated by ySVG 2.5-->
  <defs id="genericDefs"/>
  <g>
    <defs id="defs1">
      <clipPath clipPathUnits="userSpaceOnUse" id="clipPath1">
        <path d="M0 0 L198 0 L198 304 L0 304 L0 0 Z"/>
      </clipPath>
      <clipPath clipPathUnits="userSpaceOnUse" id="clipPath2">
        <path d="M-252 1119 L-153 1119 L-153 1271 L-252 1271 L-252 1119 Z"/>
      </clipPath>
    </defs>
    <g fill="rgb(25,25,25)" text-rendering="geometricPrecision" shape-rendering="geometricPrecision" transform="scale(2,2) translate(252,-1119)" stroke="rgb(25,25,25)">
      <rect x="-252" width="99" height="152" y="1119" clip-path="url(#clipPath2)" stroke="none"/>
    </g>
    <g transform="matrix(2,0,0,2,504,-2238)" fill-opacity="0.8824" fill="rgb(25,25,25)" text-rendering="geometricPrecision" shape-rendering="geometricPrecision" stroke="rgb(25,25,25)" stroke-opacity="0.8824">
      <circle r="10" clip-path="url(#clipPath2)" cx="-202.7157" cy="1174.0156" stroke="none"/>
    </g>
    <g stroke-linecap="butt" transform="matrix(2,0,0,2,504,-2238)" fill="white" text-rendering="geometricPrecision" shape-rendering="geometricPrecision" stroke="white" stroke-miterlimit="1.45">
      <circle fill="none" r="10" clip-path="url(#clipPath2)" cx="-202.7157" cy="1174.0156"/>
    </g>
    <g transform="matrix(2,0,0,2,504,-2238)" fill-opacity="0.8824" fill="rgb(25,25,25)" text-rendering="geometricPrecision" shape-rendering="geometricPrecision" stroke="rgb(25,25,25)" stroke-opacity="0.8824">
      <path d="M-212.7157 1122.4188 L-192.7157 1122.4188 L-202.7157 1142.4188 Z" fill-rule="evenodd" clip-path="url(#clipPath2)" stroke="none"/>
    </g>
    <g stroke-linecap="butt" transform="matrix(2,0,0,2,504,-2238)" fill="white" text-rendering="geometricPrecision" shape-rendering="geometricPrecision" stroke="white" stroke-miterlimit="1.45">
      <path fill="none" d="M-212.7157 1122.4188 L-192.7157 1122.4188 L-202.7157 1142.4188 Z" fill-rule="evenodd" clip-path="url(#clipPath2)"/>
    </g>
    <g transform="matrix(2,0,0,2,504,-2238)" fill-opacity="0.8824" fill="rgb(25,25,25)" text-rendering="geometricPrecision" shape-rendering="geometricPrecision" stroke="rgb(25,25,25)" stroke-opacity="0.8824">
      <path d="M-248.5237 1122.4188 L-228.5237 1122.4188 L-238.5237 1142.4188 Z" fill-rule="evenodd" clip-path="url(#clipPath2)" stroke="none"/>
    </g>
    <g stroke-linecap="butt" transform="matrix(2,0,0,2,504,-2238)" fill="white" text-rendering="geometricPrecision" shape-rendering="geometricPrecision" stroke="white" stroke-miterlimit="1.45">
      <path fill="none" d="M-248.5237 1122.4188 L-228.5237 1122.4188 L-238.5237 1142.4188 Z" fill-rule="evenodd" clip-path="url(#clipPath2)"/>
    </g>
    <g transform="matrix(2,0,0,2,504,-2238)" fill-opacity="0.8824" fill="rgb(25,25,25)" text-rendering="geometricPrecision" shape-rendering="geometricPrecision" stroke="rgb(25,25,25)" stroke-opacity="0.8824">
      <path d="M-176.9077 1122.4188 L-156.9077 1122.4188 L-166.9077 1142.4188 Z" fill-rule="evenodd" clip-path="url(#clipPath2)" stroke="none"/>
    </g>
    <g stroke-linecap="butt" transform="matrix(2,0,0,2,504,-2238)" fill="white" text-rendering="geometricPrecision" shape-rendering="geometricPrecision" stroke="white" stroke-miterlimit="1.45">
      <path fill="none" d="M-176.9077 1122.4188 L-156.9077 1122.4188 L-166.9077 1142.4188 Z" fill-rule="evenodd" clip-path="url(#clipPath2)"/>
    </g>
    <g transform="matrix(2,0,0,2,504,-2238)" fill-opacity="0.8824" fill="rgb(25,25,25)" text-rendering="geometricPrecision" shape-rendering="geometricPrecision" stroke="rgb(25,25,25)" stroke-opacity="0.8824">
      <circle r="10" clip-path="url(#clipPath2)" cx="-202.7157" cy="1215.6124" stroke="none"/>
    </g>
    <g stroke-linecap="butt" transform="matrix(2,0,0,2,504,-2238)" fill="white" text-rendering="geometricPrecision" shape-rendering="geometricPrecision" stroke="white" stroke-miterlimit="1.45">
      <circle fill="none" r="10" clip-path="url(#clipPath2)" cx="-202.7157" cy="1215.6124"/>
    </g>
    <g transform="matrix(2,0,0,2,504,-2238)" fill-opacity="0.8824" fill="rgb(25,25,25)" text-rendering="geometricPrecision" shape-rendering="geometricPrecision" stroke="rgb(25,25,25)" stroke-opacity="0.8824">
      <circle r="10" clip-path="url(#clipPath2)" cx="-202.7157" cy="1257.2092" stroke="none"/>
    </g>
    <g stroke-linecap="butt" transform="matrix(2,0,0,2,504,-2238)" fill="white" text-rendering="geometricPrecision" shape-rendering="geometricPrecision" stroke="white" stroke-miterlimit="1.45">
      <circle fill="none" r="10" clip-path="url(#clipPath2)" cx="-202.7157" cy="1257.2092"/>
    </g>
    <g transform="matrix(2,0,0,2,504,-2238)" fill-opacity="0.8824" fill="rgb(25,25,25)" text-rendering="geometricPrecision" shape-rendering="geometricPrecision" stroke="rgb(25,25,25)" stroke-opacity="0.8824">
      <circle r="10" clip-path="url(#clipPath2)" cx="-166.9077" cy="1215.6124" stroke="none"/>
    </g>
    <g stroke-linecap="butt" transform="matrix(2,0,0,2,504,-2238)" fill="white" text-rendering="geometricPrecision" shape-rendering="geometricPrecision" stroke="white" stroke-miterlimit="1.45">
      <circle fill="none" r="10" clip-path="url(#clipPath2)" cx="-166.9077" cy="1215.6124"/>
      <path fill="none" d="M-202.7157 1142.4524 L-202.7157 1156.0156" clip-path="url(#clipPath2)"/>
      <path d="M-202.7157 1164.0156 L-197.7157 1152.0156 L-202.7157 1155.0156 L-207.7157 1152.0156 Z" clip-path="url(#clipPath2)" stroke="none"/>
      <path fill="none" d="M-202.7157 1184.0156 L-202.7157 1197.6124" clip-path="url(#clipPath2)"/>
      <path d="M-202.7157 1205.6124 L-197.7157 1193.6124 L-202.7157 1196.6124 L-207.7157 1193.6124 Z" clip-path="url(#clipPath2)" stroke="none"/>
      <path fill="none" d="M-236.4951 1138.3865 L-214.3069 1203.6588" clip-path="url(#clipPath2)"/>
      <path d="M-211.7321 1211.2332 L-210.8603 1198.2625 L-214.6287 1202.712 L-220.3282 1201.4808 Z" clip-path="url(#clipPath2)" stroke="none"/>
      <path fill="none" d="M-168.9429 1138.3739 L-191.1991 1203.4967" clip-path="url(#clipPath2)"/>
      <path d="M-193.7863 1211.0668 L-185.1742 1201.3286 L-190.8757 1202.5504 L-194.6369 1198.0946 Z" clip-path="url(#clipPath2)" stroke="none"/>
      <path fill="none" d="M-202.7157 1225.6124 L-202.7157 1239.2091" clip-path="url(#clipPath2)"/>
      <path d="M-202.7157 1247.2091 L-197.7157 1235.2091 L-202.7157 1238.2091 L-207.7157 1235.2091 Z" clip-path="url(#clipPath2)" stroke="none"/>
      <path fill="none" d="M-166.9077 1142.4524 L-166.9077 1197.6124" clip-path="url(#clipPath2)"/>
      <path d="M-166.9077 1205.6124 L-161.9077 1193.6124 L-166.9077 1196.6124 L-171.9077 1193.6124 Z" clip-path="url(#clipPath2)" stroke="none"/>
      <path fill="none" d="M-173.4317 1223.191 L-190.9724 1243.5675" clip-path="url(#clipPath2)"/>
      <path d="M-196.1917 1249.6305 L-184.5735 1243.798 L-190.32 1242.8097 L-192.1522 1237.274 Z" clip-path="url(#clipPath2)" stroke="none"/>
    </g>
  </g>
</svg>
