<?xml version="1.0" encoding="UTF-8"?><svg xmlns="http://www.w3.org/2000/svg" xmlns:xlink="http://www.w3.org/1999/xlink" fill-opacity="1" color-rendering="auto" color-interpolation="auto" text-rendering="auto" stroke="black" stroke-linecap="square" width="314" stroke-miterlimit="10" shape-rendering="auto" stroke-opacity="1" fill="black" stroke-dasharray="none" font-weight="normal" stroke-width="1" height="454" font-family="'Dialog'" font-style="normal" stroke-linejoin="miter" font-size="12px" stroke-dashoffset="0" image-rendering="auto">
  <!--Generated by ySVG 2.5-->
  <defs id="genericDefs"/>
  <g>
    <defs id="defs1">
      <clipPath clipPathUnits="userSpaceOnUse" id="clipPath1">
        <path d="M0 0 L314 0 L314 454 L0 454 L0 0 Z"/>
      </clipPath>
      <clipPath clipPathUnits="userSpaceOnUse" id="clipPath2">
        <path d="M222 1445 L379 1445 L379 1672 L222 1672 L222 1445 Z"/>
      </clipPath>
    </defs>
    <g fill="rgb(25,25,25)" text-rendering="geometricPrecision" shape-rendering="geometricPrecision" transform="scale(2,2) translate(-222,-1445)" stroke="rgb(25,25,25)">
      <rect x="222" width="157" height="227" y="1445" clip-path="url(#clipPath2)" stroke="none"/>
    </g>
    <g stroke-linecap="butt" font-size="14px" transform="matrix(2,0,0,2,-444,-2890)" fill="white" text-rendering="geometricPrecision" font-family="'Libertinus Serif'" shape-rendering="geometricPrecision" stroke="white" stroke-miterlimit="1.45">
      <text x="295.6156" xml:space="preserve" y="1658.2119" clip-path="url(#clipPath2)" stroke="none">∅</text>
    </g>
    <g transform="matrix(2,0,0,2,-444,-2890)" fill-opacity="0.8824" fill="rgb(25,25,25)" text-rendering="geometricPrecision" shape-rendering="geometricPrecision" stroke="rgb(25,25,25)" stroke-opacity="0.8824">
      <rect x="225.1096" width="30" height="30" y="1575.3246" clip-path="url(#clipPath2)" stroke="none"/>
    </g>
    <g stroke-linecap="butt" transform="matrix(2,0,0,2,-444,-2890)" fill="white" text-rendering="geometricPrecision" shape-rendering="geometricPrecision" stroke="white" stroke-miterlimit="1.45">
      <rect fill="none" x="225.1096" width="30" height="30" y="1575.3246" clip-path="url(#clipPath2)"/>
      <text x="235.2446" font-size="14px" y="1594.8606" clip-path="url(#clipPath2)" font-family="'Libertinus Serif'" stroke="none" xml:space="preserve">A</text>
    </g>
    <g transform="matrix(2,0,0,2,-444,-2890)" fill-opacity="0.8824" fill="rgb(25,25,25)" text-rendering="geometricPrecision" shape-rendering="geometricPrecision" stroke="rgb(25,25,25)" stroke-opacity="0.8824">
      <circle r="15" clip-path="url(#clipPath2)" cx="300.1096" cy="1590.3246" stroke="none"/>
    </g>
    <g stroke-linecap="butt" transform="matrix(2,0,0,2,-444,-2890)" fill="white" text-rendering="geometricPrecision" shape-rendering="geometricPrecision" stroke="white" stroke-miterlimit="1.45">
      <circle fill="none" r="15" clip-path="url(#clipPath2)" cx="300.1096" cy="1590.3246"/>
      <text x="295.9937" font-size="14px" y="1594.8606" clip-path="url(#clipPath2)" font-family="'Libertinus Serif'" stroke="none" xml:space="preserve">B</text>
    </g>
    <g fill="purple" text-rendering="geometricPrecision" shape-rendering="geometricPrecision" transform="matrix(2,0,0,2,-444,-2890)" stroke="purple">
      <path d="M345.1096 1584.1115 L353.8964 1575.3246 L366.3228 1575.3246 L375.1096 1584.1115 L375.1096 1596.5378 L366.3228 1605.3246 L353.8964 1605.3246 L345.1096 1596.5378 Z" fill-rule="evenodd" clip-path="url(#clipPath2)" stroke="none"/>
    </g>
    <g stroke-linecap="butt" font-size="14px" transform="matrix(2,0,0,2,-444,-2890)" fill="white" text-rendering="geometricPrecision" font-family="'Libertinus Serif'" shape-rendering="geometricPrecision" stroke="white" stroke-miterlimit="1.45">
      <text x="355.5876" xml:space="preserve" y="1594.8606" clip-path="url(#clipPath2)" stroke="none">C</text>
    </g>
    <g fill="purple" text-rendering="geometricPrecision" shape-rendering="geometricPrecision" transform="matrix(2,0,0,2,-444,-2890)" stroke="purple">
      <circle r="15" clip-path="url(#clipPath2)" cx="360.1096" cy="1526.9733" stroke="none"/>
    </g>
    <g stroke-linecap="butt" transform="matrix(2,0,0,2,-444,-2890)" fill="white" text-rendering="geometricPrecision" shape-rendering="geometricPrecision" stroke="white" stroke-miterlimit="1.45">
      <circle fill="none" r="15" clip-path="url(#clipPath2)" cx="360.1096" cy="1526.9733"/>
      <text x="351.4716" font-size="14px" y="1531.5093" clip-path="url(#clipPath2)" font-family="'Libertinus Serif'" stroke="none" xml:space="preserve">BC</text>
    </g>
    <g fill="purple" text-rendering="geometricPrecision" shape-rendering="geometricPrecision" transform="matrix(2,0,0,2,-444,-2890)" stroke="purple">
      <rect x="285.1096" y="1448.6219" clip-path="url(#clipPath2)" width="30" rx="4" ry="4" height="30" stroke="none"/>
    </g>
    <g stroke-linecap="butt" transform="matrix(2,0,0,2,-444,-2890)" fill="white" text-rendering="geometricPrecision" shape-rendering="geometricPrecision" stroke="white" stroke-miterlimit="1.45">
      <rect x="285.1096" y="1448.6219" clip-path="url(#clipPath2)" fill="none" width="30" rx="4" ry="4" height="30"/>
      <text x="286.6067" font-size="14px" y="1468.1578" clip-path="url(#clipPath2)" font-family="'Libertinus Serif'" stroke="none" xml:space="preserve">ABC</text>
      <rect x="225.1096" y="1511.9733" clip-path="url(#clipPath2)" fill="none" width="30" rx="4" ry="4" height="30"/>
      <text x="231.1287" font-size="14px" y="1531.5093" clip-path="url(#clipPath2)" font-family="'Libertinus Serif'" stroke="none" xml:space="preserve">AB</text>
    </g>
    <g fill="purple" text-rendering="geometricPrecision" shape-rendering="geometricPrecision" transform="matrix(2,0,0,2,-444,-2890)" stroke="purple">
      <rect x="285.1096" width="30" height="30" y="1511.9733" clip-path="url(#clipPath2)" stroke="none"/>
    </g>
    <g stroke-linecap="butt" transform="matrix(2,0,0,2,-444,-2890)" fill="white" text-rendering="geometricPrecision" shape-rendering="geometricPrecision" stroke="white" stroke-miterlimit="1.45">
      <rect fill="none" x="285.1096" width="30" height="30" y="1511.9733" clip-path="url(#clipPath2)"/>
      <text x="290.7227" font-size="14px" y="1531.5093" clip-path="url(#clipPath2)" font-family="'Libertinus Serif'" stroke="none" xml:space="preserve">AC</text>
      <path fill="none" stroke-dasharray="6,2" d="M289.795 1642.7852 L259.8172 1611.1331" clip-path="url(#clipPath2)"/>
      <path stroke-dasharray="6,2" d="M254.3161 1605.3246 L258.9375 1617.4755 L260.5049 1611.8591 L266.1981 1610.599 Z" clip-path="url(#clipPath2)" stroke="none"/>
      <path fill="none" stroke-dasharray="6,2" d="M300.1096 1638.676 L300.1096 1613.3246" clip-path="url(#clipPath2)"/>
      <path stroke-dasharray="6,2" d="M300.1096 1605.3246 L295.1096 1617.3246 L300.1096 1614.3246 L305.1096 1617.3246 Z" clip-path="url(#clipPath2)" stroke="none"/>
      <path fill="none" stroke-dasharray="6,2" d="M310.4243 1642.7852 L344.2978 1607.0197" clip-path="url(#clipPath2)"/>
      <path stroke-dasharray="6,2" d="M349.7989 1601.2112 L337.917 1606.4856 L343.6102 1607.7457 L345.1775 1613.3621 Z" clip-path="url(#clipPath2)" stroke="none"/>
      <path fill="none" stroke-dasharray="6,2" d="M310.4243 1579.4338 L344.2939 1543.6724" clip-path="url(#clipPath2)"/>
      <path stroke-dasharray="6,2" d="M349.795 1537.864 L337.9131 1543.1383 L343.6062 1544.3984 L345.1735 1550.0148 Z" clip-path="url(#clipPath2)" stroke="none"/>
      <path fill="none" stroke-dasharray="6,2" d="M360.1096 1575.322 L360.1096 1549.9733" clip-path="url(#clipPath2)"/>
      <path stroke-dasharray="6,2" d="M360.1096 1541.9733 L355.1096 1553.9733 L360.1096 1550.9733 L365.1096 1553.9733 Z" clip-path="url(#clipPath2)" stroke="none"/>
      <path fill="none" stroke-dasharray="6,2" d="M349.795 1516.0825 L319.0268 1483.5957" clip-path="url(#clipPath2)"/>
      <path stroke-dasharray="6,2" d="M313.5257 1477.7872 L318.147 1489.9381 L319.7144 1484.3218 L325.4076 1483.0616 Z" clip-path="url(#clipPath2)" stroke="none"/>
      <path fill="none" stroke-dasharray="6,2" d="M240.1096 1575.3246 L240.1096 1549.9414" clip-path="url(#clipPath2)"/>
      <path stroke-dasharray="6,2" d="M240.1096 1541.9414 L235.1096 1553.9414 L240.1096 1550.9414 L245.1096 1553.9414 Z" clip-path="url(#clipPath2)" stroke="none"/>
      <path fill="none" stroke-dasharray="6,2" d="M289.795 1579.4338 L259.0268 1546.947" clip-path="url(#clipPath2)"/>
      <path stroke-dasharray="6,2" d="M253.5256 1541.1387 L258.1471 1553.2894 L259.7144 1547.6731 L265.4076 1546.4131 Z" clip-path="url(#clipPath2)" stroke="none"/>
      <path fill="none" stroke-dasharray="6,2" d="M253.5569 1512.7749 L281.1746 1483.6146" clip-path="url(#clipPath2)"/>
      <path stroke-dasharray="6,2" d="M286.6757 1477.8062 L274.7937 1483.0806 L280.4869 1484.3407 L282.0543 1489.957 Z" clip-path="url(#clipPath2)" stroke="none"/>
      <path fill="none" stroke-dasharray="6,2" d="M254.3161 1575.3246 L280.402 1547.7816" clip-path="url(#clipPath2)"/>
      <path stroke-dasharray="6,2" d="M285.9032 1541.9733 L274.0212 1547.2476 L279.7144 1548.5077 L281.2817 1554.124 Z" clip-path="url(#clipPath2)" stroke="none"/>
      <path fill="none" stroke-dasharray="6,2" d="M349.7678 1579.4052 L319.8172 1547.7816" clip-path="url(#clipPath2)"/>
      <path stroke-dasharray="6,2" d="M314.3161 1541.9733 L318.9376 1554.124 L320.5049 1548.5077 L326.198 1547.2476 Z" clip-path="url(#clipPath2)" stroke="none"/>
      <path fill="none" stroke-dasharray="6,2" d="M300.1096 1511.9733 L300.1096 1486.5901" clip-path="url(#clipPath2)"/>
      <path stroke-dasharray="6,2" d="M300.1096 1478.5901 L295.1096 1490.5901 L300.1096 1487.5901 L305.1096 1490.5901 Z" clip-path="url(#clipPath2)" stroke="none"/>
    </g>
  </g>
</svg>
