<?xml version="1.0" encoding="UTF-8"?><svg xmlns="http://www.w3.org/2000/svg" xmlns:xlink="http://www.w3.org/1999/xlink" fill-opacity="1" color-rendering="auto" color-interpolation="auto" text-rendering="auto" stroke="black" stroke-linecap="square" width="922" stroke-miterlimit="10" shape-rendering="auto" stroke-opacity="1" fill="black" stroke-dasharray="none" font-weight="normal" stroke-width="1" height="452" font-family="'Dialog'" font-style="normal" stroke-linejoin="miter" font-size="12px" stroke-dashoffset="0" image-rendering="auto">
  <!--Generated by ySVG 2.5-->
  <defs id="genericDefs"/>
  <g>
    <defs id="defs1">
      <clipPath clipPathUnits="userSpaceOnUse" id="clipPath1">
        <path d="M0 0 L922 0 L922 452 L0 452 L0 0 Z"/>
      </clipPath>
      <clipPath clipPathUnits="userSpaceOnUse" id="clipPath2">
        <path d="M-1333 1247 L-872 1247 L-872 1473 L-1333 1473 L-1333 1247 Z"/>
      </clipPath>
    </defs>
    <g fill="rgb(25,25,25)" text-rendering="geometricPrecision" shape-rendering="geometricPrecision" transform="scale(2,2) translate(1333,-1247)" stroke="rgb(25,25,25)">
      <rect x="-1333" width="461" height="226" y="1247" clip-path="url(#clipPath2)" stroke="none"/>
    </g>
    <g transform="matrix(2,0,0,2,2666,-2494)" fill-opacity="0.8824" fill="rgb(25,25,25)" text-rendering="geometricPrecision" shape-rendering="geometricPrecision" stroke="rgb(25,25,25)" stroke-opacity="0.8824">
      <circle r="10" clip-path="url(#clipPath2)" cx="-1180.4984" cy="1302.383" stroke="none"/>
    </g>
    <g stroke-linecap="butt" transform="matrix(2,0,0,2,2666,-2494)" fill="lime" text-rendering="geometricPrecision" shape-rendering="geometricPrecision" stroke="lime" stroke-miterlimit="1.45">
      <circle fill="none" r="10" clip-path="url(#clipPath2)" cx="-1180.4984" cy="1302.383"/>
    </g>
    <g transform="matrix(2,0,0,2,2666,-2494)" fill-opacity="0.8824" fill="rgb(25,25,25)" text-rendering="geometricPrecision" shape-rendering="geometricPrecision" stroke="rgb(25,25,25)" stroke-opacity="0.8824">
      <path d="M-1190.4984 1250.7863 L-1170.4984 1250.7863 L-1180.4984 1270.7863 Z" fill-rule="evenodd" clip-path="url(#clipPath2)" stroke="none"/>
    </g>
    <g stroke-linecap="butt" transform="matrix(2,0,0,2,2666,-2494)" fill="lime" text-rendering="geometricPrecision" shape-rendering="geometricPrecision" stroke="lime" stroke-miterlimit="1.45">
      <path fill="none" d="M-1190.4984 1250.7863 L-1170.4984 1250.7863 L-1180.4984 1270.7863 Z" fill-rule="evenodd" clip-path="url(#clipPath2)"/>
    </g>
    <g transform="matrix(2,0,0,2,2666,-2494)" fill-opacity="0.8824" fill="rgb(25,25,25)" text-rendering="geometricPrecision" shape-rendering="geometricPrecision" stroke="rgb(25,25,25)" stroke-opacity="0.8824">
      <path d="M-1226.3064 1250.7863 L-1206.3064 1250.7863 L-1216.3064 1270.7863 Z" fill-rule="evenodd" clip-path="url(#clipPath2)" stroke="none"/>
    </g>
    <g stroke-linecap="butt" transform="matrix(2,0,0,2,2666,-2494)" fill="white" text-rendering="geometricPrecision" shape-rendering="geometricPrecision" stroke="white" stroke-miterlimit="1.45">
      <path fill="none" d="M-1226.3064 1250.7863 L-1206.3064 1250.7863 L-1216.3064 1270.7863 Z" fill-rule="evenodd" clip-path="url(#clipPath2)"/>
    </g>
    <g transform="matrix(2,0,0,2,2666,-2494)" fill-opacity="0.8824" fill="rgb(25,25,25)" text-rendering="geometricPrecision" shape-rendering="geometricPrecision" stroke="rgb(25,25,25)" stroke-opacity="0.8824">
      <path d="M-1154.6903 1250.7863 L-1134.6903 1250.7863 L-1144.6903 1270.7863 Z" fill-rule="evenodd" clip-path="url(#clipPath2)" stroke="none"/>
    </g>
    <g stroke-linecap="butt" transform="matrix(2,0,0,2,2666,-2494)" fill="lime" text-rendering="geometricPrecision" shape-rendering="geometricPrecision" stroke="lime" stroke-miterlimit="1.45">
      <path fill="none" d="M-1154.6903 1250.7863 L-1134.6903 1250.7863 L-1144.6903 1270.7863 Z" fill-rule="evenodd" clip-path="url(#clipPath2)"/>
    </g>
    <g transform="matrix(2,0,0,2,2666,-2494)" fill-opacity="0.8824" fill="rgb(25,25,25)" text-rendering="geometricPrecision" shape-rendering="geometricPrecision" stroke="rgb(25,25,25)" stroke-opacity="0.8824">
      <circle r="10" clip-path="url(#clipPath2)" cx="-1180.4984" cy="1385.5766" stroke="none"/>
    </g>
    <g stroke-linecap="butt" transform="matrix(2,0,0,2,2666,-2494)" fill="lime" text-rendering="geometricPrecision" shape-rendering="geometricPrecision" stroke="lime" stroke-miterlimit="1.45">
      <circle fill="none" r="10" clip-path="url(#clipPath2)" cx="-1180.4984" cy="1385.5766"/>
    </g>
    <g transform="matrix(2,0,0,2,2666,-2494)" fill-opacity="0.8824" fill="rgb(25,25,25)" text-rendering="geometricPrecision" shape-rendering="geometricPrecision" stroke="rgb(25,25,25)" stroke-opacity="0.8824">
      <circle r="10" clip-path="url(#clipPath2)" cx="-1144.6904" cy="1343.9798" stroke="none"/>
    </g>
    <g stroke-linecap="butt" transform="matrix(2,0,0,2,2666,-2494)" fill="lime" text-rendering="geometricPrecision" shape-rendering="geometricPrecision" stroke="lime" stroke-miterlimit="1.45">
      <circle fill="none" r="10" clip-path="url(#clipPath2)" cx="-1144.6904" cy="1343.9798"/>
    </g>
    <g transform="matrix(2,0,0,2,2666,-2494)" fill-opacity="0.8824" fill="rgb(25,25,25)" text-rendering="geometricPrecision" shape-rendering="geometricPrecision" stroke="rgb(25,25,25)" stroke-opacity="0.8824">
      <circle r="10" clip-path="url(#clipPath2)" cx="-921.5578" cy="1302.383" stroke="none"/>
    </g>
    <g stroke-linecap="butt" transform="matrix(2,0,0,2,2666,-2494)" fill="white" text-rendering="geometricPrecision" shape-rendering="geometricPrecision" stroke="white" stroke-miterlimit="1.45">
      <circle fill="none" r="10" clip-path="url(#clipPath2)" cx="-921.5578" cy="1302.383"/>
    </g>
    <g transform="matrix(2,0,0,2,2666,-2494)" fill-opacity="0.8824" fill="rgb(25,25,25)" text-rendering="geometricPrecision" shape-rendering="geometricPrecision" stroke="rgb(25,25,25)" stroke-opacity="0.8824">
      <path d="M-931.5578 1250.7863 L-911.5578 1250.7863 L-921.5578 1270.7863 Z" fill-rule="evenodd" clip-path="url(#clipPath2)" stroke="none"/>
    </g>
    <g stroke-linecap="butt" transform="matrix(2,0,0,2,2666,-2494)" fill="white" text-rendering="geometricPrecision" shape-rendering="geometricPrecision" stroke="white" stroke-miterlimit="1.45">
      <path fill="none" d="M-931.5578 1250.7863 L-911.5578 1250.7863 L-921.5578 1270.7863 Z" fill-rule="evenodd" clip-path="url(#clipPath2)"/>
    </g>
    <g transform="matrix(2,0,0,2,2666,-2494)" fill-opacity="0.8824" fill="rgb(25,25,25)" text-rendering="geometricPrecision" shape-rendering="geometricPrecision" stroke="rgb(25,25,25)" stroke-opacity="0.8824">
      <path d="M-967.3658 1250.7863 L-947.3658 1250.7863 L-957.3658 1270.7863 Z" fill-rule="evenodd" clip-path="url(#clipPath2)" stroke="none"/>
    </g>
    <g stroke-linecap="butt" transform="matrix(2,0,0,2,2666,-2494)" fill="red" text-rendering="geometricPrecision" shape-rendering="geometricPrecision" stroke="red" stroke-miterlimit="1.45">
      <path fill="none" d="M-967.3658 1250.7863 L-947.3658 1250.7863 L-957.3658 1270.7863 Z" fill-rule="evenodd" clip-path="url(#clipPath2)"/>
    </g>
    <g transform="matrix(2,0,0,2,2666,-2494)" fill-opacity="0.8824" fill="rgb(25,25,25)" text-rendering="geometricPrecision" shape-rendering="geometricPrecision" stroke="rgb(25,25,25)" stroke-opacity="0.8824">
      <path d="M-895.7498 1250.7863 L-875.7498 1250.7863 L-885.7498 1270.7863 Z" fill-rule="evenodd" clip-path="url(#clipPath2)" stroke="none"/>
    </g>
    <g stroke-linecap="butt" transform="matrix(2,0,0,2,2666,-2494)" fill="white" text-rendering="geometricPrecision" shape-rendering="geometricPrecision" stroke="white" stroke-miterlimit="1.45">
      <path fill="none" d="M-895.7498 1250.7863 L-875.7498 1250.7863 L-885.7498 1270.7863 Z" fill-rule="evenodd" clip-path="url(#clipPath2)"/>
    </g>
    <g transform="matrix(2,0,0,2,2666,-2494)" fill-opacity="0.8824" fill="rgb(25,25,25)" text-rendering="geometricPrecision" shape-rendering="geometricPrecision" stroke="rgb(25,25,25)" stroke-opacity="0.8824">
      <circle r="10" clip-path="url(#clipPath2)" cx="-921.5578" cy="1343.9798" stroke="none"/>
    </g>
    <g stroke-linecap="butt" transform="matrix(2,0,0,2,2666,-2494)" fill="red" text-rendering="geometricPrecision" shape-rendering="geometricPrecision" stroke="red" stroke-miterlimit="1.45">
      <circle fill="none" r="10" clip-path="url(#clipPath2)" cx="-921.5578" cy="1343.9798"/>
    </g>
    <g transform="matrix(2,0,0,2,2666,-2494)" fill-opacity="0.8824" fill="rgb(25,25,25)" text-rendering="geometricPrecision" shape-rendering="geometricPrecision" stroke="rgb(25,25,25)" stroke-opacity="0.8824">
      <circle r="10" clip-path="url(#clipPath2)" cx="-921.5578" cy="1385.5766" stroke="none"/>
    </g>
    <g stroke-linecap="butt" transform="matrix(2,0,0,2,2666,-2494)" fill="red" text-rendering="geometricPrecision" shape-rendering="geometricPrecision" stroke="red" stroke-miterlimit="1.45">
      <circle fill="none" r="10" clip-path="url(#clipPath2)" cx="-921.5578" cy="1385.5766"/>
    </g>
    <g transform="matrix(2,0,0,2,2666,-2494)" fill-opacity="0.8824" fill="rgb(25,25,25)" text-rendering="geometricPrecision" shape-rendering="geometricPrecision" stroke="rgb(25,25,25)" stroke-opacity="0.8824">
      <circle r="10" clip-path="url(#clipPath2)" cx="-885.7498" cy="1343.9798" stroke="none"/>
    </g>
    <g stroke-linecap="butt" transform="matrix(2,0,0,2,2666,-2494)" fill="white" text-rendering="geometricPrecision" shape-rendering="geometricPrecision" stroke="white" stroke-miterlimit="1.45">
      <circle fill="none" r="10" clip-path="url(#clipPath2)" cx="-885.7498" cy="1343.9798"/>
    </g>
    <g transform="matrix(2,0,0,2,2666,-2494)" fill-opacity="0.8824" fill="rgb(25,25,25)" text-rendering="geometricPrecision" shape-rendering="geometricPrecision" stroke="rgb(25,25,25)" stroke-opacity="0.8824">
      <circle r="10" clip-path="url(#clipPath2)" cx="-1180.4984" cy="1343.9798" stroke="none"/>
    </g>
    <g stroke-linecap="butt" transform="matrix(2,0,0,2,2666,-2494)" fill="lime" text-rendering="geometricPrecision" shape-rendering="geometricPrecision" stroke="lime" stroke-miterlimit="1.45">
      <circle fill="none" r="10" clip-path="url(#clipPath2)" cx="-1180.4984" cy="1343.9798"/>
    </g>
    <g transform="matrix(2,0,0,2,2666,-2494)" fill-opacity="0.8824" fill="rgb(25,25,25)" text-rendering="geometricPrecision" shape-rendering="geometricPrecision" stroke="rgb(25,25,25)" stroke-opacity="0.8824">
      <circle r="10" clip-path="url(#clipPath2)" cx="-1062.5777" cy="1459.0494" stroke="none"/>
    </g>
    <g stroke-linecap="butt" transform="matrix(2,0,0,2,2666,-2494)" fill="aqua" text-rendering="geometricPrecision" shape-rendering="geometricPrecision" stroke="aqua" stroke-miterlimit="1.45">
      <circle fill="none" r="10" clip-path="url(#clipPath2)" cx="-1062.5777" cy="1459.0494"/>
    </g>
    <g transform="matrix(2,0,0,2,2666,-2494)" fill-opacity="0.8824" fill="rgb(25,25,25)" text-rendering="geometricPrecision" shape-rendering="geometricPrecision" stroke="rgb(25,25,25)" stroke-opacity="0.8824">
      <circle r="10" clip-path="url(#clipPath2)" cx="-1026.7697" cy="1417.4527" stroke="none"/>
    </g>
    <g stroke-linecap="butt" transform="matrix(2,0,0,2,2666,-2494)" fill="aqua" text-rendering="geometricPrecision" shape-rendering="geometricPrecision" stroke="aqua" stroke-miterlimit="1.45">
      <circle fill="none" r="10" clip-path="url(#clipPath2)" cx="-1026.7697" cy="1417.4527"/>
    </g>
    <g transform="matrix(2,0,0,2,2666,-2494)" fill-opacity="0.8824" fill="rgb(25,25,25)" text-rendering="geometricPrecision" shape-rendering="geometricPrecision" stroke="rgb(25,25,25)" stroke-opacity="0.8824">
      <circle r="10" clip-path="url(#clipPath2)" cx="-1062.5777" cy="1417.4527" stroke="none"/>
    </g>
    <g stroke-linecap="butt" transform="matrix(2,0,0,2,2666,-2494)" fill="aqua" text-rendering="geometricPrecision" shape-rendering="geometricPrecision" stroke="aqua" stroke-miterlimit="1.45">
      <circle fill="none" r="10" clip-path="url(#clipPath2)" cx="-1062.5777" cy="1417.4527"/>
    </g>
    <g stroke-linecap="butt" font-size="14px" transform="matrix(2,0,0,2,2666,-2494)" fill="white" text-rendering="geometricPrecision" font-family="'Libertinus Serif'" shape-rendering="geometricPrecision" stroke="white" stroke-miterlimit="1.45">
      <text x="-1323.9602" xml:space="preserve" y="1350.5637" clip-path="url(#clipPath2)" stroke="none">ReplicatedList</text>
      <text x="-1323.9602" xml:space="preserve" y="1390.1125" clip-path="url(#clipPath2)" stroke="none">LastWriterWins</text>
    </g>
    <g stroke-linecap="butt" transform="matrix(2,0,0,2,2666,-2494)" fill="lime" text-rendering="geometricPrecision" shape-rendering="geometricPrecision" stroke="lime" stroke-miterlimit="1.45">
      <path fill="none" d="M-1180.4984 1270.8198 L-1180.4984 1284.3829" clip-path="url(#clipPath2)"/>
      <path d="M-1180.4984 1292.3829 L-1175.4984 1280.3829 L-1180.4984 1283.3829 L-1185.4984 1280.3829 Z" clip-path="url(#clipPath2)" stroke="none"/>
      <path fill="none" d="M-1144.6903 1270.8198 L-1144.6903 1325.9797" clip-path="url(#clipPath2)"/>
      <path d="M-1144.6903 1333.9797 L-1139.6903 1321.9797 L-1144.6903 1324.9797 L-1149.6903 1321.9797 Z" clip-path="url(#clipPath2)" stroke="none"/>
      <path fill="none" d="M-1151.2144 1351.5585 L-1168.7551 1371.9348" clip-path="url(#clipPath2)"/>
      <path d="M-1173.9744 1377.9978 L-1162.3562 1372.1654 L-1168.1028 1371.177 L-1169.9349 1365.6414 Z" clip-path="url(#clipPath2)" stroke="none"/>
      <path fill="none" d="M-921.5578 1270.8198 L-921.5578 1284.3829" clip-path="url(#clipPath2)" stroke="white"/>
      <path fill="white" d="M-921.5578 1292.3829 L-916.5578 1280.3829 L-921.5578 1283.3829 L-926.5578 1280.3829 Z" clip-path="url(#clipPath2)" stroke="none"/>
      <path fill="none" d="M-921.5578 1312.3829 L-921.5578 1325.9797" clip-path="url(#clipPath2)" stroke="white"/>
      <path fill="white" d="M-921.5578 1333.9797 L-916.5578 1321.9797 L-921.5578 1324.9797 L-926.5578 1321.9797 Z" clip-path="url(#clipPath2)" stroke="none"/>
      <path fill="none" d="M-955.3372 1266.7538 L-933.149 1332.0261" clip-path="url(#clipPath2)" stroke="red"/>
      <path fill="red" d="M-930.5742 1339.6005 L-929.7024 1326.6298 L-933.4708 1331.0793 L-939.1703 1329.8481 Z" clip-path="url(#clipPath2)" stroke="none"/>
      <path fill="none" d="M-887.785 1266.7412 L-910.0412 1331.864" clip-path="url(#clipPath2)" stroke="red"/>
      <path fill="red" d="M-912.6284 1339.4341 L-904.0164 1329.6958 L-909.7178 1330.9177 L-913.479 1326.4619 Z" clip-path="url(#clipPath2)" stroke="none"/>
      <path fill="none" d="M-921.5578 1353.9797 L-921.5578 1367.5765" clip-path="url(#clipPath2)" stroke="red"/>
      <path fill="red" d="M-921.5578 1375.5765 L-916.5578 1363.5765 L-921.5578 1366.5765 L-926.5578 1363.5765 Z" clip-path="url(#clipPath2)" stroke="none"/>
      <path fill="none" d="M-885.7498 1270.8198 L-885.7498 1325.9797" clip-path="url(#clipPath2)" stroke="white"/>
      <path fill="white" d="M-885.7498 1333.9797 L-880.7498 1321.9797 L-885.7498 1324.9797 L-890.7498 1321.9797 Z" clip-path="url(#clipPath2)" stroke="none"/>
      <path fill="none" d="M-892.2738 1351.5585 L-909.8145 1371.9348" clip-path="url(#clipPath2)" stroke="red"/>
      <path fill="red" d="M-915.0338 1377.9978 L-903.4155 1372.1654 L-909.1621 1371.177 L-910.9943 1365.6414 Z" clip-path="url(#clipPath2)" stroke="none"/>
      <path fill="none" d="M-1180.4984 1312.3829 L-1180.4984 1325.9797" clip-path="url(#clipPath2)"/>
      <path d="M-1180.4984 1333.9797 L-1175.4984 1321.9797 L-1180.4984 1324.9797 L-1185.4984 1321.9797 Z" clip-path="url(#clipPath2)" stroke="none"/>
      <path fill="none" d="M-1214.2777 1266.7538 L-1192.0896 1332.0261" clip-path="url(#clipPath2)" stroke="white"/>
      <path fill="white" d="M-1189.5148 1339.6005 L-1188.6431 1326.6298 L-1192.4115 1331.0793 L-1198.111 1329.8483 Z" clip-path="url(#clipPath2)" stroke="none"/>
      <path fill="none" d="M-1146.7256 1266.7412 L-1168.9818 1331.864" clip-path="url(#clipPath2)"/>
      <path d="M-1171.569 1339.4341 L-1162.9569 1329.6958 L-1168.6584 1330.9177 L-1172.4196 1326.4619 Z" clip-path="url(#clipPath2)" stroke="none"/>
      <path fill="none" d="M-1180.4984 1353.9797 L-1180.4984 1367.5765" clip-path="url(#clipPath2)"/>
      <path d="M-1180.4984 1375.5765 L-1175.4984 1363.5765 L-1180.4984 1366.5765 L-1185.4984 1363.5765 Z" clip-path="url(#clipPath2)" stroke="none"/>
      <path fill="none" stroke-dasharray="6,2" d="M-1134.6903 1343.9797 L-1026.7698 1343.9797 L-1026.7698 1407.4526" clip-path="url(#clipPath2)" stroke="white"/>
      <path fill="none" d="M-1033.2937 1425.0314 L-1050.8345 1445.4077" clip-path="url(#clipPath2)" stroke="aqua"/>
      <path fill="aqua" d="M-1056.0537 1451.4707 L-1044.4355 1445.6383 L-1050.1821 1444.6499 L-1052.0143 1439.1143 Z" clip-path="url(#clipPath2)" stroke="none"/>
      <path fill="none" stroke-dasharray="6,2" d="M-929.4749 1350.0887 L-987.5248 1394.8817 L-1062.5778 1394.8817 L-1062.5778 1407.4526" clip-path="url(#clipPath2)" stroke="white"/>
    </g>
    <g stroke-linecap="butt" font-size="14px" transform="matrix(2,0,0,2,2666,-2494)" fill="white" text-rendering="geometricPrecision" font-family="'Libertinus Serif'" shape-rendering="geometricPrecision" stroke="white" stroke-miterlimit="1.45">
      <text x="-1080.4696" xml:space="preserve" y="1385.2727" clip-path="url(#clipPath2)" stroke="none">merge</text>
      <path fill="none" stroke-dasharray="6,2" d="M-1172.5259 1350.0164 L-1113.272 1394.8817 L-1062.5778 1394.8817 L-1062.5778 1407.4526" clip-path="url(#clipPath2)"/>
    </g>
    <g stroke-linecap="butt" transform="matrix(2,0,0,2,2666,-2494)" fill="aqua" text-rendering="geometricPrecision" shape-rendering="geometricPrecision" stroke="aqua" stroke-miterlimit="1.45">
      <path fill="none" d="M-1062.5778 1427.4526 L-1062.5778 1441.0494" clip-path="url(#clipPath2)"/>
      <path d="M-1062.5778 1449.0494 L-1057.5778 1437.0494 L-1062.5778 1440.0494 L-1067.5778 1437.0494 Z" clip-path="url(#clipPath2)" stroke="none"/>
    </g>
    <g stroke-linecap="round" transform="matrix(2,0,0,2,2666,-2494)" stroke-dashoffset="2" fill="white" text-rendering="geometricPrecision" shape-rendering="geometricPrecision" stroke-dasharray="0,8" stroke="white" stroke-width="2" stroke-miterlimit="1.45">
      <path fill="none" d="M-1244.67 1346.0277 L-1190.4933 1344.2987" clip-path="url(#clipPath2)"/>
      <path fill="none" d="M-1230.8849 1385.5765 L-1168.1887 1358.9762 L-1153.12 1349.3595" clip-path="url(#clipPath2)"/>
    </g>
  </g>
</svg>
