<?xml version="1.0" encoding="UTF-8"?><svg xmlns="http://www.w3.org/2000/svg" xmlns:xlink="http://www.w3.org/1999/xlink" fill-opacity="1" color-rendering="auto" color-interpolation="auto" text-rendering="auto" stroke="black" stroke-linecap="square" width="922" stroke-miterlimit="10" shape-rendering="auto" stroke-opacity="1" fill="black" stroke-dasharray="none" font-weight="normal" stroke-width="1" height="450" font-family="'Dialog'" font-style="normal" stroke-linejoin="miter" font-size="12px" stroke-dashoffset="0" image-rendering="auto">
  <!--Generated by ySVG 2.5-->
  <defs id="genericDefs"/>
  <g>
    <defs id="defs1">
      <clipPath clipPathUnits="userSpaceOnUse" id="clipPath1">
        <path d="M0 0 L922 0 L922 450 L0 450 L0 0 Z"/>
      </clipPath>
      <clipPath clipPathUnits="userSpaceOnUse" id="clipPath2">
        <path d="M-1641 1574 L-1180 1574 L-1180 1799 L-1641 1799 L-1641 1574 Z"/>
      </clipPath>
    </defs>
    <g fill="rgb(25,25,25)" text-rendering="geometricPrecision" shape-rendering="geometricPrecision" transform="scale(2,2) translate(1641,-1574)" stroke="rgb(25,25,25)">
      <rect x="-1641" width="461" height="225" y="1574" clip-path="url(#clipPath2)" stroke="none"/>
    </g>
    <g transform="matrix(2,0,0,2,3282,-3148)" fill-opacity="0.8824" fill="rgb(25,25,25)" text-rendering="geometricPrecision" shape-rendering="geometricPrecision" stroke="rgb(25,25,25)" stroke-opacity="0.8824">
      <circle r="10" clip-path="url(#clipPath2)" cx="-1488.0652" cy="1629.1771" stroke="none"/>
    </g>
    <g stroke-linecap="butt" transform="matrix(2,0,0,2,3282,-3148)" fill="lime" text-rendering="geometricPrecision" shape-rendering="geometricPrecision" stroke="lime" stroke-miterlimit="1.45">
      <circle fill="none" r="10" clip-path="url(#clipPath2)" cx="-1488.0652" cy="1629.1771"/>
    </g>
    <g transform="matrix(2,0,0,2,3282,-3148)" fill-opacity="0.8824" fill="rgb(25,25,25)" text-rendering="geometricPrecision" shape-rendering="geometricPrecision" stroke="rgb(25,25,25)" stroke-opacity="0.8824">
      <path d="M-1498.0651 1577.5801 L-1478.0651 1577.5801 L-1488.0651 1597.5801 Z" fill-rule="evenodd" clip-path="url(#clipPath2)" stroke="none"/>
    </g>
    <g stroke-linecap="butt" transform="matrix(2,0,0,2,3282,-3148)" fill="lime" text-rendering="geometricPrecision" shape-rendering="geometricPrecision" stroke="lime" stroke-miterlimit="1.45">
      <path fill="none" d="M-1498.0651 1577.5801 L-1478.0651 1577.5801 L-1488.0651 1597.5801 Z" fill-rule="evenodd" clip-path="url(#clipPath2)"/>
    </g>
    <g transform="matrix(2,0,0,2,3282,-3148)" fill-opacity="0.8824" fill="rgb(25,25,25)" text-rendering="geometricPrecision" shape-rendering="geometricPrecision" stroke="rgb(25,25,25)" stroke-opacity="0.8824">
      <path d="M-1533.873 1577.5801 L-1513.873 1577.5801 L-1523.873 1597.5801 Z" fill-rule="evenodd" clip-path="url(#clipPath2)" stroke="none"/>
    </g>
    <g stroke-linecap="butt" transform="matrix(2,0,0,2,3282,-3148)" fill="white" text-rendering="geometricPrecision" shape-rendering="geometricPrecision" stroke="white" stroke-miterlimit="1.45">
      <path fill="none" d="M-1533.873 1577.5801 L-1513.873 1577.5801 L-1523.873 1597.5801 Z" fill-rule="evenodd" clip-path="url(#clipPath2)"/>
    </g>
    <g transform="matrix(2,0,0,2,3282,-3148)" fill-opacity="0.8824" fill="rgb(25,25,25)" text-rendering="geometricPrecision" shape-rendering="geometricPrecision" stroke="rgb(25,25,25)" stroke-opacity="0.8824">
      <path d="M-1462.2571 1577.5801 L-1442.2571 1577.5801 L-1452.2571 1597.5801 Z" fill-rule="evenodd" clip-path="url(#clipPath2)" stroke="none"/>
    </g>
    <g stroke-linecap="butt" transform="matrix(2,0,0,2,3282,-3148)" fill="lime" text-rendering="geometricPrecision" shape-rendering="geometricPrecision" stroke="lime" stroke-miterlimit="1.45">
      <path fill="none" d="M-1462.2571 1577.5801 L-1442.2571 1577.5801 L-1452.2571 1597.5801 Z" fill-rule="evenodd" clip-path="url(#clipPath2)"/>
    </g>
    <g transform="matrix(2,0,0,2,3282,-3148)" fill-opacity="0.8824" fill="rgb(25,25,25)" text-rendering="geometricPrecision" shape-rendering="geometricPrecision" stroke="rgb(25,25,25)" stroke-opacity="0.8824">
      <circle r="10" clip-path="url(#clipPath2)" cx="-1488.0652" cy="1712.3706" stroke="none"/>
    </g>
    <g stroke-linecap="butt" transform="matrix(2,0,0,2,3282,-3148)" fill="lime" text-rendering="geometricPrecision" shape-rendering="geometricPrecision" stroke="lime" stroke-miterlimit="1.45">
      <circle fill="none" r="10" clip-path="url(#clipPath2)" cx="-1488.0652" cy="1712.3706"/>
    </g>
    <g transform="matrix(2,0,0,2,3282,-3148)" fill-opacity="0.8824" fill="rgb(25,25,25)" text-rendering="geometricPrecision" shape-rendering="geometricPrecision" stroke="rgb(25,25,25)" stroke-opacity="0.8824">
      <circle r="10" clip-path="url(#clipPath2)" cx="-1452.2572" cy="1670.7739" stroke="none"/>
    </g>
    <g stroke-linecap="butt" transform="matrix(2,0,0,2,3282,-3148)" fill="lime" text-rendering="geometricPrecision" shape-rendering="geometricPrecision" stroke="lime" stroke-miterlimit="1.45">
      <circle fill="none" r="10" clip-path="url(#clipPath2)" cx="-1452.2572" cy="1670.7739"/>
    </g>
    <g transform="matrix(2,0,0,2,3282,-3148)" fill-opacity="0.8824" fill="rgb(25,25,25)" text-rendering="geometricPrecision" shape-rendering="geometricPrecision" stroke="rgb(25,25,25)" stroke-opacity="0.8824">
      <circle r="10" clip-path="url(#clipPath2)" cx="-1229.1246" cy="1629.1771" stroke="none"/>
    </g>
    <g stroke-linecap="butt" transform="matrix(2,0,0,2,3282,-3148)" fill="white" text-rendering="geometricPrecision" shape-rendering="geometricPrecision" stroke="white" stroke-miterlimit="1.45">
      <circle fill="none" r="10" clip-path="url(#clipPath2)" cx="-1229.1246" cy="1629.1771"/>
    </g>
    <g transform="matrix(2,0,0,2,3282,-3148)" fill-opacity="0.8824" fill="rgb(25,25,25)" text-rendering="geometricPrecision" shape-rendering="geometricPrecision" stroke="rgb(25,25,25)" stroke-opacity="0.8824">
      <path d="M-1239.1245 1577.5801 L-1219.1245 1577.5801 L-1229.1245 1597.5801 Z" fill-rule="evenodd" clip-path="url(#clipPath2)" stroke="none"/>
    </g>
    <g stroke-linecap="butt" transform="matrix(2,0,0,2,3282,-3148)" fill="white" text-rendering="geometricPrecision" shape-rendering="geometricPrecision" stroke="white" stroke-miterlimit="1.45">
      <path fill="none" d="M-1239.1245 1577.5801 L-1219.1245 1577.5801 L-1229.1245 1597.5801 Z" fill-rule="evenodd" clip-path="url(#clipPath2)"/>
    </g>
    <g transform="matrix(2,0,0,2,3282,-3148)" fill-opacity="0.8824" fill="rgb(25,25,25)" text-rendering="geometricPrecision" shape-rendering="geometricPrecision" stroke="rgb(25,25,25)" stroke-opacity="0.8824">
      <path d="M-1274.9325 1577.5801 L-1254.9325 1577.5801 L-1264.9325 1597.5801 Z" fill-rule="evenodd" clip-path="url(#clipPath2)" stroke="none"/>
    </g>
    <g stroke-linecap="butt" transform="matrix(2,0,0,2,3282,-3148)" fill="red" text-rendering="geometricPrecision" shape-rendering="geometricPrecision" stroke="red" stroke-miterlimit="1.45">
      <path fill="none" d="M-1274.9325 1577.5801 L-1254.9325 1577.5801 L-1264.9325 1597.5801 Z" fill-rule="evenodd" clip-path="url(#clipPath2)"/>
    </g>
    <g transform="matrix(2,0,0,2,3282,-3148)" fill-opacity="0.8824" fill="rgb(25,25,25)" text-rendering="geometricPrecision" shape-rendering="geometricPrecision" stroke="rgb(25,25,25)" stroke-opacity="0.8824">
      <path d="M-1203.3165 1577.5801 L-1183.3165 1577.5801 L-1193.3165 1597.5801 Z" fill-rule="evenodd" clip-path="url(#clipPath2)" stroke="none"/>
    </g>
    <g stroke-linecap="butt" transform="matrix(2,0,0,2,3282,-3148)" fill="white" text-rendering="geometricPrecision" shape-rendering="geometricPrecision" stroke="white" stroke-miterlimit="1.45">
      <path fill="none" d="M-1203.3165 1577.5801 L-1183.3165 1577.5801 L-1193.3165 1597.5801 Z" fill-rule="evenodd" clip-path="url(#clipPath2)"/>
    </g>
    <g transform="matrix(2,0,0,2,3282,-3148)" fill-opacity="0.8824" fill="rgb(25,25,25)" text-rendering="geometricPrecision" shape-rendering="geometricPrecision" stroke="rgb(25,25,25)" stroke-opacity="0.8824">
      <circle r="10" clip-path="url(#clipPath2)" cx="-1229.1246" cy="1670.7739" stroke="none"/>
    </g>
    <g stroke-linecap="butt" transform="matrix(2,0,0,2,3282,-3148)" fill="red" text-rendering="geometricPrecision" shape-rendering="geometricPrecision" stroke="red" stroke-miterlimit="1.45">
      <circle fill="none" r="10" clip-path="url(#clipPath2)" cx="-1229.1246" cy="1670.7739"/>
    </g>
    <g transform="matrix(2,0,0,2,3282,-3148)" fill-opacity="0.8824" fill="rgb(25,25,25)" text-rendering="geometricPrecision" shape-rendering="geometricPrecision" stroke="rgb(25,25,25)" stroke-opacity="0.8824">
      <circle r="10" clip-path="url(#clipPath2)" cx="-1229.1246" cy="1712.3706" stroke="none"/>
    </g>
    <g stroke-linecap="butt" transform="matrix(2,0,0,2,3282,-3148)" fill="red" text-rendering="geometricPrecision" shape-rendering="geometricPrecision" stroke="red" stroke-miterlimit="1.45">
      <circle fill="none" r="10" clip-path="url(#clipPath2)" cx="-1229.1246" cy="1712.3706"/>
    </g>
    <g transform="matrix(2,0,0,2,3282,-3148)" fill-opacity="0.8824" fill="rgb(25,25,25)" text-rendering="geometricPrecision" shape-rendering="geometricPrecision" stroke="rgb(25,25,25)" stroke-opacity="0.8824">
      <circle r="10" clip-path="url(#clipPath2)" cx="-1193.3166" cy="1670.7739" stroke="none"/>
    </g>
    <g stroke-linecap="butt" transform="matrix(2,0,0,2,3282,-3148)" fill="white" text-rendering="geometricPrecision" shape-rendering="geometricPrecision" stroke="white" stroke-miterlimit="1.45">
      <circle fill="none" r="10" clip-path="url(#clipPath2)" cx="-1193.3166" cy="1670.7739"/>
      <text x="-1631.5271" font-size="14px" y="1677.3578" clip-path="url(#clipPath2)" font-family="'Libertinus Serif'" stroke="none" xml:space="preserve">ReplicatedList</text>
      <text x="-1631.5271" font-size="14px" y="1716.9066" clip-path="url(#clipPath2)" font-family="'Libertinus Serif'" stroke="none" xml:space="preserve">LastWriterWins</text>
    </g>
    <g transform="matrix(2,0,0,2,3282,-3148)" fill-opacity="0.8824" fill="rgb(25,25,25)" text-rendering="geometricPrecision" shape-rendering="geometricPrecision" stroke="rgb(25,25,25)" stroke-opacity="0.8824">
      <circle r="10" clip-path="url(#clipPath2)" cx="-1488.0652" cy="1670.7739" stroke="none"/>
    </g>
    <g stroke-linecap="butt" transform="matrix(2,0,0,2,3282,-3148)" fill="lime" text-rendering="geometricPrecision" shape-rendering="geometricPrecision" stroke="lime" stroke-miterlimit="1.45">
      <circle fill="none" r="10" clip-path="url(#clipPath2)" cx="-1488.0652" cy="1670.7739"/>
    </g>
    <g stroke-linecap="butt" font-size="14px" transform="matrix(2,0,0,2,3282,-3148)" fill="white" text-rendering="geometricPrecision" font-family="'Libertinus Serif'" shape-rendering="geometricPrecision" stroke="white" stroke-miterlimit="1.45">
      <text x="-1388.0365" xml:space="preserve" y="1711.7889" clip-path="url(#clipPath2)" stroke="none">merge</text>
    </g>
    <g transform="matrix(2,0,0,2,3282,-3148)" fill-opacity="0.8824" fill="rgb(25,25,25)" text-rendering="geometricPrecision" shape-rendering="geometricPrecision" stroke="rgb(25,25,25)" stroke-opacity="0.8824">
      <circle r="10" clip-path="url(#clipPath2)" cx="-1370.1446" cy="1785.8435" stroke="none"/>
    </g>
    <g stroke-linecap="butt" font-size="14px" transform="matrix(2,0,0,2,3282,-3148)" fill="white" text-rendering="geometricPrecision" font-family="'Libertinus Serif'" shape-rendering="geometricPrecision" stroke="white" stroke-miterlimit="1.45">
      <text x="-1373.1896" xml:space="preserve" y="1790.3795" clip-path="url(#clipPath2)" stroke="none">?</text>
    </g>
    <g transform="matrix(2,0,0,2,3282,-3148)" fill-opacity="0.8824" fill="rgb(25,25,25)" text-rendering="geometricPrecision" shape-rendering="geometricPrecision" stroke="rgb(25,25,25)" stroke-opacity="0.8824">
      <circle r="10" clip-path="url(#clipPath2)" cx="-1229.1246" cy="1670.7739" stroke="none"/>
    </g>
    <g stroke-linecap="butt" transform="matrix(2,0,0,2,3282,-3148)" fill="red" text-rendering="geometricPrecision" shape-rendering="geometricPrecision" stroke="red" stroke-miterlimit="1.45">
      <circle fill="none" r="10" clip-path="url(#clipPath2)" cx="-1229.1246" cy="1670.7739"/>
      <path fill="none" d="M-1488.0652 1597.6139 L-1488.0652 1611.1771" clip-path="url(#clipPath2)" stroke="lime"/>
      <path fill="lime" d="M-1488.0652 1619.1771 L-1483.0652 1607.1771 L-1488.0652 1610.1771 L-1493.0652 1607.1771 Z" clip-path="url(#clipPath2)" stroke="none"/>
      <path fill="none" d="M-1452.2572 1597.6139 L-1452.2572 1652.7738" clip-path="url(#clipPath2)" stroke="lime"/>
      <path fill="lime" d="M-1452.2572 1660.7738 L-1447.2572 1648.7738 L-1452.2572 1651.7738 L-1457.2572 1648.7738 Z" clip-path="url(#clipPath2)" stroke="none"/>
      <path fill="none" d="M-1458.7812 1678.3525 L-1476.3219 1698.729" clip-path="url(#clipPath2)" stroke="lime"/>
      <path fill="lime" d="M-1481.5411 1704.7919 L-1469.9229 1698.9596 L-1475.6694 1697.9711 L-1477.5016 1692.4354 Z" clip-path="url(#clipPath2)" stroke="none"/>
      <path fill="none" d="M-1229.1246 1597.6139 L-1229.1246 1611.1771" clip-path="url(#clipPath2)" stroke="white"/>
      <path fill="white" d="M-1229.1246 1619.1771 L-1224.1246 1607.1771 L-1229.1246 1610.1771 L-1234.1246 1607.1771 Z" clip-path="url(#clipPath2)" stroke="none"/>
      <path fill="none" d="M-1229.1246 1639.1771 L-1229.1246 1652.7738" clip-path="url(#clipPath2)" stroke="white"/>
      <path fill="white" d="M-1229.1246 1660.7738 L-1224.1246 1648.7738 L-1229.1246 1651.7738 L-1234.1246 1648.7738 Z" clip-path="url(#clipPath2)" stroke="none"/>
      <path fill="none" d="M-1262.9041 1593.548 L-1240.7158 1658.8202" clip-path="url(#clipPath2)"/>
      <path d="M-1238.141 1666.3945 L-1237.2693 1653.4238 L-1241.0377 1657.8734 L-1246.7372 1656.6423 Z" clip-path="url(#clipPath2)" stroke="none"/>
      <path fill="none" d="M-1195.3518 1593.5353 L-1217.608 1658.6582" clip-path="url(#clipPath2)"/>
      <path d="M-1220.1952 1666.2283 L-1211.5831 1656.4901 L-1217.2847 1657.7119 L-1221.0458 1653.2561 Z" clip-path="url(#clipPath2)" stroke="none"/>
      <path fill="none" d="M-1229.1246 1680.7738 L-1229.1246 1694.3706" clip-path="url(#clipPath2)"/>
      <path d="M-1229.1246 1702.3706 L-1224.1246 1690.3706 L-1229.1246 1693.3706 L-1234.1246 1690.3706 Z" clip-path="url(#clipPath2)" stroke="none"/>
      <path fill="none" d="M-1193.3167 1597.6139 L-1193.3167 1652.7738" clip-path="url(#clipPath2)" stroke="white"/>
      <path fill="white" d="M-1193.3167 1660.7738 L-1188.3167 1648.7738 L-1193.3167 1651.7738 L-1198.3167 1648.7738 Z" clip-path="url(#clipPath2)" stroke="none"/>
      <path fill="none" d="M-1199.8407 1678.3525 L-1217.3813 1698.729" clip-path="url(#clipPath2)"/>
      <path d="M-1222.6006 1704.7919 L-1210.9823 1698.9596 L-1216.7289 1697.9711 L-1218.561 1692.4354 Z" clip-path="url(#clipPath2)" stroke="none"/>
    </g>
    <g stroke-linecap="round" transform="matrix(2,0,0,2,3282,-3148)" stroke-dashoffset="2" fill="white" text-rendering="geometricPrecision" shape-rendering="geometricPrecision" stroke-dasharray="0,8" stroke="white" stroke-width="2" stroke-miterlimit="1.45">
      <path fill="none" d="M-1538.4518 1712.3706 L-1475.7555 1685.7703 L-1460.6869 1676.1536" clip-path="url(#clipPath2)"/>
    </g>
    <g stroke-linecap="butt" transform="matrix(2,0,0,2,3282,-3148)" fill="lime" text-rendering="geometricPrecision" shape-rendering="geometricPrecision" stroke="lime" stroke-miterlimit="1.45">
      <path fill="none" d="M-1488.0652 1639.1771 L-1488.0652 1652.7738" clip-path="url(#clipPath2)"/>
      <path d="M-1488.0652 1660.7738 L-1483.0652 1648.7738 L-1488.0652 1651.7738 L-1493.0652 1648.7738 Z" clip-path="url(#clipPath2)" stroke="none"/>
      <path fill="none" d="M-1521.8446 1593.548 L-1499.6564 1658.8202" clip-path="url(#clipPath2)" stroke="white"/>
      <path fill="white" d="M-1497.0817 1666.3945 L-1496.2097 1653.4238 L-1499.9783 1657.8734 L-1505.6777 1656.6422 Z" clip-path="url(#clipPath2)" stroke="none"/>
      <path fill="none" d="M-1454.2924 1593.5353 L-1476.5487 1658.6582" clip-path="url(#clipPath2)"/>
      <path d="M-1479.1359 1666.2283 L-1470.5238 1656.4901 L-1476.2253 1657.7119 L-1479.9865 1653.2561 Z" clip-path="url(#clipPath2)" stroke="none"/>
    </g>
    <g stroke-linecap="round" transform="matrix(2,0,0,2,3282,-3148)" stroke-dashoffset="2" fill="white" text-rendering="geometricPrecision" shape-rendering="geometricPrecision" stroke-dasharray="0,8" stroke="white" stroke-width="2" stroke-miterlimit="1.45">
      <path fill="none" d="M-1552.2368 1672.8219 L-1498.0602 1671.0929" clip-path="url(#clipPath2)"/>
    </g>
    <g stroke-linecap="butt" transform="matrix(2,0,0,2,3282,-3148)" fill="lime" text-rendering="geometricPrecision" shape-rendering="geometricPrecision" stroke="lime" stroke-miterlimit="1.45">
      <path fill="none" d="M-1488.0652 1680.7738 L-1488.0652 1694.3706" clip-path="url(#clipPath2)"/>
      <path d="M-1488.0652 1702.3706 L-1483.0652 1690.3706 L-1488.0652 1693.3706 L-1493.0652 1690.3706 Z" clip-path="url(#clipPath2)" stroke="none"/>
    </g>
  </g>
</svg>
