<?xml version="1.0" encoding="UTF-8"?><svg xmlns="http://www.w3.org/2000/svg" xmlns:xlink="http://www.w3.org/1999/xlink" fill-opacity="1" color-rendering="auto" color-interpolation="auto" text-rendering="auto" stroke="black" stroke-linecap="square" width="806" stroke-miterlimit="10" shape-rendering="auto" stroke-opacity="1" fill="black" stroke-dasharray="none" font-weight="normal" stroke-width="1" height="554" font-family="'Dialog'" font-style="normal" stroke-linejoin="miter" font-size="12px" stroke-dashoffset="0" image-rendering="auto">
  <!--Generated by ySVG 2.5-->
  <defs id="genericDefs"/>
  <g>
    <g fill="rgb(25,25,25)" text-rendering="geometricPrecision" shape-rendering="geometricPrecision" transform="scale(2,2) translate(-2941,-1762)" stroke="rgb(25,25,25)">
      <rect x="2941" width="403" height="277" y="1762" clip-path="url(#clipPath2)" stroke="none"/>
    </g>
    <g id="y.node.0">
      <a target="_blank" xlink:type="simple" xlink:href="https://www.vecteezy.com/free-vector/iot-devices" xlink:show="new">
        <g text-rendering="geometricPrecision" shape-rendering="geometricPrecision" transform="matrix(0.2377,0,0,0.2377,20.5739,419.9813)">
          <g>
            <svg xmlns:svg="http://www.w3.org/2000/svg" xmlns:sodipodi="http://sodipodi.sourceforge.net/DTD/sodipodi-0.dtd" xmlns:inkscape="http://www.inkscape.org/namespaces/inkscape" xmlns:dc="http://purl.org/dc/elements/1.1/" xmlns:cc="http://creativecommons.org/ns#" xmlns:rdf="http://www.w3.org/1999/02/22-rdf-syntax-ns#" opacity="1" writing-mode="lr-tb" stop-color="rgb(0, 0, 0)" shape-rendering="auto" glyph-orientation-horizontal="0deg" color-profile="auto" lighting-color="rgb(255, 255, 255)" color="rgb(0, 0, 0)" font-weight="400" alignment-baseline="auto" font-style="normal" version="1.1" color-interpolation-filters="linearrgb" text-anchor="start" stroke-linecap="butt" color-interpolation="srgb" font-variant="normal" word-spacing="normal" fill-opacity="1" text-rendering="auto" clip-path="none" text-decoration="none" letter-spacing="normal" viewBox="0 0 89.036179 89.036179" glyph-orientation-vertical="auto" display="inline" font-size-adjust="none" overflow="hidden" fill="rgb(0, 0, 0)" font-stretch="normal" stroke-dasharray="none" inkscape:version="1.0.1 (3bc2e813f5, 2020-09-07)" id="svg1.svg5390" stroke-miterlimit="4" stop-opacity="1" color-rendering="auto" font-size="12" pointer-events="visiblepainted" mask="none" direction="ltr" baseline-shift="baseline" sodipodi:docname="desk.svg" enable-background="accumulate" fill-rule="nonzero" image-rendering="auto" stroke-dashoffset="0" marker-end="none" width="89.036179mm" clip="auto" cursor="auto" stroke="none" filter="none" visibility="visible" kerning="auto" stroke-width="1" font-family="&quot;Arial&quot;,&quot;Helvetica&quot;,sans-serif" flood-opacity="1" clip-rule="nonzero" src="none" height="89.036179mm" unicode-bidi="normal" stroke-linejoin="miter" stroke-opacity="1" flood-color="rgb(0, 0, 0)" dominant-baseline="auto" marker-start="none" marker-mid="none">
                
              <defs id="svg1.defs5384">
                <clipPath clipPathUnits="userSpaceOnUse" id="clipPath1">
                  <path d="M0 0 L806 0 L806 554 L0 554 L0 0 Z"/>
                </clipPath>
                <clipPath clipPathUnits="userSpaceOnUse" id="clipPath2">
                  <path d="M2941 1762 L3344 1762 L3344 2039 L2941 2039 L2941 1762 Z"/>
                </clipPath>
              </defs>
                
  
              <metadata id="svg1.metadata5387">
    
  </metadata>
                
              <g inkscape:groupmode="layer" id="svg1.layer1" transform="translate(-33.236457,-70.83168)" inkscape:label="Layer 1">
                    
                <circle r="43.74659" id="svg1.path6047" style="fill:#ffffff;fill-opacity:1;stroke:#0e212f;stroke-width:1.543;stroke-miterlimit:10;stroke-opacity:1" cx="77.754547" cy="115.34977"/>
                    
                <g id="svg1.g6565" transform="matrix(0.35277777,0,0,-0.35277777,-758.9716,390.54796)">
                        
                  <g id="svg1.g1190" transform="scale(0.150399)">
                            
                    <path style="fill:#2e798a;fill-opacity:1;fill-rule:nonzero;stroke:none" d="m 16300,5516.76 v -521.07 c 0,-31.08 -25.2,-56.27 -56.3,-56.27 h -947 c -31,0 -56.3,25.19 -56.3,56.27 v 521.07 c 0,31.05 25.3,56.26 56.3,56.26 h 947 c 31.1,0 56.3,-25.21 56.3,-56.26" id="svg1.path1192"/>
                          
                  </g>
                        
                  <g id="svg1.g1194" transform="scale(0.150399)">
                            
                    <path style="fill:none;stroke:#0e212f;stroke-width:29.0726;stroke-linecap:round;stroke-linejoin:round;stroke-miterlimit:10;stroke-dasharray:none;stroke-opacity:1" d="m 16300,5516.76 v -521.07 c 0,-31.08 -25.2,-56.27 -56.3,-56.27 h -947 c -31,0 -56.3,25.19 -56.3,56.27 v 521.07 c 0,31.05 25.3,56.26 56.3,56.26 h 947 c 31.1,0 56.3,-25.21 56.3,-56.26 z" id="svg1.path1196"/>
                          
                  </g>
                        
                  <g id="svg1.g1198" transform="scale(0.149645)">
                            
                    <path style="fill:#ffffff;fill-opacity:1;fill-rule:nonzero;stroke:none" d="m 16300,5028.69 h -900.7 v 439 h 900.7 v -439" id="svg1.path1200"/>
                          
                  </g>
                        
                  <g id="svg1.g1202" transform="scale(0.149645)">
                            
                    <path style="fill:none;stroke:#0e212f;stroke-width:29.2191;stroke-linecap:round;stroke-linejoin:round;stroke-miterlimit:10;stroke-dasharray:none;stroke-opacity:1" d="m 16300,5028.69 h -900.7 v 439 h 900.7 z" id="svg1.path1204"/>
                          
                  </g>
                        
                  <g id="svg1.g1206" transform="scale(0.150399)">
                            
                    <path style="fill:#5ec9ca;fill-opacity:1;fill-rule:nonzero;stroke:none" d="m 16300,5516.76 v -76.46 c 0,0 -1059.6,2.68 -1059.6,0 v 76.46 c 0,31.05 25.3,56.26 56.3,56.26 h 947 c 31.1,0 56.3,-25.21 56.3,-56.26" id="svg1.path1208"/>
                          
                  </g>
                        
                  <g id="svg1.g1210" transform="scale(0.150399)">
                            
                    <path style="fill:none;stroke:#0e212f;stroke-width:29.0726;stroke-linecap:round;stroke-linejoin:round;stroke-miterlimit:10;stroke-dasharray:none;stroke-opacity:1" d="m 16300,5516.76 v -76.46 c 0,0 -1059.6,2.68 -1059.6,0 v 76.46 c 0,31.05 25.3,56.26 56.3,56.26 h 947 c 31.1,0 56.3,-25.21 56.3,-56.26 z" id="svg1.path1212"/>
                          
                  </g>
                        
                  <g id="svg1.g1214" transform="scale(0.147694)">
                            
                    <path style="fill:#2e798a;fill-opacity:1;fill-rule:nonzero;stroke:none" d="m 16300,4888.5 h -515.5 v 63.06 h 515.5 v -63.06" id="svg1.path1216"/>
                          
                  </g>
                        
                  <g id="svg1.g1218" transform="scale(0.147694)">
                            
                    <path style="fill:none;stroke:#0e212f;stroke-width:29.605;stroke-linecap:round;stroke-linejoin:round;stroke-miterlimit:10;stroke-dasharray:none;stroke-opacity:1" d="m 16300,4888.5 h -515.5 v 63.06 h 515.5 z" id="svg1.path1220"/>
                          
                  </g>
                        
                  <g id="svg1.g1222" transform="scale(0.146452)">
                            
                    <path style="fill:#5ec9ca;fill-opacity:1;fill-rule:nonzero;stroke:none" d="m 16300,4993.58 h -243.2 v 78.99 h 243.2 v -78.99" id="svg1.path1224"/>
                          
                  </g>
                        
                  <g id="svg1.g1226" transform="scale(0.146452)">
                            
                    <path style="fill:none;stroke:#0e212f;stroke-width:29.8563;stroke-linecap:round;stroke-linejoin:round;stroke-miterlimit:10;stroke-dasharray:none;stroke-opacity:1" d="m 16300,4993.58 h -243.2 v 78.99 h 243.2 z" id="svg1.path1228"/>
                          
                  </g>
                        
                  <g id="svg1.g1230" transform="scale(0.142699)">
                            
                    <path style="fill:#ffffff;fill-opacity:1;fill-rule:nonzero;stroke:none" d="m 16240.3,5592.07 c 35,-14.12 59.7,-48.36 59.7,-88.42 0,-39.44 -24,-73.34 -58.2,-87.78" id="svg1.path1232"/>
                          
                  </g>
                        
                  <g id="svg1.g1234" transform="scale(0.142699)">
                            
                    <path style="fill:none;stroke:#0e212f;stroke-width:30.6415;stroke-linecap:round;stroke-linejoin:round;stroke-miterlimit:10;stroke-dasharray:none;stroke-opacity:1" d="m 16240.3,5592.07 c 35,-14.12 59.7,-48.36 59.7,-88.42 0,-39.44 -24,-73.34 -58.2,-87.78" id="svg1.path1236"/>
                          
                  </g>
                        
                  <g id="svg1.g1238" transform="scale(0.143375)">
                            
                    <path style="fill:none;stroke:#0e212f;stroke-width:30.497;stroke-linecap:round;stroke-linejoin:round;stroke-miterlimit:10;stroke-dasharray:none;stroke-opacity:1" d="m 16209.4,5611.49 c 53.1,-21.46 90.6,-73.46 90.6,-134.22 0,-59.9 -36.5,-111.32 -88.4,-133.3" id="svg1.path1240"/>
                          
                  </g>
                        
                  <g id="svg1.g1242" transform="scale(0.144)">
                            
                    <path style="fill:none;stroke:#0e212f;stroke-width:30.3646;stroke-linecap:round;stroke-linejoin:round;stroke-miterlimit:10;stroke-dasharray:none;stroke-opacity:1" d="m 16181.4,5629.04 c 69.5,-28.03 118.6,-96.12 118.6,-175.71 0,-78.44 -47.7,-145.75 -115.7,-174.5" id="svg1.path1244"/>
                          
                  </g>
                        
                  <g id="svg1.g1246" transform="scale(0.148696)">
                            
                    <path style="fill:#5ec9ca;fill-opacity:1;fill-rule:nonzero;stroke:none" d="m 16300,5390.36 c 0,-13.41 -10.8,-24.26 -24.2,-24.26 h -366.1 c -13.3,0 -24.2,10.85 -24.2,24.26 v 0 c 0,13.39 10.9,24.19 24.2,24.19 h 366.1 c 13.4,0 24.2,-10.8 24.2,-24.19 v 0" id="svg1.path1248"/>
                          
                  </g>
                        
                  <g id="svg1.g1250" transform="scale(0.148696)">
                            
                    <path style="fill:none;stroke:#0e212f;stroke-width:29.4056;stroke-linecap:round;stroke-linejoin:round;stroke-miterlimit:10;stroke-dasharray:none;stroke-opacity:1" d="m 16300,5390.36 c 0,-13.41 -10.8,-24.26 -24.2,-24.26 h -366.1 c -13.3,0 -24.2,10.85 -24.2,24.26 v 0 c 0,13.39 10.9,24.19 24.2,24.19 h 366.1 c 13.4,0 24.2,-10.8 24.2,-24.19 z" id="svg1.path1252"/>
                          
                  </g>
                        
                  <g id="svg1.g1254" transform="scale(0.148696)">
                            
                    <path style="fill:#5ec9ca;fill-opacity:1;fill-rule:nonzero;stroke:none" d="m 16300,5273.25 c 0,-13.37 -10.8,-24.19 -24.2,-24.19 h -366.1 c -13.3,0 -24.2,10.82 -24.2,24.19 v 0 c 0,13.42 10.9,24.25 24.2,24.25 h 366.1 c 13.4,0 24.2,-10.83 24.2,-24.25 v 0" id="svg1.path1256"/>
                          
                  </g>
                        
                  <g id="svg1.g1258" transform="scale(0.148696)">
                            
                    <path style="fill:none;stroke:#0e212f;stroke-width:29.4056;stroke-linecap:round;stroke-linejoin:round;stroke-miterlimit:10;stroke-dasharray:none;stroke-opacity:1" d="m 16300,5273.25 c 0,-13.37 -10.8,-24.19 -24.2,-24.19 h -366.1 c -13.3,0 -24.2,10.82 -24.2,24.19 v 0 c 0,13.42 10.9,24.25 24.2,24.25 h 366.1 c 13.4,0 24.2,-10.83 24.2,-24.25 z" id="svg1.path1260"/>
                          
                  </g>
                        
                  <g id="svg1.g1262" transform="scale(0.148696)">
                            
                    <path style="fill:#5ec9ca;fill-opacity:1;fill-rule:nonzero;stroke:none" d="m 16300,5145.99 c 0,-13.4 -10.8,-24.25 -24.2,-24.25 h -366.1 c -13.3,0 -24.2,10.85 -24.2,24.25 v 0 c 0,13.36 10.9,24.19 24.2,24.19 h 366.1 c 13.4,0 24.2,-10.83 24.2,-24.19 v 0" id="svg1.path1264"/>
                          
                  </g>
                        
                  <g id="svg1.g1266" transform="scale(0.148696)">
                            
                    <path style="fill:none;stroke:#0e212f;stroke-width:29.4056;stroke-linecap:round;stroke-linejoin:round;stroke-miterlimit:10;stroke-dasharray:none;stroke-opacity:1" d="m 16300,5145.99 c 0,-13.4 -10.8,-24.25 -24.2,-24.25 h -366.1 c -13.3,0 -24.2,10.85 -24.2,24.25 v 0 c 0,13.36 10.9,24.19 24.2,24.19 h 366.1 c 13.4,0 24.2,-10.83 24.2,-24.19 z" id="svg1.path1268"/>
                          
                  </g>
                      
                </g>
                  
              </g>
              
            </svg>
          </g>
        </g>
        <g>
          <g stroke-linecap="butt" font-size="14px" transform="matrix(2,0,0,2,-5882,-3524)" fill="white" text-rendering="geometricPrecision" font-family="'Libertinus Serif'" shape-rendering="geometricPrecision" stroke="white" stroke-miterlimit="1.45">
            <text x="2946.7451" xml:space="preserve" y="2030.5066" stroke="none">Device 1</text>
          </g>
        </g>
      </a>
    </g>
    <g id="y.node.1">
      <a target="_blank" xlink:type="simple" xlink:href="https://www.vecteezy.com/free-vector/iot-devices" xlink:show="new">
        <g text-rendering="geometricPrecision" shape-rendering="geometricPrecision" transform="matrix(0.2377,0,0,0.2377,20.5739,55.2583)">
          <g>
            <svg xmlns:svg="http://www.w3.org/2000/svg" xmlns:sodipodi="http://sodipodi.sourceforge.net/DTD/sodipodi-0.dtd" xmlns:inkscape="http://www.inkscape.org/namespaces/inkscape" xmlns:dc="http://purl.org/dc/elements/1.1/" xmlns:cc="http://creativecommons.org/ns#" xmlns:rdf="http://www.w3.org/1999/02/22-rdf-syntax-ns#" opacity="1" writing-mode="lr-tb" stop-color="rgb(0, 0, 0)" shape-rendering="auto" glyph-orientation-horizontal="0deg" color-profile="auto" lighting-color="rgb(255, 255, 255)" color="rgb(0, 0, 0)" font-weight="400" alignment-baseline="auto" font-style="normal" version="1.1" color-interpolation-filters="linearrgb" text-anchor="start" stroke-linecap="butt" color-interpolation="srgb" font-variant="normal" word-spacing="normal" fill-opacity="1" text-rendering="auto" clip-path="none" text-decoration="none" letter-spacing="normal" viewBox="0 0 89.036179 89.036179" glyph-orientation-vertical="auto" display="inline" font-size-adjust="none" overflow="hidden" fill="rgb(0, 0, 0)" font-stretch="normal" stroke-dasharray="none" inkscape:version="1.0.1 (3bc2e813f5, 2020-09-07)" id="svg2.svg5390" stroke-miterlimit="4" stop-opacity="1" color-rendering="auto" font-size="12" pointer-events="visiblepainted" mask="none" direction="ltr" baseline-shift="baseline" sodipodi:docname="phone.svg" enable-background="accumulate" fill-rule="nonzero" image-rendering="auto" stroke-dashoffset="0" marker-end="none" width="89.036179mm" clip="auto" cursor="auto" stroke="none" filter="none" visibility="visible" kerning="auto" stroke-width="1" font-family="&quot;Arial&quot;,&quot;Helvetica&quot;,sans-serif" flood-opacity="1" clip-rule="nonzero" src="none" height="89.036179mm" unicode-bidi="normal" stroke-linejoin="miter" stroke-opacity="1" flood-color="rgb(0, 0, 0)" dominant-baseline="auto" marker-start="none" marker-mid="none">
                
              <defs id="svg2.defs5384"/>
                
  
              <metadata id="svg2.metadata5387">
    
  </metadata>
                
              <g inkscape:groupmode="layer" id="svg2.layer1" transform="translate(-33.236457,-70.83168)" inkscape:label="Layer 1">
                    
                <circle r="43.74659" id="svg2.path6047" style="fill:#ffffff;fill-opacity:1;stroke:#0e212f;stroke-width:1.543;stroke-miterlimit:10;stroke-opacity:1" cx="77.754547" cy="115.34977"/>
                    
                <g style="opacity:1" id="svg2.g6251" transform="matrix(0.35277777,0,0,-0.35277777,-9.4041398,577.9402)">
                        
                  <path style="fill:#2e798a;fill-opacity:1;fill-rule:nonzero;stroke:none;stroke-width:0.1" d="m 253.723,1248.74 c 0,-4.76 -3.857,-8.62 -8.617,-8.62 h -69.102 c -4.76,0 -8.619,3.86 -8.619,8.62 v 125.08 c 0,4.76 3.859,8.62 8.619,8.62 h 69.102 c 4.76,0 8.617,-3.86 8.617,-8.62 v -125.08" id="svg2.path42"/>
                        
                  <path style="fill:none;stroke:#0e212f;stroke-width:4.3725;stroke-linecap:round;stroke-linejoin:round;stroke-miterlimit:10;stroke-dasharray:none;stroke-opacity:1" d="m 253.723,1248.74 c 0,-4.76 -3.857,-8.62 -8.617,-8.62 h -69.102 c -4.76,0 -8.619,3.86 -8.619,8.62 v 125.08 c 0,4.76 3.859,8.62 8.619,8.62 h 69.102 c 4.76,0 8.617,-3.86 8.617,-8.62 z" id="svg2.path44"/>
                        
                  <path style="fill:#ffffff;fill-opacity:1;fill-rule:nonzero;stroke:none;stroke-width:0.1" d="m 218.703,1257.18 c 0,-4.5 -3.649,-8.15 -8.148,-8.15 -4.501,0 -8.148,3.65 -8.148,8.15 0,4.5 3.647,8.14 8.148,8.14 4.499,0 8.148,-3.64 8.148,-8.14" id="svg2.path46"/>
                        
                  <path style="fill:none;stroke:#0e212f;stroke-width:4.3725;stroke-linecap:round;stroke-linejoin:round;stroke-miterlimit:10;stroke-dasharray:none;stroke-opacity:1" d="m 218.703,1257.18 c 0,-4.5 -3.649,-8.15 -8.148,-8.15 -4.501,0 -8.148,3.65 -8.148,8.15 0,4.5 3.647,8.14 8.148,8.14 4.499,0 8.148,-3.64 8.148,-8.14 z" id="svg2.path48"/>
                        
                  <path style="fill:#ffffff;fill-opacity:1;fill-rule:nonzero;stroke:none;stroke-width:0.1" d="m 253.723,1278.45 h -86.338 v 83.91 h 86.338 v -83.91" id="svg2.path50"/>
                        
                  <path style="fill:none;stroke:#0e212f;stroke-width:4.3725;stroke-linecap:round;stroke-linejoin:round;stroke-miterlimit:10;stroke-dasharray:none;stroke-opacity:1" d="m 253.723,1278.45 h -86.338 v 83.91 h 86.338 z" id="svg2.path52"/>
                        
                  <path style="fill:none;stroke:#0e212f;stroke-width:4.3725;stroke-linecap:round;stroke-linejoin:round;stroke-miterlimit:10;stroke-dasharray:none;stroke-opacity:1" d="m 268.976,1335.81 c 9.703,-3.92 16.549,-13.42 16.549,-24.52 0,-10.95 -6.656,-20.35 -16.146,-24.36" id="svg2.path54"/>
                        
                  <path style="fill:none;stroke:#0e212f;stroke-width:4.3725;stroke-linecap:round;stroke-linejoin:round;stroke-miterlimit:10;stroke-dasharray:none;stroke-opacity:1" d="m 281.691,1348.56 c 14.799,-5.98 25.243,-20.47 25.243,-37.41 0,-16.69 -10.156,-31.02 -24.624,-37.14" id="svg2.path56"/>
                        
                  <path style="fill:none;stroke:#0e212f;stroke-width:4.3725;stroke-linecap:round;stroke-linejoin:round;stroke-miterlimit:10;stroke-dasharray:none;stroke-opacity:1" d="m 293.552,1360.3 c 19.459,-7.85 33.191,-26.91 33.191,-49.18 0,-21.97 -13.352,-40.81 -32.378,-48.85" id="svg2.path58"/>
                      
                </g>
                  
              </g>
              
            </svg>
          </g>
        </g>
        <g>
          <g stroke-linecap="butt" font-size="14px" transform="matrix(2,0,0,2,-5882,-3524)" fill="white" text-rendering="geometricPrecision" font-family="'Libertinus Serif'" shape-rendering="geometricPrecision" stroke="white" stroke-miterlimit="1.45">
            <text x="2946.7451" xml:space="preserve" y="1780.1852" stroke="none">Device 2</text>
          </g>
        </g>
      </a>
    </g>
    <g id="y.node.2">
      <g fill="purple" text-rendering="geometricPrecision" shape-rendering="geometricPrecision" transform="matrix(2,0,0,2,-5882,-3524)" stroke="purple">
        <circle r="15" cx="3083.608" cy="1809.6291" stroke="none"/>
      </g>
      <g stroke-linecap="butt" transform="matrix(2,0,0,2,-5882,-3524)" fill="white" text-rendering="geometricPrecision" shape-rendering="geometricPrecision" stroke="white" stroke-miterlimit="1.45">
        <circle fill="none" r="15" cx="3083.608" cy="1809.6291"/>
      </g>
      <g>
        <g stroke-linecap="butt" font-size="14px" transform="matrix(2,0,0,2,-5882,-3524)" fill="white" text-rendering="geometricPrecision" font-family="'Libertinus Serif'" shape-rendering="geometricPrecision" stroke="white" stroke-miterlimit="1.45">
          <text x="3074.97" xml:space="preserve" y="1814.1652" stroke="none">BC</text>
        </g>
      </g>
    </g>
    <g id="y.node.3">
      <g transform="matrix(2,0,0,2,-5882,-3524)" fill-opacity="0.8824" fill="rgb(25,25,25)" text-rendering="geometricPrecision" shape-rendering="geometricPrecision" stroke="rgb(25,25,25)" stroke-opacity="0.8824">
        <rect x="3118.4011" width="30" height="30" y="1921.9906" stroke="none"/>
      </g>
      <g stroke-linecap="butt" transform="matrix(2,0,0,2,-5882,-3524)" fill="white" text-rendering="geometricPrecision" shape-rendering="geometricPrecision" stroke="white" stroke-miterlimit="1.45">
        <rect fill="none" x="3118.4011" width="30" height="30" y="1921.9906"/>
      </g>
      <g>
        <g stroke-linecap="butt" font-size="14px" transform="matrix(2,0,0,2,-5882,-3524)" fill="white" text-rendering="geometricPrecision" font-family="'Libertinus Serif'" shape-rendering="geometricPrecision" stroke="white" stroke-miterlimit="1.45">
          <text x="3128.5361" xml:space="preserve" y="1941.5266" stroke="none">A</text>
        </g>
      </g>
    </g>
    <g id="y.node.4">
      <g fill="purple" text-rendering="geometricPrecision" shape-rendering="geometricPrecision" transform="matrix(2,0,0,2,-5882,-3524)" stroke="purple">
        <rect x="3217.9875" y="1794.6291" width="30" rx="4" ry="4" height="30" stroke="none"/>
      </g>
      <g stroke-linecap="butt" transform="matrix(2,0,0,2,-5882,-3524)" fill="white" text-rendering="geometricPrecision" shape-rendering="geometricPrecision" stroke="white" stroke-miterlimit="1.45">
        <rect x="3217.9875" y="1794.6291" fill="none" width="30" rx="4" ry="4" height="30"/>
      </g>
      <g>
        <g stroke-linecap="butt" font-size="14px" transform="matrix(2,0,0,2,-5882,-3524)" fill="white" text-rendering="geometricPrecision" font-family="'Libertinus Serif'" shape-rendering="geometricPrecision" stroke="white" stroke-miterlimit="1.45">
          <text x="3219.4846" xml:space="preserve" y="1814.1652" stroke="none">ABC</text>
        </g>
      </g>
    </g>
    <g id="y.node.5">
      <g stroke-linecap="butt" transform="matrix(2,0,0,2,-5882,-3524)" fill="white" text-rendering="geometricPrecision" shape-rendering="geometricPrecision" stroke="white" stroke-miterlimit="1.45">
        <rect x="3168.1943" y="1981.9906" fill="none" width="30" rx="4" ry="4" height="30"/>
      </g>
      <g>
        <g stroke-linecap="butt" font-size="14px" transform="matrix(2,0,0,2,-5882,-3524)" fill="white" text-rendering="geometricPrecision" font-family="'Libertinus Serif'" shape-rendering="geometricPrecision" stroke="white" stroke-miterlimit="1.45">
          <text x="3174.2134" xml:space="preserve" y="2001.5266" stroke="none">AB</text>
        </g>
      </g>
    </g>
    <g id="y.node.6">
      <g transform="matrix(2,0,0,2,-5882,-3524)" fill-opacity="0.8824" fill="rgb(25,25,25)" text-rendering="geometricPrecision" shape-rendering="geometricPrecision" stroke="rgb(25,25,25)" stroke-opacity="0.8824">
        <circle r="15" cx="3083.608" cy="1996.9906" stroke="none"/>
      </g>
      <g stroke-linecap="butt" transform="matrix(2,0,0,2,-5882,-3524)" fill="white" text-rendering="geometricPrecision" shape-rendering="geometricPrecision" stroke="white" stroke-miterlimit="1.45">
        <circle fill="none" r="15" cx="3083.608" cy="1996.9906"/>
      </g>
      <g>
        <g stroke-linecap="butt" font-size="14px" transform="matrix(2,0,0,2,-5882,-3524)" fill="white" text-rendering="geometricPrecision" font-family="'Libertinus Serif'" shape-rendering="geometricPrecision" stroke="white" stroke-miterlimit="1.45">
          <text x="3079.4919" xml:space="preserve" y="2001.5266" stroke="none">B</text>
        </g>
      </g>
    </g>
    <g id="y.node.7">
      <g fill="purple" text-rendering="geometricPrecision" shape-rendering="geometricPrecision" transform="matrix(2,0,0,2,-5882,-3524)" stroke="purple">
        <rect x="3267.7806" y="1981.9906" width="30" rx="4" ry="4" height="30" stroke="none"/>
      </g>
      <g stroke-linecap="butt" transform="matrix(2,0,0,2,-5882,-3524)" fill="white" text-rendering="geometricPrecision" shape-rendering="geometricPrecision" stroke="white" stroke-miterlimit="1.45">
        <rect x="3267.7806" y="1981.9906" fill="none" width="30" rx="4" ry="4" height="30"/>
      </g>
      <g>
        <g stroke-linecap="butt" font-size="14px" transform="matrix(2,0,0,2,-5882,-3524)" fill="white" text-rendering="geometricPrecision" font-family="'Libertinus Serif'" shape-rendering="geometricPrecision" stroke="white" stroke-miterlimit="1.45">
          <text x="3269.2776" xml:space="preserve" y="2001.5266" stroke="none">ABC</text>
        </g>
      </g>
    </g>
    <g id="y.node.8">
      <g fill="purple" text-rendering="geometricPrecision" shape-rendering="geometricPrecision" transform="matrix(2,0,0,2,-5882,-3524)" stroke="purple">
        <circle r="15" cx="3232.9875" cy="1874.6823" stroke="none"/>
      </g>
      <g stroke-linecap="butt" transform="matrix(2,0,0,2,-5882,-3524)" fill="white" text-rendering="geometricPrecision" shape-rendering="geometricPrecision" stroke="white" stroke-miterlimit="1.45">
        <circle fill="none" r="15" cx="3232.9875" cy="1874.6823"/>
      </g>
      <g>
        <g stroke-linecap="butt" font-size="14px" transform="matrix(2,0,0,2,-5882,-3524)" fill="white" text-rendering="geometricPrecision" font-family="'Libertinus Serif'" shape-rendering="geometricPrecision" stroke="white" stroke-miterlimit="1.45">
          <text x="3224.3496" xml:space="preserve" y="1879.2183" stroke="none">BC</text>
        </g>
      </g>
    </g>
    <g id="y.edge.0">
      <g stroke-linecap="round" transform="matrix(2,0,0,2,-5882,-3524)" stroke-dashoffset="2" fill="yellow" text-rendering="geometricPrecision" shape-rendering="geometricPrecision" stroke-dasharray="0,8" stroke="yellow" stroke-width="2" stroke-miterlimit="1.45">
        <path fill="none" d="M2971.5469 1972.0004 L2973.397 1829.6481"/>
      </g>
    </g>
    <g id="y.edge.1">
      <g stroke-linecap="butt" transform="matrix(2,0,0,2,-5882,-3524)" fill="white" text-rendering="geometricPrecision" shape-rendering="geometricPrecision" stroke="white" stroke-miterlimit="1.45">
        <path fill="none" d="M3098.6079 1809.6292 L3209.9783 1809.6292"/>
        <path d="M3217.9783 1809.6292 L3205.9783 1804.6292 L3208.9783 1809.6292 L3205.9783 1814.6292 Z" stroke="none"/>
      </g>
      <g>
        <g stroke-linecap="butt" font-size="14px" transform="matrix(2,0,0,2,-5882,-3524)" fill="white" text-rendering="geometricPrecision" font-family="'Libertinus Serif'" shape-rendering="geometricPrecision" stroke="white" stroke-miterlimit="1.45">
          <text x="3140.4058" xml:space="preserve" y="1791.9935" stroke="none">merge</text>
        </g>
      </g>
    </g>
    <g id="y.edge.3">
      <g stroke-linecap="butt" transform="matrix(2,0,0,2,-5882,-3524)" fill="white" text-rendering="geometricPrecision" shape-rendering="geometricPrecision" stroke-dasharray="6,2" stroke="white" stroke-miterlimit="1.45">
        <path fill="none" d="M3133.4011 1921.9906 L3133.4011 1809.6292 L3218.011 1809.6292"/>
      </g>
      <g>
        <g stroke-linecap="butt" font-size="14px" transform="matrix(2,0,0,2,-5882,-3524)" fill="white" text-rendering="geometricPrecision" font-family="'Libertinus Serif'" shape-rendering="geometricPrecision" stroke="white" stroke-miterlimit="1.45">
          <text x="3092.8196" xml:space="preserve" y="1892.9867" stroke="none">send</text>
        </g>
      </g>
    </g>
    <g id="y.edge.2">
      <g stroke-linecap="butt" transform="matrix(2,0,0,2,-5882,-3524)" fill="white" text-rendering="geometricPrecision" shape-rendering="geometricPrecision" stroke="white" stroke-miterlimit="1.45">
        <path fill="none" d="M3133.4011 1951.9906 L3133.4011 1996.9906 L3138.0789 1996.9906 L3160.1707 1996.9906"/>
        <path d="M3168.1707 1996.9906 L3156.1707 1991.9906 L3159.1707 1996.9906 L3156.1707 2001.9906 Z" stroke="none"/>
      </g>
    </g>
    <g id="y.edge.6">
      <g stroke-linecap="butt" transform="matrix(2,0,0,2,-5882,-3524)" fill="white" text-rendering="geometricPrecision" shape-rendering="geometricPrecision" stroke="white" stroke-miterlimit="1.45">
        <path fill="none" d="M3092.6746 1985.0408 L3113.5823 1957.4839"/>
        <path d="M3118.4177 1951.1106 L3107.1814 1957.6483 L3112.9778 1958.2805 L3115.1479 1963.6926 Z" stroke="none"/>
      </g>
      <g>
        <g stroke-linecap="butt" font-size="14px" transform="matrix(2,0,0,2,-5882,-3524)" fill="white" text-rendering="geometricPrecision" font-family="'Libertinus Serif'" shape-rendering="geometricPrecision" stroke="white" stroke-miterlimit="1.45">
          <text x="3088.9978" xml:space="preserve" y="1969.9481" stroke="none">A</text>
        </g>
      </g>
    </g>
    <g id="y.edge.7">
      <g stroke-linecap="butt" transform="matrix(2,0,0,2,-5882,-3524)" fill="white" text-rendering="geometricPrecision" shape-rendering="geometricPrecision" stroke="white" stroke-miterlimit="1.45">
        <path fill="none" d="M3098.6079 1996.9906 L3160.2017 1996.9906"/>
        <path d="M3168.2017 1996.9906 L3156.2017 1991.9906 L3159.2017 1996.9906 L3156.2017 2001.9906 Z" stroke="none"/>
      </g>
      <g>
        <g stroke-linecap="butt" font-size="14px" transform="matrix(2,0,0,2,-5882,-3524)" fill="white" text-rendering="geometricPrecision" font-family="'Libertinus Serif'" shape-rendering="geometricPrecision" stroke="white" stroke-miterlimit="1.45">
          <text x="3115.5093" xml:space="preserve" y="2023.6981" stroke="none">merge</text>
        </g>
      </g>
    </g>
    <g id="y.edge.5">
      <g stroke-linecap="butt" transform="matrix(2,0,0,2,-5882,-3524)" fill="white" text-rendering="geometricPrecision" shape-rendering="geometricPrecision" stroke="white" stroke-miterlimit="1.45">
        <path fill="none" d="M3198.2197 1996.9906 L3259.7925 1996.9906"/>
        <path d="M3267.7925 1996.9906 L3255.7925 1991.9906 L3258.7925 1996.9906 L3255.7925 2001.9906 Z" stroke="none"/>
      </g>
      <g>
        <g stroke-linecap="butt" font-size="14px" transform="matrix(2,0,0,2,-5882,-3524)" fill="white" text-rendering="geometricPrecision" font-family="'Libertinus Serif'" shape-rendering="geometricPrecision" stroke="white" stroke-miterlimit="1.45">
          <text x="3215.0955" xml:space="preserve" y="2023.6981" stroke="none">merge</text>
        </g>
      </g>
    </g>
    <g id="y.edge.4">
      <g stroke-linecap="butt" transform="matrix(2,0,0,2,-5882,-3524)" fill="white" text-rendering="geometricPrecision" shape-rendering="geometricPrecision" stroke="white" stroke-miterlimit="1.45">
        <path fill="none" d="M3232.9875 1824.6537 L3232.9875 1851.6823"/>
        <path d="M3232.9875 1859.6823 L3237.9875 1847.6823 L3232.9875 1850.6823 L3227.9875 1847.6823 Z" stroke="none"/>
      </g>
      <g>
        <g stroke-linecap="butt" font-size="14px" transform="matrix(2,0,0,2,-5882,-3524)" fill="white" text-rendering="geometricPrecision" font-family="'Libertinus Serif'" shape-rendering="geometricPrecision" stroke="white" stroke-miterlimit="1.45">
          <text x="3247.179" xml:space="preserve" y="1844.1451" stroke="none">“compute delta”</text>
        </g>
      </g>
    </g>
    <g id="y.edge.8">
      <g stroke-linecap="butt" transform="matrix(2,0,0,2,-5882,-3524)" fill="white" text-rendering="geometricPrecision" shape-rendering="geometricPrecision" stroke-dasharray="6,2" stroke="white" stroke-miterlimit="1.45">
        <path fill="none" d="M3232.9875 1889.6823 L3232.9875 1996.9906 L3267.7593 1996.9906"/>
      </g>
      <g>
        <g stroke-linecap="butt" font-size="14px" transform="matrix(2,0,0,2,-5882,-3524)" fill="white" text-rendering="geometricPrecision" font-family="'Libertinus Serif'" shape-rendering="geometricPrecision" stroke="white" stroke-miterlimit="1.45">
          <text x="3247.4336" xml:space="preserve" y="1914.2876" stroke="none">send</text>
        </g>
      </g>
    </g>
  </g>
</svg>
