<?xml version="1.0" encoding="UTF-8"?><svg xmlns="http://www.w3.org/2000/svg" xmlns:xlink="http://www.w3.org/1999/xlink" fill-opacity="1" color-rendering="auto" color-interpolation="auto" text-rendering="auto" stroke="black" stroke-linecap="square" width="856" stroke-miterlimit="10" shape-rendering="auto" stroke-opacity="1" fill="black" stroke-dasharray="none" font-weight="normal" stroke-width="1" height="418" font-family="'Dialog'" font-style="normal" stroke-linejoin="miter" font-size="12px" stroke-dashoffset="0" image-rendering="auto">
  <!--Generated by ySVG 2.5-->
  <defs id="genericDefs"/>
  <g>
    <defs id="defs1">
      <clipPath clipPathUnits="userSpaceOnUse" id="clipPath1">
        <path d="M0 0 L856 0 L856 418 L0 418 L0 0 Z"/>
      </clipPath>
      <clipPath clipPathUnits="userSpaceOnUse" id="clipPath2">
        <path d="M811 62 L1239 62 L1239 271 L811 271 L811 62 Z"/>
      </clipPath>
    </defs>
    <g fill="rgb(25,25,25)" text-rendering="geometricPrecision" shape-rendering="geometricPrecision" transform="scale(2,2) translate(-811,-62)" stroke="rgb(25,25,25)">
      <rect x="811" width="428" height="209" y="62" clip-path="url(#clipPath2)" stroke="none"/>
    </g>
    <g stroke-linecap="butt" transform="matrix(2,0,0,2,-1622,-124)" fill="white" text-rendering="geometricPrecision" shape-rendering="geometricPrecision" stroke="white" stroke-miterlimit="1.45">
      <path fill="none" d="M942.0951 135.4626 L950.8818 126.6758 L963.3082 126.6758 L972.0951 135.4626 L972.0951 147.889 L963.3082 156.6758 L950.8818 156.6758 L942.0951 147.889 Z" fill-rule="evenodd" clip-path="url(#clipPath2)"/>
      <path fill="none" d="M942.0951 190.9442 L950.8818 182.1574 L963.3082 182.1574 L972.0951 190.9442 L972.0951 203.3706 L963.3082 212.1574 L950.8818 212.1574 L942.0951 203.3706 Z" clip-path="url(#clipPath2)" fill-rule="evenodd"/>
      <path fill="none" d="M942.0951 246.4258 L950.8818 237.639 L963.3082 237.639 L972.0951 246.4258 L972.0951 258.8523 L963.3082 267.6392 L950.8818 267.6392 L942.0951 258.8523 Z" clip-path="url(#clipPath2)" fill-rule="evenodd"/>
      <text x="834.3417" font-size="14px" y="146.2118" clip-path="url(#clipPath2)" font-family="'Libertinus Serif'" stroke="none" xml:space="preserve">use</text>
      <text x="816.8138" font-size="14px" y="201.6934" clip-path="url(#clipPath2)" font-family="'Libertinus Serif'" stroke="none" xml:space="preserve">paradigm</text>
      <text x="819.1937" font-size="14px" y="257.175" clip-path="url(#clipPath2)" font-family="'Libertinus Serif'" stroke="none" xml:space="preserve">platform</text>
      <path fill="none" d="M957.0944 156.657 L957.0944 174.1675" clip-path="url(#clipPath2)" stroke="lime"/>
      <path fill="lime" d="M957.0944 182.1675 L962.0944 170.1675 L957.0944 173.1675 L952.0944 170.1675 Z" clip-path="url(#clipPath2)" stroke="none"/>
      <path fill="none" d="M957.0944 212.1385 L957.0944 229.6491" clip-path="url(#clipPath2)" stroke="lime"/>
      <path fill="lime" d="M957.0944 237.6491 L962.0944 225.6491 L957.0944 228.6491 L952.0944 225.6491 Z" clip-path="url(#clipPath2)" stroke="none"/>
    </g>
    <g stroke-linecap="butt" font-size="14px" transform="matrix(2,0,0,2,-1622,-124)" fill="rgb(25,25,25)" text-rendering="geometricPrecision" font-family="'Libertinus Serif'" shape-rendering="geometricPrecision" stroke="rgb(25,25,25)" stroke-miterlimit="1.45">
      <text x="989.136" xml:space="preserve" y="80.4209" clip-path="url(#clipPath2)" stroke="none">changed</text>
    </g>
  </g>
</svg>
