<?xml version="1.0" encoding="UTF-8"?><svg xmlns="http://www.w3.org/2000/svg" xmlns:xlink="http://www.w3.org/1999/xlink" fill-opacity="1" color-rendering="auto" color-interpolation="auto" text-rendering="auto" stroke="black" stroke-linecap="square" width="900" stroke-miterlimit="10" shape-rendering="auto" stroke-opacity="1" fill="black" stroke-dasharray="none" font-weight="normal" stroke-width="1" height="416" font-family="'Dialog'" font-style="normal" stroke-linejoin="miter" font-size="12px" stroke-dashoffset="0" image-rendering="auto">
  <!--Generated by ySVG 2.5-->
  <defs id="genericDefs"/>
  <g>
    <defs id="defs1">
      <clipPath clipPathUnits="userSpaceOnUse" id="clipPath1">
        <path d="M0 0 L900 0 L900 416 L0 416 L0 0 Z"/>
      </clipPath>
      <clipPath clipPathUnits="userSpaceOnUse" id="clipPath2">
        <path d="M812 -213 L1262 -213 L1262 -5 L812 -5 L812 -213 Z"/>
      </clipPath>
    </defs>
    <g fill="rgb(25,25,25)" text-rendering="geometricPrecision" shape-rendering="geometricPrecision" transform="scale(2,2) translate(-812,213)" stroke="rgb(25,25,25)">
      <rect x="812" width="450" height="208" y="-213" clip-path="url(#clipPath2)" stroke="none"/>
    </g>
    <g stroke-linecap="butt" transform="matrix(2,0,0,2,-1624,426)" fill="white" text-rendering="geometricPrecision" shape-rendering="geometricPrecision" stroke="white" stroke-miterlimit="1.45">
      <path fill="none" d="M943.0767 -140.8158 L951.8635 -149.6026 L964.2899 -149.6026 L973.0767 -140.8158 L973.0767 -128.3894 L964.2899 -119.6026 L951.8635 -119.6026 L943.0767 -128.3894 Z" fill-rule="evenodd" clip-path="url(#clipPath2)"/>
      <path fill="none" d="M943.0767 -85.3342 L951.8635 -94.121 L964.2899 -94.121 L973.0767 -85.3342 L973.0767 -72.9078 L964.2899 -64.121 L951.8635 -64.121 L943.0767 -72.9078 Z" clip-path="url(#clipPath2)" fill-rule="evenodd"/>
      <path fill="none" d="M943.0767 -29.8526 L951.8635 -38.6394 L964.2899 -38.6394 L973.0767 -29.8526 L973.0767 -17.4262 L964.2899 -8.6394 L951.8635 -8.6394 L943.0767 -17.4262 Z" clip-path="url(#clipPath2)" fill-rule="evenodd"/>
      <text x="835.324" font-size="14px" y="-130.0666" clip-path="url(#clipPath2)" font-family="'Libertinus Serif'" stroke="none" xml:space="preserve">use</text>
      <text x="817.796" font-size="14px" y="-74.585" clip-path="url(#clipPath2)" font-family="'Libertinus Serif'" stroke="none" xml:space="preserve">paradigm</text>
      <text x="820.176" font-size="14px" y="-19.1034" clip-path="url(#clipPath2)" font-family="'Libertinus Serif'" stroke="none" xml:space="preserve">platform</text>
      <path fill="none" d="M1205.4131 -140.8158 L1214.1998 -149.6026 L1226.6262 -149.6026 L1235.4131 -140.8158 L1235.4131 -128.3894 L1226.6262 -119.6026 L1214.1998 -119.6026 L1205.4131 -128.3894 Z" clip-path="url(#clipPath2)" fill-rule="evenodd"/>
      <path fill="none" d="M1205.4131 -29.8526 L1214.1998 -38.6394 L1226.6262 -38.6394 L1235.4131 -29.8526 L1235.4131 -17.4262 L1226.6262 -8.6394 L1214.1998 -8.6394 L1205.4131 -17.4262 Z" clip-path="url(#clipPath2)" fill-rule="evenodd"/>
      <path fill="none" d="M1145.4137 -85.3342 L1154.2004 -94.121 L1166.6268 -94.121 L1175.4136 -85.3342 L1175.4136 -72.9078 L1166.6268 -64.121 L1154.2004 -64.121 L1145.4137 -72.9078 Z" clip-path="url(#clipPath2)" fill-rule="evenodd"/>
      <text x="1157.368" font-size="14px" y="-74.585" clip-path="url(#clipPath2)" font-family="'Libertinus Serif'" stroke="none" xml:space="preserve">?</text>
      <path fill="none" d="M1228.7611 -85.3342 L1237.5479 -94.121 L1249.9742 -94.121 L1258.7611 -85.3342 L1258.7611 -72.9078 L1249.9742 -64.121 L1237.5479 -64.121 L1228.7611 -72.9078 Z" clip-path="url(#clipPath2)" fill-rule="evenodd"/>
      <text x="1240.7153" font-size="14px" y="-74.585" clip-path="url(#clipPath2)" font-family="'Libertinus Serif'" stroke="none" xml:space="preserve">?</text>
      <path fill="none" d="M1187.087 -85.3342 L1195.8738 -94.121 L1208.3002 -94.121 L1217.087 -85.3342 L1217.087 -72.9078 L1208.3002 -64.121 L1195.8738 -64.121 L1187.087 -72.9078 Z" clip-path="url(#clipPath2)" fill-rule="evenodd"/>
      <text x="1199.0417" font-size="14px" y="-74.585" clip-path="url(#clipPath2)" font-family="'Libertinus Serif'" stroke="none" xml:space="preserve">?</text>
      <path fill="none" d="M958.0767 -119.6214 L958.0767 -102.1109" clip-path="url(#clipPath2)" stroke="lime"/>
      <path fill="lime" d="M958.0767 -94.1109 L963.0767 -106.1109 L958.0767 -103.1109 L953.0767 -106.1109 Z" clip-path="url(#clipPath2)" stroke="none"/>
      <path fill="none" d="M958.0767 -64.1398 L958.0767 -46.6293" clip-path="url(#clipPath2)" stroke="lime"/>
      <path fill="lime" d="M958.0767 -38.6293 L963.0767 -50.6293 L958.0767 -47.6293 L953.0767 -50.6293 Z" clip-path="url(#clipPath2)" stroke="none"/>
      <path fill="none" d="M1205.394 -131.4262 L980.908 -83.9496" clip-path="url(#clipPath2)" stroke="rgb(255,204,0)"/>
      <path fill="rgb(255,204,0)" d="M973.0812 -82.2943 L985.8561 -79.8854 L981.8864 -84.1565 L983.7869 -89.669 Z" clip-path="url(#clipPath2)" stroke="none"/>
      <path fill="none" d="M973.0957 -75.9446 L1197.5817 -28.468" clip-path="url(#clipPath2)" stroke="rgb(255,204,0)"/>
      <path fill="rgb(255,204,0)" d="M1205.4086 -26.8127 L1194.7029 -34.1874 L1196.6034 -28.6749 L1192.6337 -24.4038 Z" clip-path="url(#clipPath2)" stroke="none"/>
    </g>
    <g stroke-linecap="butt" transform="matrix(2,0,0,2,-1624,426)" fill="white" text-rendering="geometricPrecision" shape-rendering="geometricPrecision" stroke="white" stroke-width="2" stroke-miterlimit="1.45">
      <path d="M1181.6731 -185.6333 L1181.6731 -179.8833 L986.6927 -179.8833 L986.6927 -177.8833 L1181.6731 -177.8833 L1181.6731 -172.1333 L1195.1731 -178.8833 L1181.6731 -185.6333 Z" stroke="none" clip-path="url(#clipPath2)"/>
      <path fill="none" d="M1181.6731 -185.6333 L1181.6731 -179.8833 L986.6927 -179.8833 L986.6927 -177.8833 L1181.6731 -177.8833 L1181.6731 -172.1333 L1195.1731 -178.8833 L1181.6731 -185.6333 Z" stroke-width="1" clip-path="url(#clipPath2)"/>
      <text x="1067.007" font-size="14px" y="-187.8673" clip-path="url(#clipPath2)" font-family="'Libertinus Serif'" stroke="none" stroke-width="1" xml:space="preserve">changed</text>
    </g>
  </g>
</svg>
