<svg width="500" height="186" viewBox="0 0 500 186" fill="none" xmlns="http://www.w3.org/2000/svg">
<path d="M134.442 79.9356H97.3176V13.412C97.3176 6.00858 91.309 0 83.9056 0H13.412C6.00858 0 0 6.00858 0 13.412V82.618C0 90.0214 6.00858 96.03 13.412 96.03H81.2232V129.506H54.2918C46.8884 129.506 40.8798 135.515 40.8798 142.918V171.888C40.8798 179.292 46.8884 185.3 54.2918 185.3H83.9056C91.309 185.3 97.3176 179.292 97.3176 171.888V145.601H134.335C141.738 145.601 147.747 139.592 147.747 132.189V93.3476C147.854 85.9442 141.738 79.9356 134.442 79.9356ZM16.0944 16.0944H81.2232V79.9356H16.0944V16.0944ZM81.2232 169.206H56.9742V145.601H81.2232V169.206ZM131.76 129.506H97.4249V96.03H131.76V129.506Z" fill="white"/>
<path d="M199.035 80.1503C204.614 80.1503 209.12 80.6868 212.554 81.867C215.987 83.0473 218.562 84.9786 220.172 87.661C221.781 90.3434 222.64 94.2061 222.64 99.0344C222.64 101.931 222.211 104.614 221.459 106.76C220.708 109.013 219.421 110.837 217.597 112.125C215.773 113.519 213.412 114.378 210.301 114.7V115.129C211.374 115.343 212.554 115.773 213.734 116.416C214.914 117.06 216.095 118.133 217.06 119.421C218.133 120.708 218.884 122.532 219.314 124.678L224.786 144.421H209.979L205.15 125.107C204.614 123.069 203.756 121.567 202.683 120.816C201.61 120.064 200.108 119.635 198.176 119.635C193.992 119.635 190.558 119.635 187.661 119.635C184.764 119.635 182.404 119.528 180.472 119.528C178.541 119.421 176.824 119.421 175.322 119.313L175.644 109.12H198.498C200.966 109.12 202.897 108.906 204.292 108.369C205.687 107.833 206.76 106.867 207.296 105.579C207.833 104.185 208.155 102.361 208.155 100C208.155 97.5322 207.833 95.7082 207.296 94.3134C206.76 93.0258 205.687 92.0601 204.292 91.5237C202.897 90.9872 200.859 90.7726 198.498 90.7726C192.704 90.7726 187.876 90.7726 183.906 90.8799C179.936 90.9872 177.146 90.9872 175.751 91.2018L174.356 81.2232C176.932 80.9013 179.399 80.6868 181.653 80.5795C183.906 80.4722 186.374 80.3649 189.056 80.3649C191.953 80.1503 195.172 80.1503 199.035 80.1503ZM188.412 81.1159V144.528H174.571V81.1159H188.412Z" fill="white"/>
<path d="M245.172 80.794C248.605 80.794 252.039 80.794 255.579 80.794C259.12 80.794 262.446 80.9013 265.88 81.0086C269.206 81.1159 272.425 81.3305 275.322 81.6524L274.678 91.8455H250.322C248.82 91.8455 247.639 92.2747 246.888 93.0258C246.137 93.7768 245.708 94.9571 245.708 96.5665V128.863C245.708 130.365 246.137 131.545 246.888 132.403C247.639 133.155 248.82 133.584 250.322 133.584H274.678L275.322 143.777C272.425 143.991 269.206 144.206 265.88 144.421C262.554 144.528 259.12 144.635 255.579 144.742C252.039 144.742 248.605 144.742 245.172 144.742C241.094 144.742 237.876 143.562 235.408 141.202C232.94 138.841 231.652 135.73 231.652 131.974V93.5622C231.652 89.6996 232.94 86.588 235.408 84.3348C237.876 81.9743 241.202 80.794 245.172 80.794ZM233.369 106.545H271.352V116.416H233.369V106.545Z" fill="white"/>
<path d="M304.4 79.9357C307.511 79.9357 310.945 80.1503 314.593 80.4721C318.241 80.794 321.889 81.5451 325.322 82.5108L324.357 91.7382C321.674 91.6309 318.455 91.631 314.915 91.5237C311.267 91.4164 307.726 91.4164 304.292 91.4164C302.576 91.4164 301.073 91.4164 299.893 91.5237C298.713 91.631 297.747 91.8455 296.996 92.2747C296.245 92.7039 295.709 93.2404 295.387 94.0988C295.065 94.8498 294.958 96.0301 294.958 97.4249C294.958 99.5709 295.494 101.18 296.46 102.146C297.425 103.112 299.249 103.97 301.61 104.828L313.842 108.798C318.885 110.515 322.425 112.876 324.357 115.773C326.288 118.67 327.254 122.532 327.254 127.361C327.254 131.009 326.824 134.013 325.966 136.373C325.108 138.734 323.713 140.665 321.889 141.953C320.065 143.348 317.597 144.313 314.593 144.85C311.588 145.386 307.94 145.708 303.541 145.708C301.503 145.708 298.498 145.601 294.636 145.279C290.773 144.957 286.374 144.313 281.438 143.24L282.404 133.369C286.052 133.476 289.164 133.476 291.846 133.584C294.528 133.691 296.782 133.691 298.713 133.798C300.644 133.798 302.254 133.798 303.648 133.798C306.116 133.798 308.048 133.691 309.442 133.369C310.837 133.047 311.803 132.403 312.339 131.545C312.876 130.579 313.198 129.292 313.198 127.575C313.198 126.073 312.983 124.893 312.554 124.034C312.125 123.176 311.481 122.425 310.623 121.888C309.764 121.352 308.477 120.923 306.975 120.494L294.099 116.094C289.271 114.27 285.837 112.017 283.799 109.12C281.76 106.223 280.794 102.468 280.794 97.7468C280.794 94.0988 281.224 91.0945 282.082 88.8413C282.94 86.588 284.335 84.764 286.267 83.4764C288.091 82.1889 290.558 81.3305 293.563 80.794C296.674 80.1503 300.215 79.9357 304.4 79.9357Z" fill="white"/>
<path d="M355.687 97.9614C357.296 97.9614 359.12 98.0687 361.159 98.176C363.09 98.2832 365.129 98.6051 367.06 99.0343C369.099 99.4635 370.923 100 372.532 100.751L371.03 109.335C368.562 109.227 366.202 109.227 363.949 109.12C361.696 109.013 359.657 109.013 357.94 109.013C355.15 109.013 353.005 109.335 351.395 110.086C349.786 110.837 348.605 112.124 347.962 113.948C347.211 115.773 346.889 118.455 346.889 121.674C346.889 125 347.211 127.682 347.962 129.614C348.713 131.545 349.786 132.833 351.395 133.584C353.005 134.335 355.15 134.657 357.94 134.657C358.906 134.657 360.193 134.657 361.696 134.549C363.198 134.442 364.914 134.442 366.631 134.335C368.455 134.227 370.172 134.12 371.889 133.798L373.176 142.382C370.708 143.455 367.919 144.313 364.807 144.742C361.696 145.279 358.584 145.494 355.58 145.494C349.893 145.494 345.494 144.742 342.168 143.133C338.841 141.524 336.374 139.056 334.979 135.515C333.477 131.974 332.726 127.361 332.726 121.567C332.726 115.773 333.477 111.051 334.979 107.618C336.481 104.077 338.949 101.609 342.275 100.107C345.708 98.7124 350.108 97.9614 355.687 97.9614Z" fill="white"/>
<path d="M415.666 116.524L415.558 124.142L395.387 124.249C393.777 124.249 392.597 124.678 391.846 125.429C391.095 126.18 390.773 127.253 390.773 128.648V130.901C390.773 132.403 391.202 133.584 392.06 134.442C392.919 135.3 394.314 135.73 396.245 135.73C397.854 135.73 399.571 135.408 401.395 134.764C403.219 134.12 405.151 133.154 406.975 131.867C408.799 130.687 410.408 129.185 411.803 127.575V133.476C411.266 134.442 410.408 135.515 409.335 136.91C408.262 138.305 406.867 139.592 405.258 140.987C403.648 142.275 401.717 143.455 399.464 144.313C397.211 145.279 394.743 145.708 391.953 145.708C389.163 145.708 386.696 145.172 384.55 144.206C382.296 143.24 380.58 141.738 379.292 139.914C378.005 137.983 377.361 135.622 377.361 132.833V128.112C377.361 124.464 378.541 121.674 381.009 119.635C383.477 117.597 386.803 116.631 391.095 116.631H415.666V116.524ZM403.541 97.9614C407.296 97.9614 410.515 98.4978 413.198 99.4635C415.88 100.429 417.811 102.146 419.206 104.614C420.601 107.082 421.245 110.408 421.245 114.592V144.528H410.408L408.477 134.657L407.511 133.262V114.378C407.511 112.232 406.975 110.622 406.009 109.657C405.043 108.691 403.112 108.154 400.215 108.154C397.854 108.154 394.957 108.262 391.524 108.369C387.983 108.476 384.442 108.691 380.794 109.013L379.507 100C381.76 99.5708 384.228 99.2489 387.125 98.927C390.022 98.6051 392.919 98.3905 395.708 98.176C398.605 98.0687 401.181 97.9614 403.541 97.9614Z" fill="white"/>
<path d="M443.777 80.1503L443.67 129.936C443.67 131.438 444.099 132.618 445.065 133.369C446.03 134.12 447.318 134.549 449.142 134.549H452.79L454.399 143.777C453.648 144.099 452.575 144.421 451.288 144.743C449.893 145.064 448.605 145.279 447.103 145.386C445.708 145.494 444.528 145.601 443.563 145.601C439.485 145.601 436.159 144.528 433.799 142.382C431.438 140.236 430.258 137.232 430.258 133.369V80.1503H443.777Z" fill="white"/>
<path d="M494.42 116.524L494.313 124.142L474.141 124.249C472.532 124.249 471.352 124.678 470.601 125.429C469.85 126.18 469.528 127.253 469.528 128.648V130.901C469.528 132.403 469.957 133.584 470.815 134.442C471.674 135.3 473.069 135.73 475 135.73C476.609 135.73 478.326 135.408 480.15 134.764C481.974 134.12 483.905 133.154 485.729 131.867C487.553 130.687 489.163 129.185 490.558 127.575V133.476C490.021 134.442 489.163 135.515 488.09 136.91C487.017 138.305 485.622 139.592 484.013 140.987C482.403 142.275 480.472 143.455 478.219 144.313C475.966 145.279 473.498 145.708 470.708 145.708C467.918 145.708 465.45 145.172 463.305 144.206C461.051 143.24 459.335 141.738 458.047 139.914C456.759 137.983 456.116 135.622 456.116 132.833V128.112C456.116 124.464 457.296 121.674 459.764 119.635C462.232 117.597 465.558 116.631 469.85 116.631H494.42V116.524ZM482.296 97.9614C486.051 97.9614 489.27 98.4978 491.953 99.4635C494.635 100.429 496.566 102.146 497.961 104.614C499.356 107.082 500 110.408 500 114.592V144.528H489.163L487.232 134.657L486.266 133.262V114.378C486.266 112.232 485.729 110.622 484.764 109.657C483.798 108.691 481.867 108.154 478.97 108.154C476.609 108.154 473.712 108.262 470.279 108.369C466.738 108.476 463.197 108.691 459.549 109.013L458.262 100C460.515 99.5708 462.983 99.2489 465.88 98.927C468.777 98.6051 471.674 98.3905 474.463 98.176C477.468 98.0687 480.043 97.9614 482.296 97.9614Z" fill="white"/>
</svg>
