<?xml version="1.0" encoding="UTF-8"?><svg xmlns="http://www.w3.org/2000/svg" xmlns:xlink="http://www.w3.org/1999/xlink" fill-opacity="1" color-rendering="auto" color-interpolation="auto" text-rendering="auto" stroke="black" stroke-linecap="square" width="1324" stroke-miterlimit="10" shape-rendering="auto" stroke-opacity="1" fill="black" stroke-dasharray="none" font-weight="normal" stroke-width="1" height="596" font-family="'Dialog'" font-style="normal" stroke-linejoin="miter" font-size="12px" stroke-dashoffset="0" image-rendering="auto">
  <!--Generated by ySVG 2.5-->
  <defs id="genericDefs"/>
  <g>
    <defs id="defs1">
      <clipPath clipPathUnits="userSpaceOnUse" id="clipPath1">
        <path d="M0 0 L1324 0 L1324 596 L0 596 L0 0 Z"/>
      </clipPath>
      <clipPath clipPathUnits="userSpaceOnUse" id="clipPath2">
        <path d="M-353 687 L309 687 L309 985 L-353 985 L-353 687 Z"/>
      </clipPath>
    </defs>
    <g fill="rgb(25,25,25)" text-rendering="geometricPrecision" shape-rendering="geometricPrecision" transform="scale(2,2) translate(353,-687)" stroke="rgb(25,25,25)">
      <rect x="-353" width="662" height="298" y="687" clip-path="url(#clipPath2)" stroke="none"/>
    </g>
    <g transform="matrix(2,0,0,2,706,-1374)" fill-opacity="0.8824" fill="rgb(25,25,25)" text-rendering="geometricPrecision" shape-rendering="geometricPrecision" stroke="rgb(25,25,25)" stroke-opacity="0.8824">
      <circle r="10" clip-path="url(#clipPath2)" cx="-303.2148" cy="776.6984" stroke="none"/>
    </g>
    <g stroke-linecap="butt" transform="matrix(2,0,0,2,706,-1374)" fill="white" text-rendering="geometricPrecision" shape-rendering="geometricPrecision" stroke="white" stroke-miterlimit="1.45">
      <circle fill="none" r="10" clip-path="url(#clipPath2)" cx="-303.2148" cy="776.6984"/>
    </g>
    <g transform="matrix(2,0,0,2,706,-1374)" fill-opacity="0.8824" fill="rgb(25,25,25)" text-rendering="geometricPrecision" shape-rendering="geometricPrecision" stroke="rgb(25,25,25)" stroke-opacity="0.8824">
      <path d="M-313.2148 725.1016 L-293.2148 725.1016 L-303.2148 745.1016 Z" fill-rule="evenodd" clip-path="url(#clipPath2)" stroke="none"/>
    </g>
    <g stroke-linecap="butt" transform="matrix(2,0,0,2,706,-1374)" fill="white" text-rendering="geometricPrecision" shape-rendering="geometricPrecision" stroke="white" stroke-miterlimit="1.45">
      <path fill="none" d="M-313.2148 725.1016 L-293.2148 725.1016 L-303.2148 745.1016 Z" fill-rule="evenodd" clip-path="url(#clipPath2)"/>
    </g>
    <g transform="matrix(2,0,0,2,706,-1374)" fill-opacity="0.8824" fill="rgb(25,25,25)" text-rendering="geometricPrecision" shape-rendering="geometricPrecision" stroke="rgb(25,25,25)" stroke-opacity="0.8824">
      <path d="M-349.0228 725.1016 L-329.0228 725.1016 L-339.0228 745.1016 Z" fill-rule="evenodd" clip-path="url(#clipPath2)" stroke="none"/>
    </g>
    <g stroke-linecap="butt" transform="matrix(2,0,0,2,706,-1374)" fill="white" text-rendering="geometricPrecision" shape-rendering="geometricPrecision" stroke="white" stroke-miterlimit="1.45">
      <path fill="none" d="M-349.0228 725.1016 L-329.0228 725.1016 L-339.0228 745.1016 Z" fill-rule="evenodd" clip-path="url(#clipPath2)"/>
    </g>
    <g transform="matrix(2,0,0,2,706,-1374)" fill-opacity="0.8824" fill="rgb(25,25,25)" text-rendering="geometricPrecision" shape-rendering="geometricPrecision" stroke="rgb(25,25,25)" stroke-opacity="0.8824">
      <circle r="10" clip-path="url(#clipPath2)" cx="-303.2148" cy="818.2952" stroke="none"/>
    </g>
    <g stroke-linecap="butt" transform="matrix(2,0,0,2,706,-1374)" fill="white" text-rendering="geometricPrecision" shape-rendering="geometricPrecision" stroke="white" stroke-miterlimit="1.45">
      <circle fill="none" r="10" clip-path="url(#clipPath2)" cx="-303.2148" cy="818.2952"/>
    </g>
    <g transform="matrix(2,0,0,2,706,-1374)" fill-opacity="0.8824" fill="rgb(25,25,25)" text-rendering="geometricPrecision" shape-rendering="geometricPrecision" stroke="rgb(25,25,25)" stroke-opacity="0.8824">
      <circle r="10" clip-path="url(#clipPath2)" cx="-303.2148" cy="859.892" stroke="none"/>
    </g>
    <g stroke-linecap="butt" transform="matrix(2,0,0,2,706,-1374)" fill="white" text-rendering="geometricPrecision" shape-rendering="geometricPrecision" stroke="white" stroke-miterlimit="1.45">
      <circle fill="none" r="10" clip-path="url(#clipPath2)" cx="-303.2148" cy="859.892"/>
    </g>
    <g transform="matrix(2,0,0,2,706,-1374)" fill-opacity="0.8824" fill="rgb(25,25,25)" text-rendering="geometricPrecision" shape-rendering="geometricPrecision" stroke="rgb(25,25,25)" stroke-opacity="0.8824">
      <circle r="10" clip-path="url(#clipPath2)" cx="-222.6736" cy="888.1624" stroke="none"/>
    </g>
    <g stroke-linecap="butt" transform="matrix(2,0,0,2,706,-1374)" fill="lime" text-rendering="geometricPrecision" shape-rendering="geometricPrecision" stroke="lime" stroke-miterlimit="1.45">
      <circle fill="none" r="10" clip-path="url(#clipPath2)" cx="-222.6736" cy="888.1624"/>
    </g>
    <g transform="matrix(2,0,0,2,706,-1374)" fill-opacity="0.8824" fill="rgb(25,25,25)" text-rendering="geometricPrecision" shape-rendering="geometricPrecision" stroke="rgb(25,25,25)" stroke-opacity="0.8824">
      <path d="M-232.6736 836.5656 L-212.6736 836.5656 L-222.6736 856.5656 Z" fill-rule="evenodd" clip-path="url(#clipPath2)" stroke="none"/>
    </g>
    <g stroke-linecap="butt" transform="matrix(2,0,0,2,706,-1374)" fill="lime" text-rendering="geometricPrecision" shape-rendering="geometricPrecision" stroke="lime" stroke-miterlimit="1.45">
      <path fill="none" d="M-232.6736 836.5656 L-212.6736 836.5656 L-222.6736 856.5656 Z" fill-rule="evenodd" clip-path="url(#clipPath2)"/>
    </g>
    <g transform="matrix(2,0,0,2,706,-1374)" fill-opacity="0.8824" fill="rgb(25,25,25)" text-rendering="geometricPrecision" shape-rendering="geometricPrecision" stroke="rgb(25,25,25)" stroke-opacity="0.8824">
      <path d="M-268.4816 836.5656 L-248.4816 836.5656 L-258.4816 856.5656 Z" fill-rule="evenodd" clip-path="url(#clipPath2)" stroke="none"/>
    </g>
    <g stroke-linecap="butt" transform="matrix(2,0,0,2,706,-1374)" fill="white" text-rendering="geometricPrecision" shape-rendering="geometricPrecision" stroke="white" stroke-miterlimit="1.45">
      <path fill="none" d="M-268.4816 836.5656 L-248.4816 836.5656 L-258.4816 856.5656 Z" fill-rule="evenodd" clip-path="url(#clipPath2)"/>
    </g>
    <g transform="matrix(2,0,0,2,706,-1374)" fill-opacity="0.8824" fill="rgb(25,25,25)" text-rendering="geometricPrecision" shape-rendering="geometricPrecision" stroke="rgb(25,25,25)" stroke-opacity="0.8824">
      <path d="M-196.8656 836.5656 L-176.8656 836.5656 L-186.8656 856.5656 Z" fill-rule="evenodd" clip-path="url(#clipPath2)" stroke="none"/>
    </g>
    <g stroke-linecap="butt" transform="matrix(2,0,0,2,706,-1374)" fill="lime" text-rendering="geometricPrecision" shape-rendering="geometricPrecision" stroke="lime" stroke-miterlimit="1.45">
      <path fill="none" d="M-196.8656 836.5656 L-176.8656 836.5656 L-186.8656 856.5656 Z" fill-rule="evenodd" clip-path="url(#clipPath2)"/>
    </g>
    <g transform="matrix(2,0,0,2,706,-1374)" fill-opacity="0.8824" fill="rgb(25,25,25)" text-rendering="geometricPrecision" shape-rendering="geometricPrecision" stroke="rgb(25,25,25)" stroke-opacity="0.8824">
      <circle r="10" clip-path="url(#clipPath2)" cx="-222.6736" cy="929.7592" stroke="none"/>
    </g>
    <g stroke-linecap="butt" transform="matrix(2,0,0,2,706,-1374)" fill="lime" text-rendering="geometricPrecision" shape-rendering="geometricPrecision" stroke="lime" stroke-miterlimit="1.45">
      <circle fill="none" r="10" clip-path="url(#clipPath2)" cx="-222.6736" cy="929.7592"/>
    </g>
    <g transform="matrix(2,0,0,2,706,-1374)" fill-opacity="0.8824" fill="rgb(25,25,25)" text-rendering="geometricPrecision" shape-rendering="geometricPrecision" stroke="rgb(25,25,25)" stroke-opacity="0.8824">
      <circle r="10" clip-path="url(#clipPath2)" cx="-222.6736" cy="971.356" stroke="none"/>
    </g>
    <g stroke-linecap="butt" transform="matrix(2,0,0,2,706,-1374)" fill="lime" text-rendering="geometricPrecision" shape-rendering="geometricPrecision" stroke="lime" stroke-miterlimit="1.45">
      <circle fill="none" r="10" clip-path="url(#clipPath2)" cx="-222.6736" cy="971.356"/>
    </g>
    <g transform="matrix(2,0,0,2,706,-1374)" fill-opacity="0.8824" fill="rgb(25,25,25)" text-rendering="geometricPrecision" shape-rendering="geometricPrecision" stroke="rgb(25,25,25)" stroke-opacity="0.8824">
      <circle r="10" clip-path="url(#clipPath2)" cx="-186.8656" cy="929.7592" stroke="none"/>
    </g>
    <g stroke-linecap="butt" transform="matrix(2,0,0,2,706,-1374)" fill="lime" text-rendering="geometricPrecision" shape-rendering="geometricPrecision" stroke="lime" stroke-miterlimit="1.45">
      <circle fill="none" r="10" clip-path="url(#clipPath2)" cx="-186.8656" cy="929.7592"/>
      <text x="-261.4534" font-size="14px" y="818.7592" clip-path="url(#clipPath2)" font-family="'Libertinus Serif'" stroke="none" xml:space="preserve">transaction A</text>
    </g>
    <g transform="matrix(2,0,0,2,706,-1374)" fill-opacity="0.8824" fill="rgb(25,25,25)" text-rendering="geometricPrecision" shape-rendering="geometricPrecision" stroke="rgb(25,25,25)" stroke-opacity="0.8824">
      <circle r="10" clip-path="url(#clipPath2)" cx="-128.3485" cy="776.6984" stroke="none"/>
    </g>
    <g stroke-linecap="butt" transform="matrix(2,0,0,2,706,-1374)" fill="white" text-rendering="geometricPrecision" shape-rendering="geometricPrecision" stroke="white" stroke-miterlimit="1.45">
      <circle fill="none" r="10" clip-path="url(#clipPath2)" cx="-128.3485" cy="776.6984"/>
    </g>
    <g transform="matrix(2,0,0,2,706,-1374)" fill-opacity="0.8824" fill="rgb(25,25,25)" text-rendering="geometricPrecision" shape-rendering="geometricPrecision" stroke="rgb(25,25,25)" stroke-opacity="0.8824">
      <path d="M-138.3485 725.1016 L-118.3485 725.1016 L-128.3485 745.1016 Z" fill-rule="evenodd" clip-path="url(#clipPath2)" stroke="none"/>
    </g>
    <g stroke-linecap="butt" transform="matrix(2,0,0,2,706,-1374)" fill="white" text-rendering="geometricPrecision" shape-rendering="geometricPrecision" stroke="white" stroke-miterlimit="1.45">
      <path fill="none" d="M-138.3485 725.1016 L-118.3485 725.1016 L-128.3485 745.1016 Z" fill-rule="evenodd" clip-path="url(#clipPath2)"/>
    </g>
    <g transform="matrix(2,0,0,2,706,-1374)" fill-opacity="0.8824" fill="rgb(25,25,25)" text-rendering="geometricPrecision" shape-rendering="geometricPrecision" stroke="rgb(25,25,25)" stroke-opacity="0.8824">
      <path d="M-174.1565 725.1016 L-154.1565 725.1016 L-164.1565 745.1016 Z" fill-rule="evenodd" clip-path="url(#clipPath2)" stroke="none"/>
    </g>
    <g stroke-linecap="butt" transform="matrix(2,0,0,2,706,-1374)" fill="white" text-rendering="geometricPrecision" shape-rendering="geometricPrecision" stroke="white" stroke-miterlimit="1.45">
      <path fill="none" d="M-174.1565 725.1016 L-154.1565 725.1016 L-164.1565 745.1016 Z" fill-rule="evenodd" clip-path="url(#clipPath2)"/>
    </g>
    <g transform="matrix(2,0,0,2,706,-1374)" fill-opacity="0.8824" fill="rgb(25,25,25)" text-rendering="geometricPrecision" shape-rendering="geometricPrecision" stroke="rgb(25,25,25)" stroke-opacity="0.8824">
      <path d="M-102.5405 725.1016 L-82.5405 725.1016 L-92.5405 745.1016 Z" fill-rule="evenodd" clip-path="url(#clipPath2)" stroke="none"/>
    </g>
    <g stroke-linecap="butt" transform="matrix(2,0,0,2,706,-1374)" fill="white" text-rendering="geometricPrecision" shape-rendering="geometricPrecision" stroke="white" stroke-miterlimit="1.45">
      <path fill="none" d="M-102.5405 725.1016 L-82.5405 725.1016 L-92.5405 745.1016 Z" fill-rule="evenodd" clip-path="url(#clipPath2)"/>
    </g>
    <g transform="matrix(2,0,0,2,706,-1374)" fill-opacity="0.8824" fill="rgb(25,25,25)" text-rendering="geometricPrecision" shape-rendering="geometricPrecision" stroke="rgb(25,25,25)" stroke-opacity="0.8824">
      <circle r="10" clip-path="url(#clipPath2)" cx="-128.3485" cy="818.2952" stroke="none"/>
    </g>
    <g stroke-linecap="butt" transform="matrix(2,0,0,2,706,-1374)" fill="white" text-rendering="geometricPrecision" shape-rendering="geometricPrecision" stroke="white" stroke-miterlimit="1.45">
      <circle fill="none" r="10" clip-path="url(#clipPath2)" cx="-128.3485" cy="818.2952"/>
    </g>
    <g transform="matrix(2,0,0,2,706,-1374)" fill-opacity="0.8824" fill="rgb(25,25,25)" text-rendering="geometricPrecision" shape-rendering="geometricPrecision" stroke="rgb(25,25,25)" stroke-opacity="0.8824">
      <circle r="10" clip-path="url(#clipPath2)" cx="-128.3485" cy="859.892" stroke="none"/>
    </g>
    <g stroke-linecap="butt" transform="matrix(2,0,0,2,706,-1374)" fill="white" text-rendering="geometricPrecision" shape-rendering="geometricPrecision" stroke="white" stroke-miterlimit="1.45">
      <circle fill="none" r="10" clip-path="url(#clipPath2)" cx="-128.3485" cy="859.892"/>
    </g>
    <g transform="matrix(2,0,0,2,706,-1374)" fill-opacity="0.8824" fill="rgb(25,25,25)" text-rendering="geometricPrecision" shape-rendering="geometricPrecision" stroke="rgb(25,25,25)" stroke-opacity="0.8824">
      <circle r="10" clip-path="url(#clipPath2)" cx="-92.5405" cy="818.2952" stroke="none"/>
    </g>
    <g stroke-linecap="butt" transform="matrix(2,0,0,2,706,-1374)" fill="white" text-rendering="geometricPrecision" shape-rendering="geometricPrecision" stroke="white" stroke-miterlimit="1.45">
      <circle fill="none" r="10" clip-path="url(#clipPath2)" cx="-92.5405" cy="818.2952"/>
    </g>
    <g stroke-linecap="butt" font-size="14px" transform="matrix(2,0,0,2,706,-1374)" fill="yellow" text-rendering="geometricPrecision" font-family="'Libertinus Serif'" shape-rendering="geometricPrecision" stroke="yellow" stroke-miterlimit="1.45">
      <text x="-60.705" xml:space="preserve" y="818.7592" clip-path="url(#clipPath2)" stroke="none">transaction B</text>
    </g>
    <g transform="matrix(2,0,0,2,706,-1374)" fill-opacity="0.8824" fill="rgb(25,25,25)" text-rendering="geometricPrecision" shape-rendering="geometricPrecision" stroke="rgb(25,25,25)" stroke-opacity="0.8824">
      <circle r="10" clip-path="url(#clipPath2)" cx="-22.6741" cy="888.1624" stroke="none"/>
    </g>
    <g stroke-linecap="butt" transform="matrix(2,0,0,2,706,-1374)" fill="white" text-rendering="geometricPrecision" shape-rendering="geometricPrecision" stroke="white" stroke-miterlimit="1.45">
      <circle fill="none" r="10" clip-path="url(#clipPath2)" cx="-22.6741" cy="888.1624"/>
    </g>
    <g transform="matrix(2,0,0,2,706,-1374)" fill-opacity="0.8824" fill="rgb(25,25,25)" text-rendering="geometricPrecision" shape-rendering="geometricPrecision" stroke="rgb(25,25,25)" stroke-opacity="0.8824">
      <path d="M-32.6741 836.5656 L-12.6741 836.5656 L-22.6741 856.5656 Z" fill-rule="evenodd" clip-path="url(#clipPath2)" stroke="none"/>
    </g>
    <g stroke-linecap="butt" transform="matrix(2,0,0,2,706,-1374)" fill="white" text-rendering="geometricPrecision" shape-rendering="geometricPrecision" stroke="white" stroke-miterlimit="1.45">
      <path fill="none" d="M-32.6741 836.5656 L-12.6741 836.5656 L-22.6741 856.5656 Z" fill-rule="evenodd" clip-path="url(#clipPath2)"/>
    </g>
    <g transform="matrix(2,0,0,2,706,-1374)" fill-opacity="0.8824" fill="rgb(25,25,25)" text-rendering="geometricPrecision" shape-rendering="geometricPrecision" stroke="rgb(25,25,25)" stroke-opacity="0.8824">
      <path d="M-68.4821 836.5656 L-48.4821 836.5656 L-58.4821 856.5656 Z" fill-rule="evenodd" clip-path="url(#clipPath2)" stroke="none"/>
    </g>
    <g stroke-linecap="butt" transform="matrix(2,0,0,2,706,-1374)" fill="white" text-rendering="geometricPrecision" shape-rendering="geometricPrecision" stroke="white" stroke-miterlimit="1.45">
      <path fill="none" d="M-68.4821 836.5656 L-48.4821 836.5656 L-58.4821 856.5656 Z" fill-rule="evenodd" clip-path="url(#clipPath2)"/>
    </g>
    <g transform="matrix(2,0,0,2,706,-1374)" fill-opacity="0.8824" fill="rgb(25,25,25)" text-rendering="geometricPrecision" shape-rendering="geometricPrecision" stroke="rgb(25,25,25)" stroke-opacity="0.8824">
      <path d="M3.1339 836.5656 L23.1339 836.5656 L13.1339 856.5656 Z" fill-rule="evenodd" clip-path="url(#clipPath2)" stroke="none"/>
    </g>
    <g stroke-linecap="butt" transform="matrix(2,0,0,2,706,-1374)" fill="yellow" text-rendering="geometricPrecision" shape-rendering="geometricPrecision" stroke="yellow" stroke-miterlimit="1.45">
      <path fill="none" d="M3.1339 836.5656 L23.1339 836.5656 L13.1339 856.5656 Z" fill-rule="evenodd" clip-path="url(#clipPath2)"/>
    </g>
    <g transform="matrix(2,0,0,2,706,-1374)" fill-opacity="0.8824" fill="rgb(25,25,25)" text-rendering="geometricPrecision" shape-rendering="geometricPrecision" stroke="rgb(25,25,25)" stroke-opacity="0.8824">
      <circle r="10" clip-path="url(#clipPath2)" cx="-22.6741" cy="929.7592" stroke="none"/>
    </g>
    <g stroke-linecap="butt" transform="matrix(2,0,0,2,706,-1374)" fill="white" text-rendering="geometricPrecision" shape-rendering="geometricPrecision" stroke="white" stroke-miterlimit="1.45">
      <circle fill="none" r="10" clip-path="url(#clipPath2)" cx="-22.6741" cy="929.7592"/>
    </g>
    <g transform="matrix(2,0,0,2,706,-1374)" fill-opacity="0.8824" fill="rgb(25,25,25)" text-rendering="geometricPrecision" shape-rendering="geometricPrecision" stroke="rgb(25,25,25)" stroke-opacity="0.8824">
      <circle r="10" clip-path="url(#clipPath2)" cx="-22.6741" cy="971.356" stroke="none"/>
    </g>
    <g stroke-linecap="butt" transform="matrix(2,0,0,2,706,-1374)" fill="yellow" text-rendering="geometricPrecision" shape-rendering="geometricPrecision" stroke="yellow" stroke-miterlimit="1.45">
      <circle fill="none" r="10" clip-path="url(#clipPath2)" cx="-22.6741" cy="971.356"/>
    </g>
    <g transform="matrix(2,0,0,2,706,-1374)" fill-opacity="0.8824" fill="rgb(25,25,25)" text-rendering="geometricPrecision" shape-rendering="geometricPrecision" stroke="rgb(25,25,25)" stroke-opacity="0.8824">
      <circle r="10" clip-path="url(#clipPath2)" cx="13.1339" cy="929.7592" stroke="none"/>
    </g>
    <g stroke-linecap="butt" transform="matrix(2,0,0,2,706,-1374)" fill="yellow" text-rendering="geometricPrecision" shape-rendering="geometricPrecision" stroke="yellow" stroke-miterlimit="1.45">
      <circle fill="none" r="10" clip-path="url(#clipPath2)" cx="13.1339" cy="929.7592"/>
    </g>
    <g stroke-linecap="butt" font-size="14px" transform="matrix(2,0,0,2,706,-1374)" fill="red" text-rendering="geometricPrecision" font-family="'Libertinus Serif'" shape-rendering="geometricPrecision" stroke="red" stroke-miterlimit="1.45">
      <text x="134.0222" xml:space="preserve" y="818.7592" clip-path="url(#clipPath2)" stroke="none">transaction C</text>
    </g>
    <g transform="matrix(2,0,0,2,706,-1374)" fill-opacity="0.8824" fill="rgb(25,25,25)" text-rendering="geometricPrecision" shape-rendering="geometricPrecision" stroke="rgb(25,25,25)" stroke-opacity="0.8824">
      <circle r="10" clip-path="url(#clipPath2)" cx="172.459" cy="888.1624" stroke="none"/>
    </g>
    <g stroke-linecap="butt" transform="matrix(2,0,0,2,706,-1374)" fill="white" text-rendering="geometricPrecision" shape-rendering="geometricPrecision" stroke="white" stroke-miterlimit="1.45">
      <circle fill="none" r="10" clip-path="url(#clipPath2)" cx="172.459" cy="888.1624"/>
    </g>
    <g transform="matrix(2,0,0,2,706,-1374)" fill-opacity="0.8824" fill="rgb(25,25,25)" text-rendering="geometricPrecision" shape-rendering="geometricPrecision" stroke="rgb(25,25,25)" stroke-opacity="0.8824">
      <path d="M162.459 836.5656 L182.459 836.5656 L172.459 856.5656 Z" fill-rule="evenodd" clip-path="url(#clipPath2)" stroke="none"/>
    </g>
    <g stroke-linecap="butt" transform="matrix(2,0,0,2,706,-1374)" fill="white" text-rendering="geometricPrecision" shape-rendering="geometricPrecision" stroke="white" stroke-miterlimit="1.45">
      <path fill="none" d="M162.459 836.5656 L182.459 836.5656 L172.459 856.5656 Z" fill-rule="evenodd" clip-path="url(#clipPath2)"/>
    </g>
    <g transform="matrix(2,0,0,2,706,-1374)" fill-opacity="0.8824" fill="rgb(25,25,25)" text-rendering="geometricPrecision" shape-rendering="geometricPrecision" stroke="rgb(25,25,25)" stroke-opacity="0.8824">
      <path d="M126.651 836.5656 L146.651 836.5656 L136.651 856.5656 Z" fill-rule="evenodd" clip-path="url(#clipPath2)" stroke="none"/>
    </g>
    <g stroke-linecap="butt" transform="matrix(2,0,0,2,706,-1374)" fill="red" text-rendering="geometricPrecision" shape-rendering="geometricPrecision" stroke="red" stroke-miterlimit="1.45">
      <path fill="none" d="M126.651 836.5656 L146.651 836.5656 L136.651 856.5656 Z" fill-rule="evenodd" clip-path="url(#clipPath2)"/>
    </g>
    <g transform="matrix(2,0,0,2,706,-1374)" fill-opacity="0.8824" fill="rgb(25,25,25)" text-rendering="geometricPrecision" shape-rendering="geometricPrecision" stroke="rgb(25,25,25)" stroke-opacity="0.8824">
      <path d="M198.267 836.5656 L218.267 836.5656 L208.267 856.5656 Z" fill-rule="evenodd" clip-path="url(#clipPath2)" stroke="none"/>
    </g>
    <g stroke-linecap="butt" transform="matrix(2,0,0,2,706,-1374)" fill="white" text-rendering="geometricPrecision" shape-rendering="geometricPrecision" stroke="white" stroke-miterlimit="1.45">
      <path fill="none" d="M198.267 836.5656 L218.267 836.5656 L208.267 856.5656 Z" fill-rule="evenodd" clip-path="url(#clipPath2)"/>
    </g>
    <g transform="matrix(2,0,0,2,706,-1374)" fill-opacity="0.8824" fill="rgb(25,25,25)" text-rendering="geometricPrecision" shape-rendering="geometricPrecision" stroke="rgb(25,25,25)" stroke-opacity="0.8824">
      <circle r="10" clip-path="url(#clipPath2)" cx="172.459" cy="929.7592" stroke="none"/>
    </g>
    <g stroke-linecap="butt" transform="matrix(2,0,0,2,706,-1374)" fill="red" text-rendering="geometricPrecision" shape-rendering="geometricPrecision" stroke="red" stroke-miterlimit="1.45">
      <circle fill="none" r="10" clip-path="url(#clipPath2)" cx="172.459" cy="929.7592"/>
    </g>
    <g transform="matrix(2,0,0,2,706,-1374)" fill-opacity="0.8824" fill="rgb(25,25,25)" text-rendering="geometricPrecision" shape-rendering="geometricPrecision" stroke="rgb(25,25,25)" stroke-opacity="0.8824">
      <circle r="10" clip-path="url(#clipPath2)" cx="172.459" cy="971.356" stroke="none"/>
    </g>
    <g stroke-linecap="butt" transform="matrix(2,0,0,2,706,-1374)" fill="red" text-rendering="geometricPrecision" shape-rendering="geometricPrecision" stroke="red" stroke-miterlimit="1.45">
      <circle fill="none" r="10" clip-path="url(#clipPath2)" cx="172.459" cy="971.356"/>
    </g>
    <g transform="matrix(2,0,0,2,706,-1374)" fill-opacity="0.8824" fill="rgb(25,25,25)" text-rendering="geometricPrecision" shape-rendering="geometricPrecision" stroke="rgb(25,25,25)" stroke-opacity="0.8824">
      <circle r="10" clip-path="url(#clipPath2)" cx="208.267" cy="929.7592" stroke="none"/>
    </g>
    <g stroke-linecap="butt" transform="matrix(2,0,0,2,706,-1374)" fill="white" text-rendering="geometricPrecision" shape-rendering="geometricPrecision" stroke="white" stroke-miterlimit="1.45">
      <circle fill="none" r="10" clip-path="url(#clipPath2)" cx="208.267" cy="929.7592"/>
    </g>
    <g transform="matrix(2,0,0,2,706,-1374)" fill-opacity="0.8824" fill="rgb(25,25,25)" text-rendering="geometricPrecision" shape-rendering="geometricPrecision" stroke="rgb(25,25,25)" stroke-opacity="0.8824">
      <circle r="10" clip-path="url(#clipPath2)" cx="260.1681" cy="776.6984" stroke="none"/>
    </g>
    <g stroke-linecap="butt" transform="matrix(2,0,0,2,706,-1374)" fill="white" text-rendering="geometricPrecision" shape-rendering="geometricPrecision" stroke="white" stroke-miterlimit="1.45">
      <circle fill="none" r="10" clip-path="url(#clipPath2)" cx="260.1681" cy="776.6984"/>
    </g>
    <g transform="matrix(2,0,0,2,706,-1374)" fill-opacity="0.8824" fill="rgb(25,25,25)" text-rendering="geometricPrecision" shape-rendering="geometricPrecision" stroke="rgb(25,25,25)" stroke-opacity="0.8824">
      <path d="M250.1681 725.1016 L270.1681 725.1016 L260.1681 745.1016 Z" fill-rule="evenodd" clip-path="url(#clipPath2)" stroke="none"/>
    </g>
    <g stroke-linecap="butt" transform="matrix(2,0,0,2,706,-1374)" fill="white" text-rendering="geometricPrecision" shape-rendering="geometricPrecision" stroke="white" stroke-miterlimit="1.45">
      <path fill="none" d="M250.1681 725.1016 L270.1681 725.1016 L260.1681 745.1016 Z" fill-rule="evenodd" clip-path="url(#clipPath2)"/>
    </g>
    <g transform="matrix(2,0,0,2,706,-1374)" fill-opacity="0.8824" fill="rgb(25,25,25)" text-rendering="geometricPrecision" shape-rendering="geometricPrecision" stroke="rgb(25,25,25)" stroke-opacity="0.8824">
      <path d="M214.3601 725.1016 L234.3601 725.1016 L224.3601 745.1016 Z" fill-rule="evenodd" clip-path="url(#clipPath2)" stroke="none"/>
    </g>
    <g stroke-linecap="butt" transform="matrix(2,0,0,2,706,-1374)" fill="white" text-rendering="geometricPrecision" shape-rendering="geometricPrecision" stroke="white" stroke-miterlimit="1.45">
      <path fill="none" d="M214.3601 725.1016 L234.3601 725.1016 L224.3601 745.1016 Z" fill-rule="evenodd" clip-path="url(#clipPath2)"/>
    </g>
    <g transform="matrix(2,0,0,2,706,-1374)" fill-opacity="0.8824" fill="rgb(25,25,25)" text-rendering="geometricPrecision" shape-rendering="geometricPrecision" stroke="rgb(25,25,25)" stroke-opacity="0.8824">
      <circle r="10" clip-path="url(#clipPath2)" cx="260.1681" cy="818.2952" stroke="none"/>
    </g>
    <g stroke-linecap="butt" transform="matrix(2,0,0,2,706,-1374)" fill="white" text-rendering="geometricPrecision" shape-rendering="geometricPrecision" stroke="white" stroke-miterlimit="1.45">
      <circle fill="none" r="10" clip-path="url(#clipPath2)" cx="260.1681" cy="818.2952"/>
    </g>
    <g transform="matrix(2,0,0,2,706,-1374)" fill-opacity="0.8824" fill="rgb(25,25,25)" text-rendering="geometricPrecision" shape-rendering="geometricPrecision" stroke="rgb(25,25,25)" stroke-opacity="0.8824">
      <circle r="10" clip-path="url(#clipPath2)" cx="260.1681" cy="859.892" stroke="none"/>
    </g>
    <g stroke-linecap="butt" transform="matrix(2,0,0,2,706,-1374)" fill="white" text-rendering="geometricPrecision" shape-rendering="geometricPrecision" stroke="white" stroke-miterlimit="1.45">
      <circle fill="none" r="10" clip-path="url(#clipPath2)" cx="260.1681" cy="859.892"/>
    </g>
    <g transform="matrix(2,0,0,2,706,-1374)" fill-opacity="0.8824" fill="rgb(25,25,25)" text-rendering="geometricPrecision" shape-rendering="geometricPrecision" stroke="rgb(25,25,25)" stroke-opacity="0.8824">
      <circle r="10" clip-path="url(#clipPath2)" cx="65.035" cy="776.6984" stroke="none"/>
    </g>
    <g stroke-linecap="butt" transform="matrix(2,0,0,2,706,-1374)" fill="white" text-rendering="geometricPrecision" shape-rendering="geometricPrecision" stroke="white" stroke-miterlimit="1.45">
      <circle fill="none" r="10" clip-path="url(#clipPath2)" cx="65.035" cy="776.6984"/>
    </g>
    <g transform="matrix(2,0,0,2,706,-1374)" fill-opacity="0.8824" fill="rgb(25,25,25)" text-rendering="geometricPrecision" shape-rendering="geometricPrecision" stroke="rgb(25,25,25)" stroke-opacity="0.8824">
      <path d="M55.035 725.1016 L75.035 725.1016 L65.035 745.1016 Z" fill-rule="evenodd" clip-path="url(#clipPath2)" stroke="none"/>
    </g>
    <g stroke-linecap="butt" transform="matrix(2,0,0,2,706,-1374)" fill="white" text-rendering="geometricPrecision" shape-rendering="geometricPrecision" stroke="white" stroke-miterlimit="1.45">
      <path fill="none" d="M55.035 725.1016 L75.035 725.1016 L65.035 745.1016 Z" fill-rule="evenodd" clip-path="url(#clipPath2)"/>
    </g>
    <g transform="matrix(2,0,0,2,706,-1374)" fill-opacity="0.8824" fill="rgb(25,25,25)" text-rendering="geometricPrecision" shape-rendering="geometricPrecision" stroke="rgb(25,25,25)" stroke-opacity="0.8824">
      <path d="M19.227 725.1016 L39.227 725.1016 L29.227 745.1016 Z" fill-rule="evenodd" clip-path="url(#clipPath2)" stroke="none"/>
    </g>
    <g stroke-linecap="butt" transform="matrix(2,0,0,2,706,-1374)" fill="white" text-rendering="geometricPrecision" shape-rendering="geometricPrecision" stroke="white" stroke-miterlimit="1.45">
      <path fill="none" d="M19.227 725.1016 L39.227 725.1016 L29.227 745.1016 Z" fill-rule="evenodd" clip-path="url(#clipPath2)"/>
    </g>
    <g transform="matrix(2,0,0,2,706,-1374)" fill-opacity="0.8824" fill="rgb(25,25,25)" text-rendering="geometricPrecision" shape-rendering="geometricPrecision" stroke="rgb(25,25,25)" stroke-opacity="0.8824">
      <path d="M90.843 725.1016 L110.843 725.1016 L100.843 745.1016 Z" fill-rule="evenodd" clip-path="url(#clipPath2)" stroke="none"/>
    </g>
    <g stroke-linecap="butt" transform="matrix(2,0,0,2,706,-1374)" fill="white" text-rendering="geometricPrecision" shape-rendering="geometricPrecision" stroke="white" stroke-miterlimit="1.45">
      <path fill="none" d="M90.843 725.1016 L110.843 725.1016 L100.843 745.1016 Z" fill-rule="evenodd" clip-path="url(#clipPath2)"/>
    </g>
    <g transform="matrix(2,0,0,2,706,-1374)" fill-opacity="0.8824" fill="rgb(25,25,25)" text-rendering="geometricPrecision" shape-rendering="geometricPrecision" stroke="rgb(25,25,25)" stroke-opacity="0.8824">
      <circle r="10" clip-path="url(#clipPath2)" cx="65.035" cy="818.2952" stroke="none"/>
    </g>
    <g stroke-linecap="butt" transform="matrix(2,0,0,2,706,-1374)" fill="white" text-rendering="geometricPrecision" shape-rendering="geometricPrecision" stroke="white" stroke-miterlimit="1.45">
      <circle fill="none" r="10" clip-path="url(#clipPath2)" cx="65.035" cy="818.2952"/>
    </g>
    <g transform="matrix(2,0,0,2,706,-1374)" fill-opacity="0.8824" fill="rgb(25,25,25)" text-rendering="geometricPrecision" shape-rendering="geometricPrecision" stroke="rgb(25,25,25)" stroke-opacity="0.8824">
      <circle r="10" clip-path="url(#clipPath2)" cx="65.035" cy="859.892" stroke="none"/>
    </g>
    <g stroke-linecap="butt" transform="matrix(2,0,0,2,706,-1374)" fill="white" text-rendering="geometricPrecision" shape-rendering="geometricPrecision" stroke="white" stroke-miterlimit="1.45">
      <circle fill="none" r="10" clip-path="url(#clipPath2)" cx="65.035" cy="859.892"/>
    </g>
    <g transform="matrix(2,0,0,2,706,-1374)" fill-opacity="0.8824" fill="rgb(25,25,25)" text-rendering="geometricPrecision" shape-rendering="geometricPrecision" stroke="rgb(25,25,25)" stroke-opacity="0.8824">
      <circle r="10" clip-path="url(#clipPath2)" cx="100.843" cy="818.2952" stroke="none"/>
    </g>
    <g stroke-linecap="butt" transform="matrix(2,0,0,2,706,-1374)" fill="white" text-rendering="geometricPrecision" shape-rendering="geometricPrecision" stroke="white" stroke-miterlimit="1.45">
      <circle fill="none" r="10" clip-path="url(#clipPath2)" cx="100.843" cy="818.2952"/>
    </g>
    <g transform="matrix(2,0,0,2,706,-1374)" fill-opacity="0.8824" fill="rgb(25,25,25)" text-rendering="geometricPrecision" shape-rendering="geometricPrecision" stroke="rgb(25,25,25)" stroke-opacity="0.8824">
      <path d="M285.9761 725.1016 L305.9761 725.1016 L295.9761 745.1016 Z" fill-rule="evenodd" clip-path="url(#clipPath2)" stroke="none"/>
    </g>
    <g stroke-linecap="butt" transform="matrix(2,0,0,2,706,-1374)" fill="white" text-rendering="geometricPrecision" shape-rendering="geometricPrecision" stroke="white" stroke-miterlimit="1.45">
      <path fill="none" d="M285.9761 725.1016 L305.9761 725.1016 L295.9761 745.1016 Z" fill-rule="evenodd" clip-path="url(#clipPath2)"/>
    </g>
    <g transform="matrix(2,0,0,2,706,-1374)" fill-opacity="0.8824" fill="rgb(25,25,25)" text-rendering="geometricPrecision" shape-rendering="geometricPrecision" stroke="rgb(25,25,25)" stroke-opacity="0.8824">
      <circle r="10" clip-path="url(#clipPath2)" cx="295.9761" cy="818.2952" stroke="none"/>
    </g>
    <g stroke-linecap="butt" transform="matrix(2,0,0,2,706,-1374)" fill="white" text-rendering="geometricPrecision" shape-rendering="geometricPrecision" stroke="white" stroke-miterlimit="1.45">
      <circle fill="none" r="10" clip-path="url(#clipPath2)" cx="295.9761" cy="818.2952"/>
      <text x="-340.8448" font-size="14px" y="705.2653" clip-path="url(#clipPath2)" font-family="'Libertinus Serif'" stroke="none" xml:space="preserve">state ∅</text>
      <text x="-149.813" font-size="14px" y="705.2653" clip-path="url(#clipPath2)" font-family="'Libertinus Serif'" stroke="none" xml:space="preserve">state A</text>
      <text x="40.8221" font-size="14px" y="705.2653" clip-path="url(#clipPath2)" font-family="'Libertinus Serif'" stroke="none" xml:space="preserve">state AB</text>
      <text x="231.4332" font-size="14px" y="705.2653" clip-path="url(#clipPath2)" font-family="'Libertinus Serif'" stroke="none" xml:space="preserve">state ABC</text>
      <path fill="none" d="M-303.2148 745.1353 L-303.2148 758.6984" clip-path="url(#clipPath2)"/>
      <path d="M-303.2148 766.6984 L-298.2148 754.6984 L-303.2148 757.6984 L-308.2148 754.6984 Z" clip-path="url(#clipPath2)" stroke="none"/>
      <path fill="none" d="M-303.2148 786.6984 L-303.2148 800.2952" clip-path="url(#clipPath2)"/>
      <path d="M-303.2148 808.2952 L-298.2148 796.2952 L-303.2148 799.2952 L-308.2148 796.2952 Z" clip-path="url(#clipPath2)" stroke="none"/>
      <path fill="none" d="M-336.9942 741.0693 L-314.806 806.3416" clip-path="url(#clipPath2)"/>
      <path d="M-312.2312 813.9159 L-311.3594 800.9451 L-315.1278 805.3948 L-320.8273 804.1636 Z" clip-path="url(#clipPath2)" stroke="none"/>
      <path fill="none" d="M-303.2148 828.2952 L-303.2148 841.892" clip-path="url(#clipPath2)"/>
      <path d="M-303.2148 849.892 L-298.2148 837.892 L-303.2148 840.892 L-308.2148 837.892 Z" clip-path="url(#clipPath2)" stroke="none"/>
      <path fill="none" d="M-270.7205 783.6301 L-259.6496 789.399 L-250.5537 793.3873 L-241.0023 796.1103 L-230.5791 798.3383 L-220.7863 799.4518 L-210.9663 798.6121 L-208.9343 798.2367 L-199.2633 795.8848 L-189.9175 792.4618 L-179.75 788.079" stroke-width="3" clip-path="url(#clipPath2)" stroke="lime"/>
      <path fill="lime" d="M-167.1232 782.6362 L-183.8668 781.6865 L-177.9291 795.4612 Z" stroke-width="3" clip-path="url(#clipPath2)" stroke="none"/>
      <path fill="none" d="M-222.6736 856.5992 L-222.6736 870.1624" clip-path="url(#clipPath2)" stroke="lime"/>
      <path fill="lime" d="M-222.6736 878.1624 L-217.6736 866.1624 L-222.6736 869.1624 L-227.6736 866.1624 Z" clip-path="url(#clipPath2)" stroke="none"/>
      <path fill="none" d="M-222.6736 898.1624 L-222.6736 911.7592" clip-path="url(#clipPath2)" stroke="lime"/>
      <path fill="lime" d="M-222.6736 919.7592 L-217.6736 907.7592 L-222.6736 910.7592 L-227.6736 907.7592 Z" clip-path="url(#clipPath2)" stroke="none"/>
      <path fill="none" d="M-256.453 852.5333 L-234.2648 917.8056" clip-path="url(#clipPath2)"/>
      <path d="M-231.69 925.3799 L-230.8182 912.4092 L-234.5866 916.8588 L-240.2861 915.6277 Z" clip-path="url(#clipPath2)" stroke="none"/>
      <path fill="none" d="M-188.9008 852.5207 L-211.157 917.6435" clip-path="url(#clipPath2)" stroke="lime"/>
      <path fill="lime" d="M-213.7442 925.2136 L-205.1321 915.4754 L-210.8336 916.6973 L-214.5948 912.2415 Z" clip-path="url(#clipPath2)" stroke="none"/>
      <path fill="none" d="M-222.6736 939.7592 L-222.6736 953.356" clip-path="url(#clipPath2)" stroke="lime"/>
      <path fill="lime" d="M-222.6736 961.356 L-217.6736 949.356 L-222.6736 952.356 L-227.6736 949.356 Z" clip-path="url(#clipPath2)" stroke="none"/>
      <path fill="none" d="M-186.8656 856.5992 L-186.8656 911.7592" clip-path="url(#clipPath2)" stroke="lime"/>
      <path fill="lime" d="M-186.8656 919.7592 L-181.8656 907.7592 L-186.8656 910.7592 L-191.8656 907.7592 Z" clip-path="url(#clipPath2)" stroke="none"/>
      <path fill="none" d="M-193.3896 937.338 L-210.9303 957.7143" clip-path="url(#clipPath2)" stroke="lime"/>
      <path fill="lime" d="M-216.1496 963.7773 L-204.5314 957.9448 L-210.2779 956.9564 L-212.1101 951.4208 Z" clip-path="url(#clipPath2)" stroke="none"/>
    </g>
    <g stroke-linecap="round" transform="matrix(2,0,0,2,706,-1374)" stroke-dashoffset="2" fill="lime" text-rendering="geometricPrecision" shape-rendering="geometricPrecision" stroke-dasharray="0,8" stroke="lime" stroke-width="2" stroke-miterlimit="1.45">
      <path fill="none" d="M-222.616 820.1511 L-222.4564 836.5804" clip-path="url(#clipPath2)"/>
    </g>
    <g stroke-linecap="butt" transform="matrix(2,0,0,2,706,-1374)" fill="white" text-rendering="geometricPrecision" shape-rendering="geometricPrecision" stroke="white" stroke-miterlimit="1.45">
      <path fill="none" d="M-128.3485 745.1353 L-128.3485 758.6984" clip-path="url(#clipPath2)"/>
      <path d="M-128.3485 766.6984 L-123.3485 754.6984 L-128.3485 757.6984 L-133.3485 754.6984 Z" clip-path="url(#clipPath2)" stroke="none"/>
      <path fill="none" d="M-128.3485 786.6984 L-128.3485 800.2952" clip-path="url(#clipPath2)"/>
      <path d="M-128.3485 808.2952 L-123.3485 796.2952 L-128.3485 799.2952 L-133.3485 796.2952 Z" clip-path="url(#clipPath2)" stroke="none"/>
      <path fill="none" d="M-162.1279 741.0693 L-139.9397 806.3416" clip-path="url(#clipPath2)"/>
      <path d="M-137.3649 813.9159 L-136.4931 800.9451 L-140.2615 805.3948 L-145.961 804.1636 Z" clip-path="url(#clipPath2)" stroke="none"/>
      <path fill="none" d="M-94.5757 741.0567 L-116.8319 806.1795" clip-path="url(#clipPath2)"/>
      <path d="M-119.4191 813.7496 L-110.807 804.0114 L-116.5085 805.2333 L-120.2697 800.7775 Z" clip-path="url(#clipPath2)" stroke="none"/>
      <path fill="none" d="M-128.3485 828.2952 L-128.3485 841.892" clip-path="url(#clipPath2)"/>
      <path d="M-128.3485 849.892 L-123.3485 837.892 L-128.3485 840.892 L-133.3485 837.892 Z" clip-path="url(#clipPath2)" stroke="none"/>
      <path fill="none" d="M-92.5405 745.1353 L-92.5405 800.2952" clip-path="url(#clipPath2)"/>
      <path d="M-92.5405 808.2952 L-87.5405 796.2952 L-92.5405 799.2952 L-97.5405 796.2952 Z" clip-path="url(#clipPath2)" stroke="none"/>
      <path fill="none" d="M-99.0645 825.8739 L-116.6052 846.2503" clip-path="url(#clipPath2)"/>
      <path d="M-121.8244 852.3133 L-110.2062 846.4808 L-115.9528 845.4924 L-117.785 839.9568 Z" clip-path="url(#clipPath2)" stroke="none"/>
      <path fill="none" d="M-72.0809 781.3226 L-60.0902 788.7527 L-51.2702 793.2258 L-41.8108 796.1103 L-31.3876 798.3383 L-21.5948 799.4518 L-11.7748 798.6121 L-9.7428 798.2367 L-0.0718 795.8848 L9.274 792.4618 L19.4414 788.079" stroke-width="3" clip-path="url(#clipPath2)" stroke="yellow"/>
      <path fill="yellow" d="M32.0683 782.6362 L15.3247 781.6865 L21.2624 795.4612 Z" stroke-width="3" clip-path="url(#clipPath2)" stroke="none"/>
      <path fill="none" d="M-22.6741 856.5992 L-22.6741 870.1624" clip-path="url(#clipPath2)"/>
      <path d="M-22.6741 878.1624 L-17.6741 866.1624 L-22.6741 869.1624 L-27.6741 866.1624 Z" clip-path="url(#clipPath2)" stroke="none"/>
    </g>
    <g stroke-linecap="round" transform="matrix(2,0,0,2,706,-1374)" stroke-dashoffset="2" fill="yellow" text-rendering="geometricPrecision" shape-rendering="geometricPrecision" stroke-dasharray="0,8" stroke="yellow" stroke-width="2" stroke-miterlimit="1.45">
      <path fill="none" d="M-16.6613 819.6541 L4.0266 838.3397" clip-path="url(#clipPath2)"/>
    </g>
    <g stroke-linecap="butt" transform="matrix(2,0,0,2,706,-1374)" fill="white" text-rendering="geometricPrecision" shape-rendering="geometricPrecision" stroke="white" stroke-miterlimit="1.45">
      <path fill="none" d="M-22.6741 898.1624 L-22.6741 911.7592" clip-path="url(#clipPath2)"/>
      <path d="M-22.6741 919.7592 L-17.6741 907.7592 L-22.6741 910.7592 L-27.6741 907.7592 Z" clip-path="url(#clipPath2)" stroke="none"/>
      <path fill="none" d="M-56.4535 852.5333 L-34.2653 917.8056" clip-path="url(#clipPath2)"/>
      <path d="M-31.6905 925.3799 L-30.8187 912.4092 L-34.5871 916.8588 L-40.2866 915.6277 Z" clip-path="url(#clipPath2)" stroke="none"/>
      <path fill="none" d="M11.0987 852.5207 L-11.1576 917.6435" clip-path="url(#clipPath2)" stroke="yellow"/>
      <path fill="yellow" d="M-13.7447 925.2136 L-5.1327 915.4754 L-10.8342 916.6973 L-14.5953 912.2415 Z" clip-path="url(#clipPath2)" stroke="none"/>
      <path fill="none" d="M-22.6741 939.7592 L-22.6741 953.356" clip-path="url(#clipPath2)"/>
      <path d="M-22.6741 961.356 L-17.6741 949.356 L-22.6741 952.356 L-27.6741 949.356 Z" clip-path="url(#clipPath2)" stroke="none"/>
      <path fill="none" d="M13.1339 856.5992 L13.1339 911.7592" clip-path="url(#clipPath2)" stroke="yellow"/>
      <path fill="yellow" d="M13.1339 919.7592 L18.1339 907.7592 L13.1339 910.7592 L8.1339 907.7592 Z" clip-path="url(#clipPath2)" stroke="none"/>
      <path fill="none" d="M6.6098 937.338 L-10.9309 957.7143" clip-path="url(#clipPath2)" stroke="yellow"/>
      <path fill="yellow" d="M-16.1501 963.7773 L-4.5319 957.9448 L-10.2785 956.9564 L-12.1106 951.4208 Z" clip-path="url(#clipPath2)" stroke="none"/>
      <path fill="none" d="M123.0522 781.3226 L135.0429 788.7527 L143.8629 793.2258 L153.3223 796.1103 L163.7455 798.3383 L173.5383 799.4518 L183.3583 798.6121 L185.3903 798.2367 L195.0613 795.8848 L204.4071 792.4618 L214.5745 788.079" stroke-width="3" clip-path="url(#clipPath2)" stroke="red"/>
      <path fill="red" d="M227.2014 782.6362 L210.4578 781.6865 L216.3955 795.4612 Z" stroke-width="3" clip-path="url(#clipPath2)" stroke="none"/>
      <path fill="none" d="M172.459 856.5992 L172.459 870.1624" clip-path="url(#clipPath2)"/>
      <path d="M172.459 878.1624 L177.459 866.1624 L172.459 869.1624 L167.459 866.1624 Z" clip-path="url(#clipPath2)" stroke="none"/>
    </g>
    <g stroke-linecap="round" transform="matrix(2,0,0,2,706,-1374)" stroke-dashoffset="2" fill="red" text-rendering="geometricPrecision" shape-rendering="geometricPrecision" stroke-dasharray="0,8" stroke="red" stroke-width="2" stroke-miterlimit="1.45">
      <path fill="none" d="M166.4462 819.6541 L145.7583 838.3397" clip-path="url(#clipPath2)"/>
    </g>
    <g stroke-linecap="butt" transform="matrix(2,0,0,2,706,-1374)" fill="white" text-rendering="geometricPrecision" shape-rendering="geometricPrecision" stroke="white" stroke-miterlimit="1.45">
      <path fill="none" d="M172.459 898.1624 L172.459 911.7592" clip-path="url(#clipPath2)"/>
      <path d="M172.459 919.7592 L177.459 907.7592 L172.459 910.7592 L167.459 907.7592 Z" clip-path="url(#clipPath2)" stroke="none"/>
      <path fill="none" d="M138.6796 852.5333 L160.8678 917.8056" clip-path="url(#clipPath2)" stroke="red"/>
      <path fill="red" d="M163.4426 925.3799 L164.3144 912.4092 L160.546 916.8588 L154.8465 915.6277 Z" clip-path="url(#clipPath2)" stroke="none"/>
      <path fill="none" d="M206.2318 852.5207 L183.9756 917.6435" clip-path="url(#clipPath2)" stroke="red"/>
      <path fill="red" d="M181.3884 925.2136 L190.0004 915.4754 L184.299 916.6973 L180.5378 912.2415 Z" clip-path="url(#clipPath2)" stroke="none"/>
      <path fill="none" d="M172.459 939.7592 L172.459 953.356" clip-path="url(#clipPath2)" stroke="red"/>
      <path fill="red" d="M172.459 961.356 L177.459 949.356 L172.459 952.356 L167.459 949.356 Z" clip-path="url(#clipPath2)" stroke="none"/>
      <path fill="none" d="M208.267 856.5992 L208.267 911.7592" clip-path="url(#clipPath2)"/>
      <path d="M208.267 919.7592 L213.267 907.7592 L208.267 910.7592 L203.267 907.7592 Z" clip-path="url(#clipPath2)" stroke="none"/>
      <path fill="none" d="M201.743 937.338 L184.2023 957.7143" clip-path="url(#clipPath2)" stroke="red"/>
      <path fill="red" d="M178.983 963.7773 L190.6012 957.9448 L184.8547 956.9564 L183.0225 951.4208 Z" clip-path="url(#clipPath2)" stroke="none"/>
      <path fill="none" d="M260.1681 745.1353 L260.1681 758.6984" clip-path="url(#clipPath2)"/>
      <path d="M260.1681 766.6984 L265.1681 754.6984 L260.1681 757.6984 L255.1681 754.6984 Z" clip-path="url(#clipPath2)" stroke="none"/>
      <path fill="none" d="M260.1681 786.6984 L260.1681 800.2952" clip-path="url(#clipPath2)"/>
      <path d="M260.1681 808.2952 L265.1681 796.2952 L260.1681 799.2952 L255.1681 796.2952 Z" clip-path="url(#clipPath2)" stroke="none"/>
      <path fill="none" d="M226.3887 741.0693 L248.5769 806.3416" clip-path="url(#clipPath2)"/>
      <path d="M251.1517 813.9159 L252.0235 800.9451 L248.2551 805.3948 L242.5556 804.1636 Z" clip-path="url(#clipPath2)" stroke="none"/>
      <path fill="none" d="M260.1681 828.2952 L260.1681 841.892" clip-path="url(#clipPath2)"/>
      <path d="M260.1681 849.892 L265.1681 837.892 L260.1681 840.892 L255.1681 837.892 Z" clip-path="url(#clipPath2)" stroke="none"/>
      <path fill="none" d="M65.035 745.1353 L65.035 758.6984" clip-path="url(#clipPath2)"/>
      <path d="M65.035 766.6984 L70.035 754.6984 L65.035 757.6984 L60.035 754.6984 Z" clip-path="url(#clipPath2)" stroke="none"/>
      <path fill="none" d="M65.035 786.6984 L65.035 800.2952" clip-path="url(#clipPath2)"/>
      <path d="M65.035 808.2952 L70.035 796.2952 L65.035 799.2952 L60.035 796.2952 Z" clip-path="url(#clipPath2)" stroke="none"/>
      <path fill="none" d="M31.2556 741.0693 L53.4438 806.3416" clip-path="url(#clipPath2)"/>
      <path d="M56.0186 813.9159 L56.8904 800.9451 L53.122 805.3948 L47.4225 804.1636 Z" clip-path="url(#clipPath2)" stroke="none"/>
      <path fill="none" d="M98.8078 741.0567 L76.5516 806.1795" clip-path="url(#clipPath2)"/>
      <path d="M73.9644 813.7496 L82.5765 804.0114 L76.8749 805.2333 L73.1138 800.7775 Z" clip-path="url(#clipPath2)" stroke="none"/>
      <path fill="none" d="M65.035 828.2952 L65.035 841.892" clip-path="url(#clipPath2)"/>
      <path d="M65.035 849.892 L70.035 837.892 L65.035 840.892 L60.035 837.892 Z" clip-path="url(#clipPath2)" stroke="none"/>
      <path fill="none" d="M100.843 745.1353 L100.843 800.2952" clip-path="url(#clipPath2)"/>
      <path d="M100.843 808.2952 L105.843 796.2952 L100.843 799.2952 L95.843 796.2952 Z" clip-path="url(#clipPath2)" stroke="none"/>
      <path fill="none" d="M94.319 825.8739 L76.7783 846.2503" clip-path="url(#clipPath2)"/>
      <path d="M71.559 852.3133 L83.1772 846.4808 L77.4307 845.4924 L75.5985 839.9568 Z" clip-path="url(#clipPath2)" stroke="none"/>
      <path fill="none" d="M295.9761 745.1353 L295.9761 800.2952" clip-path="url(#clipPath2)"/>
      <path d="M295.9761 808.2952 L300.9761 796.2952 L295.9761 799.2952 L290.9761 796.2952 Z" clip-path="url(#clipPath2)" stroke="none"/>
    </g>
  </g>
</svg>
