<?xml version="1.0" encoding="UTF-8" standalone="no"?>
<!DOCTYPE svg PUBLIC "-//W3C//DTD SVG 1.1//EN"
 "http://www.w3.org/Graphics/SVG/1.1/DTD/svg11.dtd">
<!-- Generated by graphviz version 2.43.0 (0)
 -->
<!-- Title: %3 Pages: 1 -->
<svg width="221pt" height="286pt"
 viewBox="0.00 0.00 220.69 285.71" xmlns="http://www.w3.org/2000/svg" xmlns:xlink="http://www.w3.org/1999/xlink">
<g id="graph0" class="graph" transform="scale(1 1) rotate(0) translate(4 281.71)">
<title>%3</title>
<polygon fill="white" stroke="transparent" points="-4,4 -4,-281.71 216.69,-281.71 216.69,4 -4,4"/>
<!-- ∅ -->
<g id="node1" class="node">
<title>∅</title>
<ellipse fill="none" stroke="black" cx="105.99" cy="-21.21" rx="27" ry="21.43"/>
<text text-anchor="middle" x="105.99" y="-16.21" font-family="Libertinus Sans" font-size="20.00">∅</text>
</g>
<!-- A -->
<g id="node2" class="node">
<title>A</title>
<ellipse fill="none" stroke="black" cx="33.99" cy="-99.64" rx="27" ry="21.43"/>
<text text-anchor="middle" x="33.99" y="-94.64" font-family="Libertinus Sans" font-size="20.00">A</text>
</g>
<!-- ∅&#45;&gt;A -->
<g id="edge1" class="edge">
<title>∅&#45;&gt;A</title>
<path fill="none" stroke="black" d="M90.37,-38.8C80.46,-49.31 67.49,-63.09 56.48,-74.77"/>
<polygon fill="black" stroke="black" points="53.89,-72.41 49.58,-82.09 58.99,-77.21 53.89,-72.41"/>
</g>
<!-- B -->
<g id="node3" class="node">
<title>B</title>
<ellipse fill="none" stroke="black" cx="105.99" cy="-99.64" rx="27" ry="21.43"/>
<text text-anchor="middle" x="105.99" y="-94.64" font-family="Libertinus Sans" font-size="20.00">B</text>
</g>
<!-- ∅&#45;&gt;B -->
<g id="edge2" class="edge">
<title>∅&#45;&gt;B</title>
<path fill="none" stroke="black" d="M105.99,-42.69C105.99,-50.55 105.99,-59.7 105.99,-68.29"/>
<polygon fill="black" stroke="black" points="102.49,-68.37 105.99,-78.37 109.49,-68.37 102.49,-68.37"/>
</g>
<!-- C -->
<g id="node4" class="node">
<title>C</title>
<ellipse fill="none" stroke="black" cx="177.99" cy="-99.64" rx="27" ry="21.43"/>
<text text-anchor="middle" x="177.99" y="-94.64" font-family="Libertinus Sans" font-size="20.00">C</text>
</g>
<!-- ∅&#45;&gt;C -->
<g id="edge3" class="edge">
<title>∅&#45;&gt;C</title>
<path fill="none" stroke="black" d="M121.61,-38.8C131.52,-49.31 144.5,-63.09 155.5,-74.77"/>
<polygon fill="black" stroke="black" points="152.99,-77.21 162.4,-82.09 158.09,-72.41 152.99,-77.21"/>
</g>
<!-- AB -->
<g id="node5" class="node">
<title>AB</title>
<ellipse fill="none" stroke="black" cx="28.99" cy="-178.07" rx="28.98" ry="21.43"/>
<text text-anchor="middle" x="28.99" y="-173.07" font-family="Libertinus Sans" font-size="20.00">AB</text>
</g>
<!-- A&#45;&gt;AB -->
<g id="edge4" class="edge">
<title>A&#45;&gt;AB</title>
<path fill="none" stroke="black" d="M32.65,-121.12C32.14,-128.98 31.54,-138.12 30.98,-146.71"/>
<polygon fill="black" stroke="black" points="27.48,-146.59 30.32,-156.79 34.46,-147.04 27.48,-146.59"/>
</g>
<!-- AC -->
<g id="node6" class="node">
<title>AC</title>
<ellipse fill="none" stroke="black" cx="105.99" cy="-178.07" rx="29.9" ry="21.43"/>
<text text-anchor="middle" x="105.99" y="-173.07" font-family="Libertinus Sans" font-size="20.00">AC</text>
</g>
<!-- A&#45;&gt;AC -->
<g id="edge5" class="edge">
<title>A&#45;&gt;AC</title>
<path fill="none" stroke="black" d="M49.61,-117.22C59.29,-127.5 71.9,-140.88 82.74,-152.38"/>
<polygon fill="black" stroke="black" points="80.5,-155.11 89.9,-159.99 85.59,-150.31 80.5,-155.11"/>
</g>
<!-- B&#45;&gt;AB -->
<g id="edge6" class="edge">
<title>B&#45;&gt;AB</title>
<path fill="none" stroke="black" d="M89.66,-116.85C78.91,-127.52 64.67,-141.65 52.68,-153.55"/>
<polygon fill="black" stroke="black" points="50.19,-151.09 45.56,-160.62 55.13,-156.06 50.19,-151.09"/>
</g>
<!-- BC -->
<g id="node7" class="node">
<title>BC</title>
<ellipse fill="none" stroke="black" cx="182.99" cy="-178.07" rx="29.9" ry="21.43"/>
<text text-anchor="middle" x="182.99" y="-173.07" font-family="Libertinus Sans" font-size="20.00">BC</text>
</g>
<!-- B&#45;&gt;BC -->
<g id="edge7" class="edge">
<title>B&#45;&gt;BC</title>
<path fill="none" stroke="black" d="M122.32,-116.85C133,-127.44 147.12,-141.46 159.06,-153.31"/>
<polygon fill="black" stroke="black" points="156.59,-155.79 166.15,-160.35 161.52,-150.82 156.59,-155.79"/>
</g>
<!-- C&#45;&gt;AC -->
<g id="edge8" class="edge">
<title>C&#45;&gt;AC</title>
<path fill="none" stroke="black" d="M162.37,-117.22C152.69,-127.5 140.08,-140.88 129.24,-152.38"/>
<polygon fill="black" stroke="black" points="126.39,-150.31 122.08,-159.99 131.49,-155.11 126.39,-150.31"/>
</g>
<!-- C&#45;&gt;BC -->
<g id="edge9" class="edge">
<title>C&#45;&gt;BC</title>
<path fill="none" stroke="black" d="M179.33,-121.12C179.85,-128.98 180.44,-138.12 181.01,-146.71"/>
<polygon fill="black" stroke="black" points="177.52,-147.04 181.67,-156.79 184.5,-146.59 177.52,-147.04"/>
</g>
<!-- ABC -->
<g id="node8" class="node">
<title>ABC</title>
<ellipse fill="none" stroke="black" cx="105.99" cy="-256.49" rx="38.78" ry="21.43"/>
<text text-anchor="middle" x="105.99" y="-251.49" font-family="Libertinus Sans" font-size="20.00">ABC</text>
</g>
<!-- AB&#45;&gt;ABC -->
<g id="edge10" class="edge">
<title>AB&#45;&gt;ABC</title>
<path fill="none" stroke="black" d="M45.7,-195.65C55.93,-205.81 69.22,-219 80.73,-230.41"/>
<polygon fill="black" stroke="black" points="78.41,-233.05 87.97,-237.61 83.34,-228.08 78.41,-233.05"/>
</g>
<!-- AC&#45;&gt;ABC -->
<g id="edge11" class="edge">
<title>AC&#45;&gt;ABC</title>
<path fill="none" stroke="black" d="M105.99,-199.55C105.99,-207.41 105.99,-216.55 105.99,-225.14"/>
<polygon fill="black" stroke="black" points="102.49,-225.22 105.99,-235.22 109.49,-225.22 102.49,-225.22"/>
</g>
<!-- BC&#45;&gt;ABC -->
<g id="edge12" class="edge">
<title>BC&#45;&gt;ABC</title>
<path fill="none" stroke="black" d="M166.28,-195.65C156.05,-205.81 142.76,-219 131.26,-230.41"/>
<polygon fill="black" stroke="black" points="128.64,-228.08 124.01,-237.61 133.57,-233.05 128.64,-228.08"/>
</g>
</g>
</svg>
