<?xml version="1.0" encoding="UTF-8"?><svg xmlns="http://www.w3.org/2000/svg" xmlns:xlink="http://www.w3.org/1999/xlink" fill-opacity="1" color-rendering="auto" color-interpolation="auto" text-rendering="auto" stroke="black" stroke-linecap="square" width="930" stroke-miterlimit="10" shape-rendering="auto" stroke-opacity="1" fill="black" stroke-dasharray="none" font-weight="normal" stroke-width="1" height="508" font-family="'Dialog'" font-style="normal" stroke-linejoin="miter" font-size="12px" stroke-dashoffset="0" image-rendering="auto">
  <!--Generated by ySVG 2.5-->
  <defs id="genericDefs"/>
  <g>
    <g fill="rgb(25,25,25)" text-rendering="geometricPrecision" shape-rendering="geometricPrecision" transform="scale(2,2) translate(1454,-768)" stroke="rgb(25,25,25)">
      <rect x="-1454" width="465" height="254" y="768" clip-path="url(#clipPath2)" stroke="none"/>
    </g>
    <g id="y.node.0">
      <g>
        <g stroke-linecap="butt" font-size="14px" transform="matrix(2,0,0,2,2908,-1536)" fill="white" text-rendering="geometricPrecision" font-family="'Libertinus Serif'" shape-rendering="geometricPrecision" stroke="white" stroke-miterlimit="1.45">
          <text x="-1300.9147" xml:space="preserve" y="1008.4377" stroke="none">∅</text>
        </g>
      </g>
    </g>
    <g id="y.node.1">
      <g transform="matrix(2,0,0,2,2908,-1536)" fill-opacity="0.8824" fill="rgb(25,25,25)" text-rendering="geometricPrecision" shape-rendering="geometricPrecision" stroke="rgb(25,25,25)" stroke-opacity="0.8824">
        <rect x="-1255.1899" width="30" height="30" y="988.9017" stroke="none"/>
      </g>
      <g stroke-linecap="butt" transform="matrix(2,0,0,2,2908,-1536)" fill="white" text-rendering="geometricPrecision" shape-rendering="geometricPrecision" stroke="white" stroke-miterlimit="1.45">
        <rect fill="none" x="-1255.1899" width="30" height="30" y="988.9017"/>
      </g>
      <g/>
    </g>
    <g id="y.node.2">
      <g transform="matrix(2,0,0,2,2908,-1536)" fill-opacity="0.8824" fill="rgb(25,25,25)" text-rendering="geometricPrecision" shape-rendering="geometricPrecision" stroke="rgb(25,25,25)" stroke-opacity="0.8824">
        <rect x="-1181.9845" y="988.9017" width="30" rx="4" ry="4" height="30" stroke="none"/>
      </g>
      <g stroke-linecap="butt" transform="matrix(2,0,0,2,2908,-1536)" fill="white" text-rendering="geometricPrecision" shape-rendering="geometricPrecision" stroke="white" stroke-miterlimit="1.45">
        <rect x="-1181.9845" y="988.9017" fill="none" width="30" rx="4" ry="4" height="30"/>
      </g>
      <g/>
    </g>
    <g id="y.node.3">
      <g fill="purple" text-rendering="geometricPrecision" shape-rendering="geometricPrecision" transform="matrix(2,0,0,2,2908,-1536)" stroke="purple">
        <rect x="-1038.808" y="988.9017" width="30" rx="4" ry="4" height="30" stroke="none"/>
      </g>
      <g stroke-linecap="butt" transform="matrix(2,0,0,2,2908,-1536)" fill="rgb(255,204,0)" text-rendering="geometricPrecision" shape-rendering="geometricPrecision" stroke="rgb(255,204,0)" stroke-miterlimit="1.45">
        <rect x="-1038.808" y="988.9017" fill="none" width="30" rx="4" ry="4" height="30"/>
      </g>
      <g/>
    </g>
    <g id="y.node.4">
      <g transform="matrix(2,0,0,2,2908,-1536)" fill-opacity="0.8824" fill="rgb(25,25,25)" text-rendering="geometricPrecision" shape-rendering="geometricPrecision" stroke="rgb(25,25,25)" stroke-opacity="0.8824">
        <rect x="-1108.7791" y="988.9017" width="30" rx="4" ry="4" height="30" stroke="none"/>
      </g>
      <g stroke-linecap="butt" transform="matrix(2,0,0,2,2908,-1536)" fill="rgb(255,204,0)" text-rendering="geometricPrecision" shape-rendering="geometricPrecision" stroke="rgb(255,204,0)" stroke-miterlimit="1.45">
        <rect x="-1108.7791" y="988.9017" fill="none" width="30" rx="4" ry="4" height="30"/>
      </g>
      <g/>
    </g>
    <g id="y.node.5">
      <g>
        <g stroke-linecap="butt" font-size="14px" transform="matrix(2,0,0,2,2908,-1536)" fill="white" text-rendering="geometricPrecision" font-family="'Libertinus Serif'" shape-rendering="geometricPrecision" stroke="white" stroke-miterlimit="1.45">
          <text x="-1300.9147" xml:space="preserve" y="887.4809" stroke="none">∅</text>
        </g>
      </g>
    </g>
    <g id="y.node.6">
      <g>
        <g stroke-linecap="butt" font-size="14px" transform="matrix(2,0,0,2,2908,-1536)" fill="white" text-rendering="geometricPrecision" font-family="'Libertinus Serif'" shape-rendering="geometricPrecision" stroke="white" stroke-miterlimit="1.45">
          <text x="-1325.4425" xml:space="preserve" y="790.9337" stroke="none">consistent</text>
        </g>
      </g>
    </g>
    <g id="y.node.7">
      <g>
        <g stroke-linecap="butt" font-size="14px" transform="matrix(2,0,0,2,2908,-1536)" fill="white" text-rendering="geometricPrecision" font-family="'Libertinus Serif'" shape-rendering="geometricPrecision" stroke="white" stroke-miterlimit="1.45">
          <text x="-1208.3124" xml:space="preserve" y="790.9337" stroke="none">diverge</text>
        </g>
      </g>
    </g>
    <g id="y.node.8">
      <g transform="matrix(2,0,0,2,2908,-1536)" fill-opacity="0.8824" fill="rgb(25,25,25)" text-rendering="geometricPrecision" shape-rendering="geometricPrecision" stroke="rgb(25,25,25)" stroke-opacity="0.8824">
        <rect x="-1255.1899" width="30" height="30" y="831.3977" stroke="none"/>
      </g>
      <g stroke-linecap="butt" transform="matrix(2,0,0,2,2908,-1536)" fill="white" text-rendering="geometricPrecision" shape-rendering="geometricPrecision" stroke="white" stroke-miterlimit="1.45">
        <rect fill="none" x="-1255.1899" width="30" height="30" y="831.3977"/>
      </g>
      <g/>
    </g>
    <g id="y.node.9">
      <g transform="matrix(2,0,0,2,2908,-1536)" fill-opacity="0.8824" fill="rgb(25,25,25)" text-rendering="geometricPrecision" shape-rendering="geometricPrecision" stroke="rgb(25,25,25)" stroke-opacity="0.8824">
        <circle r="15" cx="-1204.8983" cy="919.4921" stroke="none"/>
      </g>
      <g stroke-linecap="butt" transform="matrix(2,0,0,2,2908,-1536)" fill="white" text-rendering="geometricPrecision" shape-rendering="geometricPrecision" stroke="white" stroke-miterlimit="1.45">
        <circle fill="none" r="15" cx="-1204.8983" cy="919.4921"/>
      </g>
      <g/>
    </g>
    <g id="y.node.10">
      <g fill="purple" text-rendering="geometricPrecision" shape-rendering="geometricPrecision" transform="matrix(2,0,0,2,2908,-1536)" stroke="purple">
        <rect x="-1187.0577" width="30" height="30" y="831.3977" stroke="none"/>
      </g>
      <g stroke-linecap="butt" transform="matrix(2,0,0,2,2908,-1536)" fill="white" text-rendering="geometricPrecision" shape-rendering="geometricPrecision" stroke="white" stroke-miterlimit="1.45">
        <rect fill="none" x="-1187.0577" width="30" height="30" y="831.3977"/>
      </g>
      <g/>
    </g>
    <g id="y.node.11">
      <g transform="matrix(2,0,0,2,2908,-1536)" fill-opacity="0.8824" fill="rgb(25,25,25)" text-rendering="geometricPrecision" shape-rendering="geometricPrecision" stroke="rgb(25,25,25)" stroke-opacity="0.8824">
        <circle r="15" cx="-1146.2929" cy="919.4921" stroke="none"/>
      </g>
      <g stroke-linecap="butt" transform="matrix(2,0,0,2,2908,-1536)" fill="rgb(255,204,0)" text-rendering="geometricPrecision" shape-rendering="geometricPrecision" stroke="rgb(255,204,0)" stroke-miterlimit="1.45">
        <circle fill="none" r="15" cx="-1146.2929" cy="919.4921"/>
      </g>
      <g/>
    </g>
    <g id="y.node.12">
      <g transform="matrix(2,0,0,2,2908,-1536)" fill-opacity="0.8824" fill="rgb(25,25,25)" text-rendering="geometricPrecision" shape-rendering="geometricPrecision" stroke="rgb(25,25,25)" stroke-opacity="0.8824">
        <rect x="-1101.2929" y="904.4921" width="30" rx="4" ry="4" height="30" stroke="none"/>
      </g>
      <g stroke-linecap="butt" transform="matrix(2,0,0,2,2908,-1536)" fill="rgb(255,204,0)" text-rendering="geometricPrecision" shape-rendering="geometricPrecision" stroke="rgb(255,204,0)" stroke-miterlimit="1.45">
        <rect x="-1101.2929" y="904.4921" fill="none" width="30" rx="4" ry="4" height="30"/>
      </g>
      <g/>
    </g>
    <g id="y.node.13">
      <g>
        <g stroke-linecap="butt" font-size="14px" transform="matrix(2,0,0,2,2908,-1536)" fill="white" text-rendering="geometricPrecision" font-family="'Libertinus Serif'" shape-rendering="geometricPrecision" stroke="white" stroke-miterlimit="1.45">
          <text x="-1052.83" xml:space="preserve" y="790.9337" stroke="none">consistent</text>
        </g>
      </g>
    </g>
    <g id="y.node.14">
      <g fill="purple" text-rendering="geometricPrecision" shape-rendering="geometricPrecision" transform="matrix(2,0,0,2,2908,-1536)" stroke="purple">
        <rect x="-1038.808" y="867.9449" width="30" rx="4" ry="4" height="30" stroke="none"/>
      </g>
      <g stroke-linecap="butt" transform="matrix(2,0,0,2,2908,-1536)" fill="rgb(255,204,0)" text-rendering="geometricPrecision" shape-rendering="geometricPrecision" stroke="rgb(255,204,0)" stroke-miterlimit="1.45">
        <rect x="-1038.808" y="867.9449" fill="none" width="30" rx="4" ry="4" height="30"/>
      </g>
      <g/>
    </g>
    <g id="y.node.15">
      <g>
        <g stroke-linecap="butt" font-size="14px" transform="matrix(2,0,0,2,2908,-1536)" fill="white" text-rendering="geometricPrecision" font-family="'Libertinus Serif'" shape-rendering="geometricPrecision" stroke="white" stroke-miterlimit="1.45">
          <text x="-1104.1848" xml:space="preserve" y="790.9337" stroke="none">merge</text>
        </g>
      </g>
    </g>
    <g id="y.node.16">
      <g fill="purple" text-rendering="geometricPrecision" shape-rendering="geometricPrecision" transform="matrix(2,0,0,2,2908,-1536)" stroke="purple">
        <rect x="-1101.2929" y="831.3977" width="30" rx="4" ry="4" height="30" stroke="none"/>
      </g>
      <g stroke-linecap="butt" transform="matrix(2,0,0,2,2908,-1536)" fill="rgb(255,204,0)" text-rendering="geometricPrecision" shape-rendering="geometricPrecision" stroke="rgb(255,204,0)" stroke-miterlimit="1.45">
        <rect x="-1101.2929" y="831.3977" fill="none" width="30" rx="4" ry="4" height="30"/>
      </g>
      <g/>
    </g>
    <g id="y.node.17">
      <g>
        <g stroke-linecap="butt" font-size="14px" transform="matrix(2,0,0,2,2908,-1536)" fill="white" text-rendering="geometricPrecision" font-family="'Libertinus Serif'" shape-rendering="geometricPrecision" stroke="white" stroke-miterlimit="1.45">
          <text x="-1439.913" xml:space="preserve" y="1008.4377" stroke="none">Centralized</text>
        </g>
      </g>
    </g>
    <g id="y.node.18">
      <a target="_blank" xlink:type="simple" xlink:href="https://www.vecteezy.com/free-vector/iot-devices" xlink:show="new">
        <g text-rendering="geometricPrecision" shape-rendering="geometricPrecision" transform="matrix(0.2377,0,0,0.2377,145.1586,126.7954)">
          <g>
            <svg xmlns:svg="http://www.w3.org/2000/svg" xmlns:sodipodi="http://sodipodi.sourceforge.net/DTD/sodipodi-0.dtd" xmlns:inkscape="http://www.inkscape.org/namespaces/inkscape" xmlns:dc="http://purl.org/dc/elements/1.1/" xmlns:cc="http://creativecommons.org/ns#" xmlns:rdf="http://www.w3.org/1999/02/22-rdf-syntax-ns#" opacity="1" writing-mode="lr-tb" stop-color="rgb(0, 0, 0)" shape-rendering="auto" glyph-orientation-horizontal="0deg" color-profile="auto" lighting-color="rgb(255, 255, 255)" color="rgb(0, 0, 0)" font-weight="400" alignment-baseline="auto" font-style="normal" version="1.1" color-interpolation-filters="linearrgb" text-anchor="start" stroke-linecap="butt" color-interpolation="srgb" font-variant="normal" word-spacing="normal" fill-opacity="1" text-rendering="auto" clip-path="none" text-decoration="none" letter-spacing="normal" viewBox="0 0 89.036179 89.036179" glyph-orientation-vertical="auto" display="inline" font-size-adjust="none" overflow="hidden" fill="rgb(0, 0, 0)" font-stretch="normal" stroke-dasharray="none" inkscape:version="1.0.1 (3bc2e813f5, 2020-09-07)" id="svg1.svg5390" stroke-miterlimit="4" stop-opacity="1" color-rendering="auto" font-size="12" pointer-events="visiblepainted" mask="none" direction="ltr" baseline-shift="baseline" sodipodi:docname="desk.svg" enable-background="accumulate" fill-rule="nonzero" image-rendering="auto" stroke-dashoffset="0" marker-end="none" width="89.036179mm" clip="auto" cursor="auto" stroke="none" filter="none" visibility="visible" kerning="auto" stroke-width="1" font-family="&quot;Arial&quot;,&quot;Helvetica&quot;,sans-serif" flood-opacity="1" clip-rule="nonzero" src="none" height="89.036179mm" unicode-bidi="normal" stroke-linejoin="miter" stroke-opacity="1" flood-color="rgb(0, 0, 0)" dominant-baseline="auto" marker-start="none" marker-mid="none">
                
              <defs id="svg1.defs5384">
                <clipPath clipPathUnits="userSpaceOnUse" id="clipPath1">
                  <path d="M0 0 L930 0 L930 508 L0 508 L0 0 Z"/>
                </clipPath>
                <clipPath clipPathUnits="userSpaceOnUse" id="clipPath2">
                  <path d="M-1454 768 L-989 768 L-989 1022 L-1454 1022 L-1454 768 Z"/>
                </clipPath>
              </defs>
                
  
              <metadata id="svg1.metadata5387">
    
  </metadata>
                
              <g inkscape:groupmode="layer" id="svg1.layer1" transform="translate(-33.236457,-70.83168)" inkscape:label="Layer 1">
                    
                <circle r="43.74659" id="svg1.path6047" style="fill:#ffffff;fill-opacity:1;stroke:#0e212f;stroke-width:1.543;stroke-miterlimit:10;stroke-opacity:1" cx="77.754547" cy="115.34977"/>
                    
                <g id="svg1.g6565" transform="matrix(0.35277777,0,0,-0.35277777,-758.9716,390.54796)">
                        
                  <g id="svg1.g1190" transform="scale(0.150399)">
                            
                    <path style="fill:#2e798a;fill-opacity:1;fill-rule:nonzero;stroke:none" d="m 16300,5516.76 v -521.07 c 0,-31.08 -25.2,-56.27 -56.3,-56.27 h -947 c -31,0 -56.3,25.19 -56.3,56.27 v 521.07 c 0,31.05 25.3,56.26 56.3,56.26 h 947 c 31.1,0 56.3,-25.21 56.3,-56.26" id="svg1.path1192"/>
                          
                  </g>
                        
                  <g id="svg1.g1194" transform="scale(0.150399)">
                            
                    <path style="fill:none;stroke:#0e212f;stroke-width:29.0726;stroke-linecap:round;stroke-linejoin:round;stroke-miterlimit:10;stroke-dasharray:none;stroke-opacity:1" d="m 16300,5516.76 v -521.07 c 0,-31.08 -25.2,-56.27 -56.3,-56.27 h -947 c -31,0 -56.3,25.19 -56.3,56.27 v 521.07 c 0,31.05 25.3,56.26 56.3,56.26 h 947 c 31.1,0 56.3,-25.21 56.3,-56.26 z" id="svg1.path1196"/>
                          
                  </g>
                        
                  <g id="svg1.g1198" transform="scale(0.149645)">
                            
                    <path style="fill:#ffffff;fill-opacity:1;fill-rule:nonzero;stroke:none" d="m 16300,5028.69 h -900.7 v 439 h 900.7 v -439" id="svg1.path1200"/>
                          
                  </g>
                        
                  <g id="svg1.g1202" transform="scale(0.149645)">
                            
                    <path style="fill:none;stroke:#0e212f;stroke-width:29.2191;stroke-linecap:round;stroke-linejoin:round;stroke-miterlimit:10;stroke-dasharray:none;stroke-opacity:1" d="m 16300,5028.69 h -900.7 v 439 h 900.7 z" id="svg1.path1204"/>
                          
                  </g>
                        
                  <g id="svg1.g1206" transform="scale(0.150399)">
                            
                    <path style="fill:#5ec9ca;fill-opacity:1;fill-rule:nonzero;stroke:none" d="m 16300,5516.76 v -76.46 c 0,0 -1059.6,2.68 -1059.6,0 v 76.46 c 0,31.05 25.3,56.26 56.3,56.26 h 947 c 31.1,0 56.3,-25.21 56.3,-56.26" id="svg1.path1208"/>
                          
                  </g>
                        
                  <g id="svg1.g1210" transform="scale(0.150399)">
                            
                    <path style="fill:none;stroke:#0e212f;stroke-width:29.0726;stroke-linecap:round;stroke-linejoin:round;stroke-miterlimit:10;stroke-dasharray:none;stroke-opacity:1" d="m 16300,5516.76 v -76.46 c 0,0 -1059.6,2.68 -1059.6,0 v 76.46 c 0,31.05 25.3,56.26 56.3,56.26 h 947 c 31.1,0 56.3,-25.21 56.3,-56.26 z" id="svg1.path1212"/>
                          
                  </g>
                        
                  <g id="svg1.g1214" transform="scale(0.147694)">
                            
                    <path style="fill:#2e798a;fill-opacity:1;fill-rule:nonzero;stroke:none" d="m 16300,4888.5 h -515.5 v 63.06 h 515.5 v -63.06" id="svg1.path1216"/>
                          
                  </g>
                        
                  <g id="svg1.g1218" transform="scale(0.147694)">
                            
                    <path style="fill:none;stroke:#0e212f;stroke-width:29.605;stroke-linecap:round;stroke-linejoin:round;stroke-miterlimit:10;stroke-dasharray:none;stroke-opacity:1" d="m 16300,4888.5 h -515.5 v 63.06 h 515.5 z" id="svg1.path1220"/>
                          
                  </g>
                        
                  <g id="svg1.g1222" transform="scale(0.146452)">
                            
                    <path style="fill:#5ec9ca;fill-opacity:1;fill-rule:nonzero;stroke:none" d="m 16300,4993.58 h -243.2 v 78.99 h 243.2 v -78.99" id="svg1.path1224"/>
                          
                  </g>
                        
                  <g id="svg1.g1226" transform="scale(0.146452)">
                            
                    <path style="fill:none;stroke:#0e212f;stroke-width:29.8563;stroke-linecap:round;stroke-linejoin:round;stroke-miterlimit:10;stroke-dasharray:none;stroke-opacity:1" d="m 16300,4993.58 h -243.2 v 78.99 h 243.2 z" id="svg1.path1228"/>
                          
                  </g>
                        
                  <g id="svg1.g1230" transform="scale(0.142699)">
                            
                    <path style="fill:#ffffff;fill-opacity:1;fill-rule:nonzero;stroke:none" d="m 16240.3,5592.07 c 35,-14.12 59.7,-48.36 59.7,-88.42 0,-39.44 -24,-73.34 -58.2,-87.78" id="svg1.path1232"/>
                          
                  </g>
                        
                  <g id="svg1.g1234" transform="scale(0.142699)">
                            
                    <path style="fill:none;stroke:#0e212f;stroke-width:30.6415;stroke-linecap:round;stroke-linejoin:round;stroke-miterlimit:10;stroke-dasharray:none;stroke-opacity:1" d="m 16240.3,5592.07 c 35,-14.12 59.7,-48.36 59.7,-88.42 0,-39.44 -24,-73.34 -58.2,-87.78" id="svg1.path1236"/>
                          
                  </g>
                        
                  <g id="svg1.g1238" transform="scale(0.143375)">
                            
                    <path style="fill:none;stroke:#0e212f;stroke-width:30.497;stroke-linecap:round;stroke-linejoin:round;stroke-miterlimit:10;stroke-dasharray:none;stroke-opacity:1" d="m 16209.4,5611.49 c 53.1,-21.46 90.6,-73.46 90.6,-134.22 0,-59.9 -36.5,-111.32 -88.4,-133.3" id="svg1.path1240"/>
                          
                  </g>
                        
                  <g id="svg1.g1242" transform="scale(0.144)">
                            
                    <path style="fill:none;stroke:#0e212f;stroke-width:30.3646;stroke-linecap:round;stroke-linejoin:round;stroke-miterlimit:10;stroke-dasharray:none;stroke-opacity:1" d="m 16181.4,5629.04 c 69.5,-28.03 118.6,-96.12 118.6,-175.71 0,-78.44 -47.7,-145.75 -115.7,-174.5" id="svg1.path1244"/>
                          
                  </g>
                        
                  <g id="svg1.g1246" transform="scale(0.148696)">
                            
                    <path style="fill:#5ec9ca;fill-opacity:1;fill-rule:nonzero;stroke:none" d="m 16300,5390.36 c 0,-13.41 -10.8,-24.26 -24.2,-24.26 h -366.1 c -13.3,0 -24.2,10.85 -24.2,24.26 v 0 c 0,13.39 10.9,24.19 24.2,24.19 h 366.1 c 13.4,0 24.2,-10.8 24.2,-24.19 v 0" id="svg1.path1248"/>
                          
                  </g>
                        
                  <g id="svg1.g1250" transform="scale(0.148696)">
                            
                    <path style="fill:none;stroke:#0e212f;stroke-width:29.4056;stroke-linecap:round;stroke-linejoin:round;stroke-miterlimit:10;stroke-dasharray:none;stroke-opacity:1" d="m 16300,5390.36 c 0,-13.41 -10.8,-24.26 -24.2,-24.26 h -366.1 c -13.3,0 -24.2,10.85 -24.2,24.26 v 0 c 0,13.39 10.9,24.19 24.2,24.19 h 366.1 c 13.4,0 24.2,-10.8 24.2,-24.19 z" id="svg1.path1252"/>
                          
                  </g>
                        
                  <g id="svg1.g1254" transform="scale(0.148696)">
                            
                    <path style="fill:#5ec9ca;fill-opacity:1;fill-rule:nonzero;stroke:none" d="m 16300,5273.25 c 0,-13.37 -10.8,-24.19 -24.2,-24.19 h -366.1 c -13.3,0 -24.2,10.82 -24.2,24.19 v 0 c 0,13.42 10.9,24.25 24.2,24.25 h 366.1 c 13.4,0 24.2,-10.83 24.2,-24.25 v 0" id="svg1.path1256"/>
                          
                  </g>
                        
                  <g id="svg1.g1258" transform="scale(0.148696)">
                            
                    <path style="fill:none;stroke:#0e212f;stroke-width:29.4056;stroke-linecap:round;stroke-linejoin:round;stroke-miterlimit:10;stroke-dasharray:none;stroke-opacity:1" d="m 16300,5273.25 c 0,-13.37 -10.8,-24.19 -24.2,-24.19 h -366.1 c -13.3,0 -24.2,10.82 -24.2,24.19 v 0 c 0,13.42 10.9,24.25 24.2,24.25 h 366.1 c 13.4,0 24.2,-10.83 24.2,-24.25 z" id="svg1.path1260"/>
                          
                  </g>
                        
                  <g id="svg1.g1262" transform="scale(0.148696)">
                            
                    <path style="fill:#5ec9ca;fill-opacity:1;fill-rule:nonzero;stroke:none" d="m 16300,5145.99 c 0,-13.4 -10.8,-24.25 -24.2,-24.25 h -366.1 c -13.3,0 -24.2,10.85 -24.2,24.25 v 0 c 0,13.36 10.9,24.19 24.2,24.19 h 366.1 c 13.4,0 24.2,-10.83 24.2,-24.19 v 0" id="svg1.path1264"/>
                          
                  </g>
                        
                  <g id="svg1.g1266" transform="scale(0.148696)">
                            
                    <path style="fill:none;stroke:#0e212f;stroke-width:29.4056;stroke-linecap:round;stroke-linejoin:round;stroke-miterlimit:10;stroke-dasharray:none;stroke-opacity:1" d="m 16300,5145.99 c 0,-13.4 -10.8,-24.25 -24.2,-24.25 h -366.1 c -13.3,0 -24.2,10.85 -24.2,24.25 v 0 c 0,13.36 10.9,24.19 24.2,24.19 h 366.1 c 13.4,0 24.2,-10.83 24.2,-24.19 z" id="svg1.path1268"/>
                          
                  </g>
                      
                </g>
                  
              </g>
              
            </svg>
          </g>
        </g>
        <g>
          <g stroke-linecap="butt" font-size="14px" transform="matrix(2,0,0,2,2908,-1536)" fill="white" text-rendering="geometricPrecision" font-family="'Libertinus Serif'" shape-rendering="geometricPrecision" stroke="white" stroke-miterlimit="1.45">
            <text x="-1436.5045" xml:space="preserve" y="855.9337" stroke="none">Device 1</text>
          </g>
        </g>
      </a>
    </g>
    <g id="y.node.19">
      <a target="_blank" xlink:type="simple" xlink:href="https://www.vecteezy.com/free-vector/iot-devices" xlink:show="new">
        <g text-rendering="geometricPrecision" shape-rendering="geometricPrecision" transform="matrix(0.2377,0,0,0.2377,140.4179,272.9842)">
          <g>
            <svg xmlns:svg="http://www.w3.org/2000/svg" xmlns:sodipodi="http://sodipodi.sourceforge.net/DTD/sodipodi-0.dtd" xmlns:inkscape="http://www.inkscape.org/namespaces/inkscape" xmlns:dc="http://purl.org/dc/elements/1.1/" xmlns:cc="http://creativecommons.org/ns#" xmlns:rdf="http://www.w3.org/1999/02/22-rdf-syntax-ns#" opacity="1" writing-mode="lr-tb" stop-color="rgb(0, 0, 0)" shape-rendering="auto" glyph-orientation-horizontal="0deg" color-profile="auto" lighting-color="rgb(255, 255, 255)" color="rgb(0, 0, 0)" font-weight="400" alignment-baseline="auto" font-style="normal" version="1.1" color-interpolation-filters="linearrgb" text-anchor="start" stroke-linecap="butt" color-interpolation="srgb" font-variant="normal" word-spacing="normal" fill-opacity="1" text-rendering="auto" clip-path="none" text-decoration="none" letter-spacing="normal" viewBox="0 0 89.036179 89.036179" glyph-orientation-vertical="auto" display="inline" font-size-adjust="none" overflow="hidden" fill="rgb(0, 0, 0)" font-stretch="normal" stroke-dasharray="none" inkscape:version="1.0.1 (3bc2e813f5, 2020-09-07)" id="svg2.svg5390" stroke-miterlimit="4" stop-opacity="1" color-rendering="auto" font-size="12" pointer-events="visiblepainted" mask="none" direction="ltr" baseline-shift="baseline" sodipodi:docname="phone.svg" enable-background="accumulate" fill-rule="nonzero" image-rendering="auto" stroke-dashoffset="0" marker-end="none" width="89.036179mm" clip="auto" cursor="auto" stroke="none" filter="none" visibility="visible" kerning="auto" stroke-width="1" font-family="&quot;Arial&quot;,&quot;Helvetica&quot;,sans-serif" flood-opacity="1" clip-rule="nonzero" src="none" height="89.036179mm" unicode-bidi="normal" stroke-linejoin="miter" stroke-opacity="1" flood-color="rgb(0, 0, 0)" dominant-baseline="auto" marker-start="none" marker-mid="none">
                
              <defs id="svg2.defs5384"/>
                
  
              <metadata id="svg2.metadata5387">
    
  </metadata>
                
              <g inkscape:groupmode="layer" id="svg2.layer1" transform="translate(-33.236457,-70.83168)" inkscape:label="Layer 1">
                    
                <circle r="43.74659" id="svg2.path6047" style="fill:#ffffff;fill-opacity:1;stroke:#0e212f;stroke-width:1.543;stroke-miterlimit:10;stroke-opacity:1" cx="77.754547" cy="115.34977"/>
                    
                <g style="opacity:1" id="svg2.g6251" transform="matrix(0.35277777,0,0,-0.35277777,-9.4041398,577.9402)">
                        
                  <path style="fill:#2e798a;fill-opacity:1;fill-rule:nonzero;stroke:none;stroke-width:0.1" d="m 253.723,1248.74 c 0,-4.76 -3.857,-8.62 -8.617,-8.62 h -69.102 c -4.76,0 -8.619,3.86 -8.619,8.62 v 125.08 c 0,4.76 3.859,8.62 8.619,8.62 h 69.102 c 4.76,0 8.617,-3.86 8.617,-8.62 v -125.08" id="svg2.path42"/>
                        
                  <path style="fill:none;stroke:#0e212f;stroke-width:4.3725;stroke-linecap:round;stroke-linejoin:round;stroke-miterlimit:10;stroke-dasharray:none;stroke-opacity:1" d="m 253.723,1248.74 c 0,-4.76 -3.857,-8.62 -8.617,-8.62 h -69.102 c -4.76,0 -8.619,3.86 -8.619,8.62 v 125.08 c 0,4.76 3.859,8.62 8.619,8.62 h 69.102 c 4.76,0 8.617,-3.86 8.617,-8.62 z" id="svg2.path44"/>
                        
                  <path style="fill:#ffffff;fill-opacity:1;fill-rule:nonzero;stroke:none;stroke-width:0.1" d="m 218.703,1257.18 c 0,-4.5 -3.649,-8.15 -8.148,-8.15 -4.501,0 -8.148,3.65 -8.148,8.15 0,4.5 3.647,8.14 8.148,8.14 4.499,0 8.148,-3.64 8.148,-8.14" id="svg2.path46"/>
                        
                  <path style="fill:none;stroke:#0e212f;stroke-width:4.3725;stroke-linecap:round;stroke-linejoin:round;stroke-miterlimit:10;stroke-dasharray:none;stroke-opacity:1" d="m 218.703,1257.18 c 0,-4.5 -3.649,-8.15 -8.148,-8.15 -4.501,0 -8.148,3.65 -8.148,8.15 0,4.5 3.647,8.14 8.148,8.14 4.499,0 8.148,-3.64 8.148,-8.14 z" id="svg2.path48"/>
                        
                  <path style="fill:#ffffff;fill-opacity:1;fill-rule:nonzero;stroke:none;stroke-width:0.1" d="m 253.723,1278.45 h -86.338 v 83.91 h 86.338 v -83.91" id="svg2.path50"/>
                        
                  <path style="fill:none;stroke:#0e212f;stroke-width:4.3725;stroke-linecap:round;stroke-linejoin:round;stroke-miterlimit:10;stroke-dasharray:none;stroke-opacity:1" d="m 253.723,1278.45 h -86.338 v 83.91 h 86.338 z" id="svg2.path52"/>
                        
                  <path style="fill:none;stroke:#0e212f;stroke-width:4.3725;stroke-linecap:round;stroke-linejoin:round;stroke-miterlimit:10;stroke-dasharray:none;stroke-opacity:1" d="m 268.976,1335.81 c 9.703,-3.92 16.549,-13.42 16.549,-24.52 0,-10.95 -6.656,-20.35 -16.146,-24.36" id="svg2.path54"/>
                        
                  <path style="fill:none;stroke:#0e212f;stroke-width:4.3725;stroke-linecap:round;stroke-linejoin:round;stroke-miterlimit:10;stroke-dasharray:none;stroke-opacity:1" d="m 281.691,1348.56 c 14.799,-5.98 25.243,-20.47 25.243,-37.41 0,-16.69 -10.156,-31.02 -24.624,-37.14" id="svg2.path56"/>
                        
                  <path style="fill:none;stroke:#0e212f;stroke-width:4.3725;stroke-linecap:round;stroke-linejoin:round;stroke-miterlimit:10;stroke-dasharray:none;stroke-opacity:1" d="m 293.552,1360.3 c 19.459,-7.85 33.191,-26.91 33.191,-49.18 0,-21.97 -13.352,-40.81 -32.378,-48.85" id="svg2.path58"/>
                      
                </g>
                  
              </g>
              
            </svg>
          </g>
        </g>
        <g>
          <g stroke-linecap="butt" font-size="14px" transform="matrix(2,0,0,2,2908,-1536)" fill="white" text-rendering="geometricPrecision" font-family="'Libertinus Serif'" shape-rendering="geometricPrecision" stroke="white" stroke-miterlimit="1.45">
            <text x="-1438.8749" xml:space="preserve" y="929.0281" stroke="none">Device 2</text>
          </g>
        </g>
      </a>
    </g>
    <g id="y.edge.0">
      <g stroke-linecap="butt" transform="matrix(2,0,0,2,2908,-1536)" fill="white" text-rendering="geometricPrecision" shape-rendering="geometricPrecision" stroke="white" stroke-miterlimit="1.45">
        <path fill="none" d="M-1281.4207 1003.9017 L-1263.1899 1003.9017"/>
        <path d="M-1255.1899 1003.9017 L-1267.1899 998.9017 L-1264.1899 1003.9017 L-1267.1899 1008.9017 Z" stroke="none"/>
      </g>
      <g>
        <g stroke-linecap="butt" font-size="14px" transform="matrix(2,0,0,2,2908,-1536)" fill="white" text-rendering="geometricPrecision" font-family="'Libertinus Serif'" shape-rendering="geometricPrecision" stroke="white" stroke-miterlimit="1.45">
          <text x="-1274.4207" xml:space="preserve" y="997.4777" stroke="none">A</text>
        </g>
      </g>
    </g>
    <g id="y.edge.1">
      <g stroke-linecap="butt" transform="matrix(2,0,0,2,2908,-1536)" fill="white" text-rendering="geometricPrecision" shape-rendering="geometricPrecision" stroke="white" stroke-miterlimit="1.45">
        <path fill="none" d="M-1225.1899 1003.9017 L-1189.9855 1003.9017"/>
        <path d="M-1181.9855 1003.9017 L-1193.9855 998.9017 L-1190.9855 1003.9017 L-1193.9855 1008.9017 Z" stroke="none"/>
      </g>
      <g>
        <g stroke-linecap="butt" font-size="14px" transform="matrix(2,0,0,2,2908,-1536)" fill="white" text-rendering="geometricPrecision" font-family="'Libertinus Serif'" shape-rendering="geometricPrecision" stroke="white" stroke-miterlimit="1.45">
          <text x="-1207.7032" xml:space="preserve" y="997.9897" stroke="none">B</text>
        </g>
      </g>
    </g>
    <g id="y.edge.2">
      <g stroke-linecap="butt" transform="matrix(2,0,0,2,2908,-1536)" fill="white" text-rendering="geometricPrecision" shape-rendering="geometricPrecision" stroke="white" stroke-miterlimit="1.45">
        <path fill="none" d="M-1152.0074 1003.9017 L-1116.7626 1003.9017"/>
        <path d="M-1108.7626 1003.9017 L-1120.7626 998.9017 L-1117.7626 1003.9017 L-1120.7626 1008.9017 Z" stroke="none"/>
      </g>
      <g>
        <g stroke-linecap="butt" font-size="14px" transform="matrix(2,0,0,2,2908,-1536)" fill="white" text-rendering="geometricPrecision" font-family="'Libertinus Serif'" shape-rendering="geometricPrecision" stroke="white" stroke-miterlimit="1.45">
          <text x="-1134.9038" xml:space="preserve" y="997.9897" stroke="none">C</text>
        </g>
      </g>
    </g>
    <g id="y.edge.3">
      <g stroke-linecap="butt" transform="matrix(2,0,0,2,2908,-1536)" fill="white" text-rendering="geometricPrecision" shape-rendering="geometricPrecision" stroke="white" stroke-miterlimit="1.45">
        <path fill="none" d="M-1078.7804 1003.9017 L-1046.8126 1003.9017"/>
        <path d="M-1038.8126 1003.9017 L-1050.8126 998.9017 L-1047.8126 1003.9017 L-1050.8126 1008.9017 Z" stroke="none"/>
      </g>
      <g>
        <g stroke-linecap="butt" font-size="14px" transform="matrix(2,0,0,2,2908,-1536)" fill="white" text-rendering="geometricPrecision" font-family="'Libertinus Serif'" shape-rendering="geometricPrecision" stroke="white" stroke-miterlimit="1.45">
          <text x="-1063.7006" xml:space="preserve" y="996.9657" stroke="none">D</text>
        </g>
      </g>
    </g>
    <g id="y.edge.6">
      <g stroke-linecap="round" transform="matrix(2,0,0,2,2908,-1536)" stroke-dashoffset="2" fill="white" text-rendering="geometricPrecision" shape-rendering="geometricPrecision" stroke-dasharray="0,8" stroke="white" stroke-width="2" stroke-miterlimit="1.45">
        <path fill="none" d="M-1296.4207 801.3977 L-1296.4207 867.9449"/>
      </g>
    </g>
    <g id="y.edge.4">
      <g stroke-linecap="butt" transform="matrix(2,0,0,2,2908,-1536)" fill="white" text-rendering="geometricPrecision" shape-rendering="geometricPrecision" stroke="white" stroke-miterlimit="1.45">
        <path fill="none" d="M-1283.8438 874.7705 L-1261.8976 860.5067"/>
        <path d="M-1255.1899 856.147 L-1267.9763 858.4942 L-1262.7361 861.0516 L-1262.5266 866.8788 Z" stroke="none"/>
      </g>
      <g>
        <g stroke-linecap="butt" font-size="14px" transform="matrix(2,0,0,2,2908,-1536)" fill="white" text-rendering="geometricPrecision" font-family="'Libertinus Serif'" shape-rendering="geometricPrecision" stroke="white" stroke-miterlimit="1.45">
          <text x="-1278.082" xml:space="preserve" y="861.6502" stroke="none">A</text>
        </g>
      </g>
    </g>
    <g id="y.edge.5">
      <g stroke-linecap="butt" transform="matrix(2,0,0,2,2908,-1536)" fill="white" text-rendering="geometricPrecision" shape-rendering="geometricPrecision" stroke="white" stroke-miterlimit="1.45">
        <path fill="none" d="M-1282.4904 888.5077 L-1226.2583 910.9625"/>
        <path d="M-1218.8287 913.9293 L-1228.1188 904.8357 L-1227.187 910.5917 L-1231.8273 914.1226 Z" stroke="none"/>
      </g>
      <g>
        <g stroke-linecap="butt" font-size="14px" transform="matrix(2,0,0,2,2908,-1536)" fill="white" text-rendering="geometricPrecision" font-family="'Libertinus Serif'" shape-rendering="geometricPrecision" stroke="white" stroke-miterlimit="1.45">
          <text x="-1265.8882" xml:space="preserve" y="913.7639" stroke="none">B</text>
        </g>
      </g>
    </g>
    <g id="y.edge.7">
      <g stroke-linecap="butt" transform="matrix(2,0,0,2,2908,-1536)" fill="white" text-rendering="geometricPrecision" shape-rendering="geometricPrecision" stroke="white" stroke-miterlimit="1.45">
        <path fill="none" d="M-1225.1899 846.3977 L-1195.0348 846.3977"/>
        <path d="M-1187.0348 846.3977 L-1199.0348 841.3977 L-1196.0348 846.3977 L-1199.0348 851.3977 Z" stroke="none"/>
      </g>
      <g>
        <g stroke-linecap="butt" font-size="14px" transform="matrix(2,0,0,2,2908,-1536)" fill="white" text-rendering="geometricPrecision" font-family="'Libertinus Serif'" shape-rendering="geometricPrecision" stroke="white" stroke-miterlimit="1.45">
          <text x="-1218.1899" xml:space="preserve" y="840.7756" stroke="none">C</text>
        </g>
      </g>
    </g>
    <g id="y.edge.9">
      <g stroke-linecap="butt" transform="matrix(2,0,0,2,2908,-1536)" fill="white" text-rendering="geometricPrecision" shape-rendering="geometricPrecision" stroke="white" stroke-miterlimit="1.45">
        <path fill="none" d="M-1189.8983 919.4921 L-1169.2928 919.4921"/>
        <path d="M-1161.2928 919.4921 L-1173.2928 914.4921 L-1170.2928 919.4921 L-1173.2928 924.4921 Z" stroke="none"/>
      </g>
      <g>
        <g stroke-linecap="butt" font-size="14px" transform="matrix(2,0,0,2,2908,-1536)" fill="white" text-rendering="geometricPrecision" font-family="'Libertinus Serif'" shape-rendering="geometricPrecision" stroke="white" stroke-miterlimit="1.45">
          <text x="-1182.8983" xml:space="preserve" y="934.0396" stroke="none">D</text>
        </g>
      </g>
    </g>
    <g id="y.edge.8">
      <g stroke-linecap="butt" transform="matrix(2,0,0,2,2908,-1536)" fill="white" text-rendering="geometricPrecision" shape-rendering="geometricPrecision" stroke-dasharray="6,2" stroke="white" stroke-miterlimit="1.45">
        <path fill="none" d="M-1225.1899 853.522 L-1108.5415 908.925"/>
        <path d="M-1101.3152 912.3572 L-1110.0095 902.6924 L-1109.4448 908.496 L-1114.2998 911.7253 Z" stroke="none"/>
      </g>
    </g>
    <g id="y.edge.12">
      <g stroke-linecap="butt" transform="matrix(2,0,0,2,2908,-1536)" fill="white" text-rendering="geometricPrecision" shape-rendering="geometricPrecision" stroke="white" stroke-miterlimit="1.45">
        <path fill="none" d="M-1131.2928 919.4921 L-1101.2782 919.4921"/>
      </g>
    </g>
    <g id="y.edge.13">
      <g stroke-linecap="butt" transform="matrix(2,0,0,2,2908,-1536)" fill="white" text-rendering="geometricPrecision" shape-rendering="geometricPrecision" stroke-dasharray="6,2" stroke="white" stroke-miterlimit="1.45">
        <path fill="none" d="M-1071.3124 910.73 L-1045.7211 895.7618"/>
        <path d="M-1038.8156 891.7227 L-1051.6982 893.4653 L-1046.5842 896.2667 L-1046.6494 902.0972 Z" stroke="none"/>
      </g>
    </g>
    <g id="y.edge.14">
      <g stroke-linecap="round" transform="matrix(2,0,0,2,2908,-1536)" stroke-dashoffset="2" fill="white" text-rendering="geometricPrecision" shape-rendering="geometricPrecision" stroke-dasharray="0,8" stroke="white" stroke-width="2" stroke-miterlimit="1.45">
        <path fill="none" d="M-1023.808 801.3977 L-1023.808 867.9335"/>
      </g>
    </g>
    <g id="y.edge.10">
      <g stroke-linecap="butt" transform="matrix(2,0,0,2,2908,-1536)" fill="white" text-rendering="geometricPrecision" shape-rendering="geometricPrecision" stroke="white" stroke-miterlimit="1.45">
        <path fill="none" d="M-1157.0577 846.3977 L-1101.3235 846.3977"/>
      </g>
    </g>
    <g id="y.edge.11">
      <g stroke-linecap="butt" transform="matrix(2,0,0,2,2908,-1536)" fill="white" text-rendering="geometricPrecision" shape-rendering="geometricPrecision" stroke-dasharray="6,2" stroke="white" stroke-miterlimit="1.45">
        <path fill="none" d="M-1136.7758 907.8979 L-1103.521 867.3857"/>
        <path d="M-1098.4452 861.2022 L-1109.9236 867.3051 L-1104.1555 868.1587 L-1102.1942 873.6499 Z" stroke="none"/>
      </g>
    </g>
    <g id="y.edge.15">
      <g stroke-linecap="round" transform="matrix(2,0,0,2,2908,-1536)" stroke-dashoffset="2" fill="white" text-rendering="geometricPrecision" shape-rendering="geometricPrecision" stroke-dasharray="0,8" stroke="white" stroke-width="2" stroke-miterlimit="1.45">
        <path fill="none" d="M-1086.1614 801.3977 L-1085.8983 831.3981"/>
      </g>
    </g>
    <g id="y.edge.16">
      <g stroke-linecap="butt" transform="matrix(2,0,0,2,2908,-1536)" fill="white" text-rendering="geometricPrecision" shape-rendering="geometricPrecision" stroke-dasharray="6,2" stroke="white" stroke-miterlimit="1.45">
        <path fill="none" d="M-1071.3124 855.1597 L-1045.7211 870.1281"/>
        <path d="M-1038.8156 874.1671 L-1046.6494 863.7926 L-1046.5842 869.6232 L-1051.6982 872.4245 Z" stroke="none"/>
      </g>
    </g>
    <g id="y.edge.17">
      <g stroke-linecap="round" transform="matrix(2,0,0,2,2908,-1536)" stroke-dashoffset="2" fill="white" text-rendering="geometricPrecision" shape-rendering="geometricPrecision" stroke-dasharray="0,8" stroke="white" stroke-width="2" stroke-miterlimit="1.45">
        <path fill="none" d="M-1086.2928 861.4235 L-1086.2928 904.4929"/>
      </g>
    </g>
    <g id="y.edge.18">
      <g stroke-linecap="round" transform="matrix(2,0,0,2,2908,-1536)" stroke-dashoffset="2" fill="yellow" text-rendering="geometricPrecision" shape-rendering="geometricPrecision" stroke-dasharray="0,8" stroke="yellow" stroke-width="2" stroke-miterlimit="1.45">
        <path fill="none" d="M-1361.4207 871.4202 L-1361.4207 904.5124"/>
      </g>
    </g>
  </g>
</svg>
