<?xml version="1.0" encoding="UTF-8"?><svg xmlns="http://www.w3.org/2000/svg" xmlns:xlink="http://www.w3.org/1999/xlink" fill-opacity="1" color-rendering="auto" color-interpolation="auto" text-rendering="auto" stroke="black" stroke-linecap="square" width="910" stroke-miterlimit="10" shape-rendering="auto" stroke-opacity="1" fill="black" stroke-dasharray="none" font-weight="normal" stroke-width="1" height="360" font-family="'Dialog'" font-style="normal" stroke-linejoin="miter" font-size="12px" stroke-dashoffset="0" image-rendering="auto">
  <!--Generated by ySVG 2.5-->
  <defs id="genericDefs"/>
  <g>
    <g fill="rgb(25,25,25)" text-rendering="geometricPrecision" shape-rendering="geometricPrecision" transform="scale(2,2) translate(1454,-88)" stroke="rgb(25,25,25)">
      <rect x="-1454" width="455" height="180" y="88" clip-path="url(#clipPath2)" stroke="none"/>
    </g>
    <g id="y.node.0">
      <g>
        <g stroke-linecap="butt" font-size="14px" transform="matrix(2,0,0,2,2908,-176)" fill="white" text-rendering="geometricPrecision" font-family="'Libertinus Serif'" shape-rendering="geometricPrecision" stroke="white" stroke-miterlimit="1.45">
          <text x="-1310.2772" xml:space="preserve" y="207.7941" stroke="none">∅</text>
        </g>
      </g>
    </g>
    <g id="y.node.1">
      <g>
        <g stroke-linecap="butt" font-size="14px" transform="matrix(2,0,0,2,2908,-176)" fill="white" text-rendering="geometricPrecision" font-family="'Libertinus Serif'" shape-rendering="geometricPrecision" stroke="white" stroke-miterlimit="1.45">
          <text x="-1334.8051" xml:space="preserve" y="111.2469" stroke="none">consistent</text>
        </g>
      </g>
    </g>
    <g id="y.node.2">
      <g>
        <g stroke-linecap="butt" font-size="14px" transform="matrix(2,0,0,2,2908,-176)" fill="white" text-rendering="geometricPrecision" font-family="'Libertinus Serif'" shape-rendering="geometricPrecision" stroke="white" stroke-miterlimit="1.45">
          <text x="-1217.6749" xml:space="preserve" y="111.2469" stroke="none">diverge</text>
        </g>
      </g>
    </g>
    <g id="y.node.3">
      <g transform="matrix(2,0,0,2,2908,-176)" fill-opacity="0.8824" fill="rgb(25,25,25)" text-rendering="geometricPrecision" shape-rendering="geometricPrecision" stroke="rgb(25,25,25)" stroke-opacity="0.8824">
        <rect x="-1264.5525" width="30" height="30" y="151.7109" stroke="none"/>
      </g>
      <g stroke-linecap="butt" transform="matrix(2,0,0,2,2908,-176)" fill="white" text-rendering="geometricPrecision" shape-rendering="geometricPrecision" stroke="white" stroke-miterlimit="1.45">
        <rect fill="none" x="-1264.5525" width="30" height="30" y="151.7109"/>
      </g>
      <g/>
    </g>
    <g id="y.node.4">
      <g transform="matrix(2,0,0,2,2908,-176)" fill-opacity="0.8824" fill="rgb(25,25,25)" text-rendering="geometricPrecision" shape-rendering="geometricPrecision" stroke="rgb(25,25,25)" stroke-opacity="0.8824">
        <circle r="15" cx="-1214.2608" cy="239.8053" stroke="none"/>
      </g>
      <g stroke-linecap="butt" transform="matrix(2,0,0,2,2908,-176)" fill="white" text-rendering="geometricPrecision" shape-rendering="geometricPrecision" stroke="white" stroke-miterlimit="1.45">
        <circle fill="none" r="15" cx="-1214.2608" cy="239.8053"/>
      </g>
      <g/>
    </g>
    <g id="y.node.5">
      <g fill="purple" text-rendering="geometricPrecision" shape-rendering="geometricPrecision" transform="matrix(2,0,0,2,2908,-176)" stroke="purple">
        <rect x="-1196.4203" width="30" height="30" y="151.7109" stroke="none"/>
      </g>
      <g stroke-linecap="butt" transform="matrix(2,0,0,2,2908,-176)" fill="white" text-rendering="geometricPrecision" shape-rendering="geometricPrecision" stroke="white" stroke-miterlimit="1.45">
        <rect fill="none" x="-1196.4203" width="30" height="30" y="151.7109"/>
      </g>
      <g/>
    </g>
    <g id="y.node.6">
      <g transform="matrix(2,0,0,2,2908,-176)" fill-opacity="0.8824" fill="rgb(25,25,25)" text-rendering="geometricPrecision" shape-rendering="geometricPrecision" stroke="rgb(25,25,25)" stroke-opacity="0.8824">
        <circle r="15" cx="-1155.6554" cy="239.8053" stroke="none"/>
      </g>
      <g stroke-linecap="butt" transform="matrix(2,0,0,2,2908,-176)" fill="rgb(255,204,0)" text-rendering="geometricPrecision" shape-rendering="geometricPrecision" stroke="rgb(255,204,0)" stroke-miterlimit="1.45">
        <circle fill="none" r="15" cx="-1155.6554" cy="239.8053"/>
      </g>
      <g/>
    </g>
    <g id="y.node.7">
      <g transform="matrix(2,0,0,2,2908,-176)" fill-opacity="0.8824" fill="rgb(25,25,25)" text-rendering="geometricPrecision" shape-rendering="geometricPrecision" stroke="rgb(25,25,25)" stroke-opacity="0.8824">
        <rect x="-1110.6554" y="224.8053" width="30" rx="4" ry="4" height="30" stroke="none"/>
      </g>
      <g stroke-linecap="butt" transform="matrix(2,0,0,2,2908,-176)" fill="rgb(255,204,0)" text-rendering="geometricPrecision" shape-rendering="geometricPrecision" stroke="rgb(255,204,0)" stroke-miterlimit="1.45">
        <rect x="-1110.6554" y="224.8053" fill="none" width="30" rx="4" ry="4" height="30"/>
      </g>
      <g/>
    </g>
    <g id="y.node.8">
      <g>
        <g stroke-linecap="butt" font-size="14px" transform="matrix(2,0,0,2,2908,-176)" fill="white" text-rendering="geometricPrecision" font-family="'Libertinus Serif'" shape-rendering="geometricPrecision" stroke="white" stroke-miterlimit="1.45">
          <text x="-1062.1924" xml:space="preserve" y="111.2469" stroke="none">consistent</text>
        </g>
      </g>
    </g>
    <g id="y.node.9">
      <g fill="purple" text-rendering="geometricPrecision" shape-rendering="geometricPrecision" transform="matrix(2,0,0,2,2908,-176)" stroke="purple">
        <rect x="-1048.1705" y="188.2581" width="30" rx="4" ry="4" height="30" stroke="none"/>
      </g>
      <g stroke-linecap="butt" transform="matrix(2,0,0,2,2908,-176)" fill="rgb(255,204,0)" text-rendering="geometricPrecision" shape-rendering="geometricPrecision" stroke="rgb(255,204,0)" stroke-miterlimit="1.45">
        <rect x="-1048.1705" y="188.2581" fill="none" width="30" rx="4" ry="4" height="30"/>
      </g>
      <g/>
    </g>
    <g id="y.node.10">
      <g>
        <g stroke-linecap="butt" font-size="14px" transform="matrix(2,0,0,2,2908,-176)" fill="white" text-rendering="geometricPrecision" font-family="'Libertinus Serif'" shape-rendering="geometricPrecision" stroke="white" stroke-miterlimit="1.45">
          <text x="-1113.5474" xml:space="preserve" y="111.2469" stroke="none">merge</text>
        </g>
      </g>
    </g>
    <g id="y.node.11">
      <g fill="purple" text-rendering="geometricPrecision" shape-rendering="geometricPrecision" transform="matrix(2,0,0,2,2908,-176)" stroke="purple">
        <rect x="-1110.6554" y="151.7109" width="30" rx="4" ry="4" height="30" stroke="none"/>
      </g>
      <g stroke-linecap="butt" transform="matrix(2,0,0,2,2908,-176)" fill="rgb(255,204,0)" text-rendering="geometricPrecision" shape-rendering="geometricPrecision" stroke="rgb(255,204,0)" stroke-miterlimit="1.45">
        <rect x="-1110.6554" y="151.7109" fill="none" width="30" rx="4" ry="4" height="30"/>
      </g>
      <g/>
    </g>
    <g id="y.node.12">
      <a target="_blank" xlink:type="simple" xlink:href="https://www.vecteezy.com/free-vector/iot-devices" xlink:show="new">
        <g text-rendering="geometricPrecision" shape-rendering="geometricPrecision" transform="matrix(0.2377,0,0,0.2377,126.4336,127.4218)">
          <g>
            <svg xmlns:svg="http://www.w3.org/2000/svg" xmlns:sodipodi="http://sodipodi.sourceforge.net/DTD/sodipodi-0.dtd" xmlns:inkscape="http://www.inkscape.org/namespaces/inkscape" xmlns:dc="http://purl.org/dc/elements/1.1/" xmlns:cc="http://creativecommons.org/ns#" xmlns:rdf="http://www.w3.org/1999/02/22-rdf-syntax-ns#" opacity="1" writing-mode="lr-tb" stop-color="rgb(0, 0, 0)" shape-rendering="auto" glyph-orientation-horizontal="0deg" color-profile="auto" lighting-color="rgb(255, 255, 255)" color="rgb(0, 0, 0)" font-weight="400" alignment-baseline="auto" font-style="normal" version="1.1" color-interpolation-filters="linearrgb" text-anchor="start" stroke-linecap="butt" color-interpolation="srgb" font-variant="normal" word-spacing="normal" fill-opacity="1" text-rendering="auto" clip-path="none" text-decoration="none" letter-spacing="normal" viewBox="0 0 89.036179 89.036179" glyph-orientation-vertical="auto" display="inline" font-size-adjust="none" overflow="hidden" fill="rgb(0, 0, 0)" font-stretch="normal" stroke-dasharray="none" inkscape:version="1.0.1 (3bc2e813f5, 2020-09-07)" id="svg1.svg5390" stroke-miterlimit="4" stop-opacity="1" color-rendering="auto" font-size="12" pointer-events="visiblepainted" mask="none" direction="ltr" baseline-shift="baseline" sodipodi:docname="desk.svg" enable-background="accumulate" fill-rule="nonzero" image-rendering="auto" stroke-dashoffset="0" marker-end="none" width="89.036179mm" clip="auto" cursor="auto" stroke="none" filter="none" visibility="visible" kerning="auto" stroke-width="1" font-family="&quot;Arial&quot;,&quot;Helvetica&quot;,sans-serif" flood-opacity="1" clip-rule="nonzero" src="none" height="89.036179mm" unicode-bidi="normal" stroke-linejoin="miter" stroke-opacity="1" flood-color="rgb(0, 0, 0)" dominant-baseline="auto" marker-start="none" marker-mid="none">
                
              <defs id="svg1.defs5384">
                <clipPath clipPathUnits="userSpaceOnUse" id="clipPath1">
                  <path d="M0 0 L910 0 L910 360 L0 360 L0 0 Z"/>
                </clipPath>
                <clipPath clipPathUnits="userSpaceOnUse" id="clipPath2">
                  <path d="M-1454 88 L-999 88 L-999 268 L-1454 268 L-1454 88 Z"/>
                </clipPath>
              </defs>
                
  
              <metadata id="svg1.metadata5387">
    
  </metadata>
                
              <g inkscape:groupmode="layer" id="svg1.layer1" transform="translate(-33.236457,-70.83168)" inkscape:label="Layer 1">
                    
                <circle r="43.74659" id="svg1.path6047" style="fill:#ffffff;fill-opacity:1;stroke:#0e212f;stroke-width:1.543;stroke-miterlimit:10;stroke-opacity:1" cx="77.754547" cy="115.34977"/>
                    
                <g id="svg1.g6565" transform="matrix(0.35277777,0,0,-0.35277777,-758.9716,390.54796)">
                        
                  <g id="svg1.g1190" transform="scale(0.150399)">
                            
                    <path style="fill:#2e798a;fill-opacity:1;fill-rule:nonzero;stroke:none" d="m 16300,5516.76 v -521.07 c 0,-31.08 -25.2,-56.27 -56.3,-56.27 h -947 c -31,0 -56.3,25.19 -56.3,56.27 v 521.07 c 0,31.05 25.3,56.26 56.3,56.26 h 947 c 31.1,0 56.3,-25.21 56.3,-56.26" id="svg1.path1192"/>
                          
                  </g>
                        
                  <g id="svg1.g1194" transform="scale(0.150399)">
                            
                    <path style="fill:none;stroke:#0e212f;stroke-width:29.0726;stroke-linecap:round;stroke-linejoin:round;stroke-miterlimit:10;stroke-dasharray:none;stroke-opacity:1" d="m 16300,5516.76 v -521.07 c 0,-31.08 -25.2,-56.27 -56.3,-56.27 h -947 c -31,0 -56.3,25.19 -56.3,56.27 v 521.07 c 0,31.05 25.3,56.26 56.3,56.26 h 947 c 31.1,0 56.3,-25.21 56.3,-56.26 z" id="svg1.path1196"/>
                          
                  </g>
                        
                  <g id="svg1.g1198" transform="scale(0.149645)">
                            
                    <path style="fill:#ffffff;fill-opacity:1;fill-rule:nonzero;stroke:none" d="m 16300,5028.69 h -900.7 v 439 h 900.7 v -439" id="svg1.path1200"/>
                          
                  </g>
                        
                  <g id="svg1.g1202" transform="scale(0.149645)">
                            
                    <path style="fill:none;stroke:#0e212f;stroke-width:29.2191;stroke-linecap:round;stroke-linejoin:round;stroke-miterlimit:10;stroke-dasharray:none;stroke-opacity:1" d="m 16300,5028.69 h -900.7 v 439 h 900.7 z" id="svg1.path1204"/>
                          
                  </g>
                        
                  <g id="svg1.g1206" transform="scale(0.150399)">
                            
                    <path style="fill:#5ec9ca;fill-opacity:1;fill-rule:nonzero;stroke:none" d="m 16300,5516.76 v -76.46 c 0,0 -1059.6,2.68 -1059.6,0 v 76.46 c 0,31.05 25.3,56.26 56.3,56.26 h 947 c 31.1,0 56.3,-25.21 56.3,-56.26" id="svg1.path1208"/>
                          
                  </g>
                        
                  <g id="svg1.g1210" transform="scale(0.150399)">
                            
                    <path style="fill:none;stroke:#0e212f;stroke-width:29.0726;stroke-linecap:round;stroke-linejoin:round;stroke-miterlimit:10;stroke-dasharray:none;stroke-opacity:1" d="m 16300,5516.76 v -76.46 c 0,0 -1059.6,2.68 -1059.6,0 v 76.46 c 0,31.05 25.3,56.26 56.3,56.26 h 947 c 31.1,0 56.3,-25.21 56.3,-56.26 z" id="svg1.path1212"/>
                          
                  </g>
                        
                  <g id="svg1.g1214" transform="scale(0.147694)">
                            
                    <path style="fill:#2e798a;fill-opacity:1;fill-rule:nonzero;stroke:none" d="m 16300,4888.5 h -515.5 v 63.06 h 515.5 v -63.06" id="svg1.path1216"/>
                          
                  </g>
                        
                  <g id="svg1.g1218" transform="scale(0.147694)">
                            
                    <path style="fill:none;stroke:#0e212f;stroke-width:29.605;stroke-linecap:round;stroke-linejoin:round;stroke-miterlimit:10;stroke-dasharray:none;stroke-opacity:1" d="m 16300,4888.5 h -515.5 v 63.06 h 515.5 z" id="svg1.path1220"/>
                          
                  </g>
                        
                  <g id="svg1.g1222" transform="scale(0.146452)">
                            
                    <path style="fill:#5ec9ca;fill-opacity:1;fill-rule:nonzero;stroke:none" d="m 16300,4993.58 h -243.2 v 78.99 h 243.2 v -78.99" id="svg1.path1224"/>
                          
                  </g>
                        
                  <g id="svg1.g1226" transform="scale(0.146452)">
                            
                    <path style="fill:none;stroke:#0e212f;stroke-width:29.8563;stroke-linecap:round;stroke-linejoin:round;stroke-miterlimit:10;stroke-dasharray:none;stroke-opacity:1" d="m 16300,4993.58 h -243.2 v 78.99 h 243.2 z" id="svg1.path1228"/>
                          
                  </g>
                        
                  <g id="svg1.g1230" transform="scale(0.142699)">
                            
                    <path style="fill:#ffffff;fill-opacity:1;fill-rule:nonzero;stroke:none" d="m 16240.3,5592.07 c 35,-14.12 59.7,-48.36 59.7,-88.42 0,-39.44 -24,-73.34 -58.2,-87.78" id="svg1.path1232"/>
                          
                  </g>
                        
                  <g id="svg1.g1234" transform="scale(0.142699)">
                            
                    <path style="fill:none;stroke:#0e212f;stroke-width:30.6415;stroke-linecap:round;stroke-linejoin:round;stroke-miterlimit:10;stroke-dasharray:none;stroke-opacity:1" d="m 16240.3,5592.07 c 35,-14.12 59.7,-48.36 59.7,-88.42 0,-39.44 -24,-73.34 -58.2,-87.78" id="svg1.path1236"/>
                          
                  </g>
                        
                  <g id="svg1.g1238" transform="scale(0.143375)">
                            
                    <path style="fill:none;stroke:#0e212f;stroke-width:30.497;stroke-linecap:round;stroke-linejoin:round;stroke-miterlimit:10;stroke-dasharray:none;stroke-opacity:1" d="m 16209.4,5611.49 c 53.1,-21.46 90.6,-73.46 90.6,-134.22 0,-59.9 -36.5,-111.32 -88.4,-133.3" id="svg1.path1240"/>
                          
                  </g>
                        
                  <g id="svg1.g1242" transform="scale(0.144)">
                            
                    <path style="fill:none;stroke:#0e212f;stroke-width:30.3646;stroke-linecap:round;stroke-linejoin:round;stroke-miterlimit:10;stroke-dasharray:none;stroke-opacity:1" d="m 16181.4,5629.04 c 69.5,-28.03 118.6,-96.12 118.6,-175.71 0,-78.44 -47.7,-145.75 -115.7,-174.5" id="svg1.path1244"/>
                          
                  </g>
                        
                  <g id="svg1.g1246" transform="scale(0.148696)">
                            
                    <path style="fill:#5ec9ca;fill-opacity:1;fill-rule:nonzero;stroke:none" d="m 16300,5390.36 c 0,-13.41 -10.8,-24.26 -24.2,-24.26 h -366.1 c -13.3,0 -24.2,10.85 -24.2,24.26 v 0 c 0,13.39 10.9,24.19 24.2,24.19 h 366.1 c 13.4,0 24.2,-10.8 24.2,-24.19 v 0" id="svg1.path1248"/>
                          
                  </g>
                        
                  <g id="svg1.g1250" transform="scale(0.148696)">
                            
                    <path style="fill:none;stroke:#0e212f;stroke-width:29.4056;stroke-linecap:round;stroke-linejoin:round;stroke-miterlimit:10;stroke-dasharray:none;stroke-opacity:1" d="m 16300,5390.36 c 0,-13.41 -10.8,-24.26 -24.2,-24.26 h -366.1 c -13.3,0 -24.2,10.85 -24.2,24.26 v 0 c 0,13.39 10.9,24.19 24.2,24.19 h 366.1 c 13.4,0 24.2,-10.8 24.2,-24.19 z" id="svg1.path1252"/>
                          
                  </g>
                        
                  <g id="svg1.g1254" transform="scale(0.148696)">
                            
                    <path style="fill:#5ec9ca;fill-opacity:1;fill-rule:nonzero;stroke:none" d="m 16300,5273.25 c 0,-13.37 -10.8,-24.19 -24.2,-24.19 h -366.1 c -13.3,0 -24.2,10.82 -24.2,24.19 v 0 c 0,13.42 10.9,24.25 24.2,24.25 h 366.1 c 13.4,0 24.2,-10.83 24.2,-24.25 v 0" id="svg1.path1256"/>
                          
                  </g>
                        
                  <g id="svg1.g1258" transform="scale(0.148696)">
                            
                    <path style="fill:none;stroke:#0e212f;stroke-width:29.4056;stroke-linecap:round;stroke-linejoin:round;stroke-miterlimit:10;stroke-dasharray:none;stroke-opacity:1" d="m 16300,5273.25 c 0,-13.37 -10.8,-24.19 -24.2,-24.19 h -366.1 c -13.3,0 -24.2,10.82 -24.2,24.19 v 0 c 0,13.42 10.9,24.25 24.2,24.25 h 366.1 c 13.4,0 24.2,-10.83 24.2,-24.25 z" id="svg1.path1260"/>
                          
                  </g>
                        
                  <g id="svg1.g1262" transform="scale(0.148696)">
                            
                    <path style="fill:#5ec9ca;fill-opacity:1;fill-rule:nonzero;stroke:none" d="m 16300,5145.99 c 0,-13.4 -10.8,-24.25 -24.2,-24.25 h -366.1 c -13.3,0 -24.2,10.85 -24.2,24.25 v 0 c 0,13.36 10.9,24.19 24.2,24.19 h 366.1 c 13.4,0 24.2,-10.83 24.2,-24.19 v 0" id="svg1.path1264"/>
                          
                  </g>
                        
                  <g id="svg1.g1266" transform="scale(0.148696)">
                            
                    <path style="fill:none;stroke:#0e212f;stroke-width:29.4056;stroke-linecap:round;stroke-linejoin:round;stroke-miterlimit:10;stroke-dasharray:none;stroke-opacity:1" d="m 16300,5145.99 c 0,-13.4 -10.8,-24.25 -24.2,-24.25 h -366.1 c -13.3,0 -24.2,10.85 -24.2,24.25 v 0 c 0,13.36 10.9,24.19 24.2,24.19 h 366.1 c 13.4,0 24.2,-10.83 24.2,-24.19 z" id="svg1.path1268"/>
                          
                  </g>
                      
                </g>
                  
              </g>
              
            </svg>
          </g>
        </g>
        <g>
          <g stroke-linecap="butt" font-size="14px" transform="matrix(2,0,0,2,2908,-176)" fill="white" text-rendering="geometricPrecision" font-family="'Libertinus Serif'" shape-rendering="geometricPrecision" stroke="white" stroke-miterlimit="1.45">
            <text x="-1445.8671" xml:space="preserve" y="176.2469" stroke="none">Device 1</text>
          </g>
        </g>
      </a>
    </g>
    <g id="y.node.13">
      <a target="_blank" xlink:type="simple" xlink:href="https://www.vecteezy.com/free-vector/iot-devices" xlink:show="new">
        <g text-rendering="geometricPrecision" shape-rendering="geometricPrecision" transform="matrix(0.2377,0,0,0.2377,121.6929,273.6106)">
          <g>
            <svg xmlns:svg="http://www.w3.org/2000/svg" xmlns:sodipodi="http://sodipodi.sourceforge.net/DTD/sodipodi-0.dtd" xmlns:inkscape="http://www.inkscape.org/namespaces/inkscape" xmlns:dc="http://purl.org/dc/elements/1.1/" xmlns:cc="http://creativecommons.org/ns#" xmlns:rdf="http://www.w3.org/1999/02/22-rdf-syntax-ns#" opacity="1" writing-mode="lr-tb" stop-color="rgb(0, 0, 0)" shape-rendering="auto" glyph-orientation-horizontal="0deg" color-profile="auto" lighting-color="rgb(255, 255, 255)" color="rgb(0, 0, 0)" font-weight="400" alignment-baseline="auto" font-style="normal" version="1.1" color-interpolation-filters="linearrgb" text-anchor="start" stroke-linecap="butt" color-interpolation="srgb" font-variant="normal" word-spacing="normal" fill-opacity="1" text-rendering="auto" clip-path="none" text-decoration="none" letter-spacing="normal" viewBox="0 0 89.036179 89.036179" glyph-orientation-vertical="auto" display="inline" font-size-adjust="none" overflow="hidden" fill="rgb(0, 0, 0)" font-stretch="normal" stroke-dasharray="none" inkscape:version="1.0.1 (3bc2e813f5, 2020-09-07)" id="svg2.svg5390" stroke-miterlimit="4" stop-opacity="1" color-rendering="auto" font-size="12" pointer-events="visiblepainted" mask="none" direction="ltr" baseline-shift="baseline" sodipodi:docname="phone.svg" enable-background="accumulate" fill-rule="nonzero" image-rendering="auto" stroke-dashoffset="0" marker-end="none" width="89.036179mm" clip="auto" cursor="auto" stroke="none" filter="none" visibility="visible" kerning="auto" stroke-width="1" font-family="&quot;Arial&quot;,&quot;Helvetica&quot;,sans-serif" flood-opacity="1" clip-rule="nonzero" src="none" height="89.036179mm" unicode-bidi="normal" stroke-linejoin="miter" stroke-opacity="1" flood-color="rgb(0, 0, 0)" dominant-baseline="auto" marker-start="none" marker-mid="none">
                
              <defs id="svg2.defs5384"/>
                
  
              <metadata id="svg2.metadata5387">
    
  </metadata>
                
              <g inkscape:groupmode="layer" id="svg2.layer1" transform="translate(-33.236457,-70.83168)" inkscape:label="Layer 1">
                    
                <circle r="43.74659" id="svg2.path6047" style="fill:#ffffff;fill-opacity:1;stroke:#0e212f;stroke-width:1.543;stroke-miterlimit:10;stroke-opacity:1" cx="77.754547" cy="115.34977"/>
                    
                <g style="opacity:1" id="svg2.g6251" transform="matrix(0.35277777,0,0,-0.35277777,-9.4041398,577.9402)">
                        
                  <path style="fill:#2e798a;fill-opacity:1;fill-rule:nonzero;stroke:none;stroke-width:0.1" d="m 253.723,1248.74 c 0,-4.76 -3.857,-8.62 -8.617,-8.62 h -69.102 c -4.76,0 -8.619,3.86 -8.619,8.62 v 125.08 c 0,4.76 3.859,8.62 8.619,8.62 h 69.102 c 4.76,0 8.617,-3.86 8.617,-8.62 v -125.08" id="svg2.path42"/>
                        
                  <path style="fill:none;stroke:#0e212f;stroke-width:4.3725;stroke-linecap:round;stroke-linejoin:round;stroke-miterlimit:10;stroke-dasharray:none;stroke-opacity:1" d="m 253.723,1248.74 c 0,-4.76 -3.857,-8.62 -8.617,-8.62 h -69.102 c -4.76,0 -8.619,3.86 -8.619,8.62 v 125.08 c 0,4.76 3.859,8.62 8.619,8.62 h 69.102 c 4.76,0 8.617,-3.86 8.617,-8.62 z" id="svg2.path44"/>
                        
                  <path style="fill:#ffffff;fill-opacity:1;fill-rule:nonzero;stroke:none;stroke-width:0.1" d="m 218.703,1257.18 c 0,-4.5 -3.649,-8.15 -8.148,-8.15 -4.501,0 -8.148,3.65 -8.148,8.15 0,4.5 3.647,8.14 8.148,8.14 4.499,0 8.148,-3.64 8.148,-8.14" id="svg2.path46"/>
                        
                  <path style="fill:none;stroke:#0e212f;stroke-width:4.3725;stroke-linecap:round;stroke-linejoin:round;stroke-miterlimit:10;stroke-dasharray:none;stroke-opacity:1" d="m 218.703,1257.18 c 0,-4.5 -3.649,-8.15 -8.148,-8.15 -4.501,0 -8.148,3.65 -8.148,8.15 0,4.5 3.647,8.14 8.148,8.14 4.499,0 8.148,-3.64 8.148,-8.14 z" id="svg2.path48"/>
                        
                  <path style="fill:#ffffff;fill-opacity:1;fill-rule:nonzero;stroke:none;stroke-width:0.1" d="m 253.723,1278.45 h -86.338 v 83.91 h 86.338 v -83.91" id="svg2.path50"/>
                        
                  <path style="fill:none;stroke:#0e212f;stroke-width:4.3725;stroke-linecap:round;stroke-linejoin:round;stroke-miterlimit:10;stroke-dasharray:none;stroke-opacity:1" d="m 253.723,1278.45 h -86.338 v 83.91 h 86.338 z" id="svg2.path52"/>
                        
                  <path style="fill:none;stroke:#0e212f;stroke-width:4.3725;stroke-linecap:round;stroke-linejoin:round;stroke-miterlimit:10;stroke-dasharray:none;stroke-opacity:1" d="m 268.976,1335.81 c 9.703,-3.92 16.549,-13.42 16.549,-24.52 0,-10.95 -6.656,-20.35 -16.146,-24.36" id="svg2.path54"/>
                        
                  <path style="fill:none;stroke:#0e212f;stroke-width:4.3725;stroke-linecap:round;stroke-linejoin:round;stroke-miterlimit:10;stroke-dasharray:none;stroke-opacity:1" d="m 281.691,1348.56 c 14.799,-5.98 25.243,-20.47 25.243,-37.41 0,-16.69 -10.156,-31.02 -24.624,-37.14" id="svg2.path56"/>
                        
                  <path style="fill:none;stroke:#0e212f;stroke-width:4.3725;stroke-linecap:round;stroke-linejoin:round;stroke-miterlimit:10;stroke-dasharray:none;stroke-opacity:1" d="m 293.552,1360.3 c 19.459,-7.85 33.191,-26.91 33.191,-49.18 0,-21.97 -13.352,-40.81 -32.378,-48.85" id="svg2.path58"/>
                      
                </g>
                  
              </g>
              
            </svg>
          </g>
        </g>
        <g>
          <g stroke-linecap="butt" font-size="14px" transform="matrix(2,0,0,2,2908,-176)" fill="white" text-rendering="geometricPrecision" font-family="'Libertinus Serif'" shape-rendering="geometricPrecision" stroke="white" stroke-miterlimit="1.45">
            <text x="-1448.2374" xml:space="preserve" y="249.3413" stroke="none">Device 2</text>
          </g>
        </g>
      </a>
    </g>
    <g id="y.edge.2">
      <g stroke-linecap="round" transform="matrix(2,0,0,2,2908,-176)" stroke-dashoffset="2" fill="white" text-rendering="geometricPrecision" shape-rendering="geometricPrecision" stroke-dasharray="0,8" stroke="white" stroke-width="2" stroke-miterlimit="1.45">
        <path fill="none" d="M-1305.7832 121.7109 L-1305.7832 188.2581"/>
      </g>
    </g>
    <g id="y.edge.0">
      <g stroke-linecap="butt" transform="matrix(2,0,0,2,2908,-176)" fill="white" text-rendering="geometricPrecision" shape-rendering="geometricPrecision" stroke="white" stroke-miterlimit="1.45">
        <path fill="none" d="M-1293.2063 195.0837 L-1271.2601 180.8198"/>
        <path d="M-1264.5525 176.4601 L-1277.3389 178.8074 L-1272.0986 181.3648 L-1271.8892 187.192 Z" stroke="none"/>
      </g>
      <g>
        <g stroke-linecap="butt" font-size="14px" transform="matrix(2,0,0,2,2908,-176)" fill="white" text-rendering="geometricPrecision" font-family="'Libertinus Serif'" shape-rendering="geometricPrecision" stroke="white" stroke-miterlimit="1.45">
          <text x="-1287.4446" xml:space="preserve" y="181.9634" stroke="none">A</text>
        </g>
      </g>
    </g>
    <g id="y.edge.1">
      <g stroke-linecap="butt" transform="matrix(2,0,0,2,2908,-176)" fill="white" text-rendering="geometricPrecision" shape-rendering="geometricPrecision" stroke="white" stroke-miterlimit="1.45">
        <path fill="none" d="M-1291.8528 208.8208 L-1235.6207 231.2757"/>
        <path d="M-1228.1912 234.2426 L-1237.4812 225.1488 L-1236.5493 230.9048 L-1241.1897 234.4357 Z" stroke="none"/>
      </g>
      <g>
        <g stroke-linecap="butt" font-size="14px" transform="matrix(2,0,0,2,2908,-176)" fill="white" text-rendering="geometricPrecision" font-family="'Libertinus Serif'" shape-rendering="geometricPrecision" stroke="white" stroke-miterlimit="1.45">
          <text x="-1275.2507" xml:space="preserve" y="234.077" stroke="none">B</text>
        </g>
      </g>
    </g>
    <g id="y.edge.3">
      <g stroke-linecap="butt" transform="matrix(2,0,0,2,2908,-176)" fill="white" text-rendering="geometricPrecision" shape-rendering="geometricPrecision" stroke="white" stroke-miterlimit="1.45">
        <path fill="none" d="M-1234.5525 166.7109 L-1204.3972 166.7109"/>
        <path d="M-1196.3972 166.7109 L-1208.3972 161.7109 L-1205.3972 166.7109 L-1208.3972 171.7109 Z" stroke="none"/>
      </g>
      <g>
        <g stroke-linecap="butt" font-size="14px" transform="matrix(2,0,0,2,2908,-176)" fill="white" text-rendering="geometricPrecision" font-family="'Libertinus Serif'" shape-rendering="geometricPrecision" stroke="white" stroke-miterlimit="1.45">
          <text x="-1227.5525" xml:space="preserve" y="161.0888" stroke="none">C</text>
        </g>
      </g>
    </g>
    <g id="y.edge.5">
      <g stroke-linecap="butt" transform="matrix(2,0,0,2,2908,-176)" fill="white" text-rendering="geometricPrecision" shape-rendering="geometricPrecision" stroke="white" stroke-miterlimit="1.45">
        <path fill="none" d="M-1199.2609 239.8053 L-1178.6554 239.8053"/>
        <path d="M-1170.6554 239.8053 L-1182.6554 234.8053 L-1179.6554 239.8053 L-1182.6554 244.8053 Z" stroke="none"/>
      </g>
      <g>
        <g stroke-linecap="butt" font-size="14px" transform="matrix(2,0,0,2,2908,-176)" fill="white" text-rendering="geometricPrecision" font-family="'Libertinus Serif'" shape-rendering="geometricPrecision" stroke="white" stroke-miterlimit="1.45">
          <text x="-1192.2609" xml:space="preserve" y="254.3528" stroke="none">D</text>
        </g>
      </g>
    </g>
    <g id="y.edge.4">
      <g stroke-linecap="butt" transform="matrix(2,0,0,2,2908,-176)" fill="white" text-rendering="geometricPrecision" shape-rendering="geometricPrecision" stroke-dasharray="6,2" stroke="white" stroke-miterlimit="1.45">
        <path fill="none" d="M-1234.5525 173.8352 L-1117.9041 229.2381"/>
        <path d="M-1110.6777 232.6703 L-1119.3721 223.0056 L-1118.8074 228.8091 L-1123.6624 232.0385 Z" stroke="none"/>
      </g>
    </g>
    <g id="y.edge.8">
      <g stroke-linecap="butt" transform="matrix(2,0,0,2,2908,-176)" fill="white" text-rendering="geometricPrecision" shape-rendering="geometricPrecision" stroke="white" stroke-miterlimit="1.45">
        <path fill="none" d="M-1140.6554 239.8053 L-1110.6407 239.8053"/>
      </g>
    </g>
    <g id="y.edge.9">
      <g stroke-linecap="butt" transform="matrix(2,0,0,2,2908,-176)" fill="white" text-rendering="geometricPrecision" shape-rendering="geometricPrecision" stroke-dasharray="6,2" stroke="white" stroke-miterlimit="1.45">
        <path fill="none" d="M-1080.6749 231.0432 L-1055.0835 216.0749"/>
        <path d="M-1048.178 212.0359 L-1061.0607 213.7785 L-1055.9467 216.5798 L-1056.0118 222.4104 Z" stroke="none"/>
      </g>
    </g>
    <g id="y.edge.10">
      <g stroke-linecap="round" transform="matrix(2,0,0,2,2908,-176)" stroke-dashoffset="2" fill="white" text-rendering="geometricPrecision" shape-rendering="geometricPrecision" stroke-dasharray="0,8" stroke="white" stroke-width="2" stroke-miterlimit="1.45">
        <path fill="none" d="M-1033.1705 121.7109 L-1033.1705 188.2467"/>
      </g>
    </g>
    <g id="y.edge.6">
      <g stroke-linecap="butt" transform="matrix(2,0,0,2,2908,-176)" fill="white" text-rendering="geometricPrecision" shape-rendering="geometricPrecision" stroke="white" stroke-miterlimit="1.45">
        <path fill="none" d="M-1166.4203 166.7109 L-1110.686 166.7109"/>
      </g>
    </g>
    <g id="y.edge.7">
      <g stroke-linecap="butt" transform="matrix(2,0,0,2,2908,-176)" fill="white" text-rendering="geometricPrecision" shape-rendering="geometricPrecision" stroke-dasharray="6,2" stroke="white" stroke-miterlimit="1.45">
        <path fill="none" d="M-1146.1383 228.2111 L-1112.8835 187.6989"/>
        <path d="M-1107.8077 181.5154 L-1119.2861 187.6183 L-1113.5181 188.4719 L-1111.5568 193.9631 Z" stroke="none"/>
      </g>
    </g>
    <g id="y.edge.11">
      <g stroke-linecap="round" transform="matrix(2,0,0,2,2908,-176)" stroke-dashoffset="2" fill="white" text-rendering="geometricPrecision" shape-rendering="geometricPrecision" stroke-dasharray="0,8" stroke="white" stroke-width="2" stroke-miterlimit="1.45">
        <path fill="none" d="M-1095.5239 121.7109 L-1095.2609 151.7113"/>
      </g>
    </g>
    <g id="y.edge.12">
      <g stroke-linecap="butt" transform="matrix(2,0,0,2,2908,-176)" fill="white" text-rendering="geometricPrecision" shape-rendering="geometricPrecision" stroke-dasharray="6,2" stroke="white" stroke-miterlimit="1.45">
        <path fill="none" d="M-1080.6749 175.4729 L-1055.0835 190.4412"/>
        <path d="M-1048.178 194.4803 L-1056.0118 184.1058 L-1055.9467 189.9363 L-1061.0607 192.7377 Z" stroke="none"/>
      </g>
    </g>
    <g id="y.edge.13">
      <g stroke-linecap="round" transform="matrix(2,0,0,2,2908,-176)" stroke-dashoffset="2" fill="white" text-rendering="geometricPrecision" shape-rendering="geometricPrecision" stroke-dasharray="0,8" stroke="white" stroke-width="2" stroke-miterlimit="1.45">
        <path fill="none" d="M-1095.6554 181.7366 L-1095.6554 224.8061"/>
      </g>
    </g>
    <g id="y.edge.14">
      <g stroke-linecap="round" transform="matrix(2,0,0,2,2908,-176)" stroke-dashoffset="2" fill="yellow" text-rendering="geometricPrecision" shape-rendering="geometricPrecision" stroke-dasharray="0,8" stroke="yellow" stroke-width="2" stroke-miterlimit="1.45">
        <path fill="none" d="M-1370.7832 191.7333 L-1370.7832 224.8255"/>
      </g>
    </g>
  </g>
</svg>
