<?xml version="1.0"?>
<svg xmlns="http://www.w3.org/2000/svg" viewBox="0 0 362.665 137.719" width="362.665" height="137.719"><defs><style>.cls-1{fill:#fff;}</style></defs><title>safe_network_logo_mono</title><g id="typography"><path class="cls-1" d="M98.81 82a7 7 0 1 0-3.974-12.76L85 63.56c.015-.185.028-.37.028-.56s-.014-.375-.028-.56l9.838-5.68a7 7 0 1 0 0-11.52L85 39.56c.015-.185.028-.37.028-.56A7.006 7.006 0 1 0 82 44.76l9.838 5.68c-.015.185-.028.37-.028.56s.014.375.028.56L82 57.24a6.985 6.985 0 0 0-7.95 0l-9.837-5.68c.015-.185.028-.37.028-.56a6.992 6.992 0 0 0-4-6.317V33.317a7 7 0 1 0-6 0v11.365a7 7 0 1 0 6.976 12.076l9.838 5.68c-.015.186-.028.372-.028.56s.014.376.028.562l-9.838 5.68a6.99 6.99 0 0 0-7.95 0l-9.838-5.68c.015-.186.028-.372.028-.56a6.992 6.992 0 0 0-4-6.318V45.317a7 7 0 1 0-6 0v11.365a7.106 7.106 0 0 0-.975.558l-9.837-5.68c.015-.186.028-.372.028-.56a7 7 0 1 0-10 6.316V68.68a7 7 0 1 0 6 0V57.318a7.106 7.106 0 0 0 .976-.558l9.838 5.68c-.015.185-.028.37-.028.56a6.992 6.992 0 0 0 4 6.317v11.365a6.992 6.992 0 0 0-4 6.317c0 .188.014.374.028.56l-9.838 5.68A7 7 0 1 0 22.673 99c0-.19-.014-.376-.028-.56l9.838-5.68a7 7 0 1 0 6.974-12.077V69.317a7.106 7.106 0 0 0 .975-.558l9.838 5.68c-.015.185-.028.37-.028.56a6.992 6.992 0 0 0 4 6.317v11.365a6.992 6.992 0 0 0-4 6.317c0 .19.014.375.028.56l-9.838 5.68a7 7 0 1 0 3.025 5.76c0-.19-.014-.376-.028-.56l9.837-5.68a6.952 6.952 0 0 0 .975.558v11.365a7 7 0 1 0 10 6.317c0-.19-.014-.376-.028-.56l9.838-5.68a7 7 0 1 0-3.025-5.76c0 .19.014.376.028.56l-9.838 5.68a6.952 6.952 0 0 0-.975-.558v-11.365a6.994 6.994 0 0 0 4-6.317c0-.19-.014-.376-.028-.56l9.838-5.68a6.987 6.987 0 0 0 7.95 0l9.838 5.68c-.015.185-.028.37-.028.56a7.006 7.006 0 1 0 3.025-5.76L85 87.56c.015-.185.028-.37.028-.56a7 7 0 0 0-14 0c0 .19.014.375.028.56l-9.838 5.68a6.952 6.952 0 0 0-.975-.558V81.317a6.994 6.994 0 0 0 4-6.317c0-.19-.014-.375-.028-.56l9.838-5.68a6.987 6.987 0 0 0 7.95 0l9.838 5.68c-.014.185-.027.37-.027.56a7 7 0 0 0 6.998 7z" transform="translate(-8.672 -6.141)"></path><path class="cls-1" d="M121.904 0h1.14v137.72h-1.14z"></path><path class="cls-1" d="M170.18 66.082c3.8 0 6.853-.88 9.067-2.637a8.352 8.352 0 0 0 3.348-6.937 8.655 8.655 0 0 0-2.344-6.266 8.9 8.9 0 0 0-2.593-1.586 21.08 21.08 0 0 0-5.89-1.344 16.936 16.936 0 0 1-4.35-.828c-1.335-.465-1.92-1.22-1.92-2.262 0-2 1.464-2.883 4.933-2.883a5.025 5.025 0 0 1 4.934 2.753c.63 1.133 1.04 1.344 2.172.836l3.176-1.376c1.21-.508 1.465-1.09.918-2.254-1.965-4.184-5.227-6.15-11.2-6.15-7.566 0-11.914 3.8-11.914 9.364a8.288 8.288 0 0 0 2.59 6.352 8.81 8.81 0 0 0 2.844 1.508 18.572 18.572 0 0 0 2.97.793c.788.125 1.835.293 3.175.457 3.637.38 5.64 1.133 5.64 3.012 0 2.215-1.835 3.3-5.554 3.3q-4.077 0-5.39-2.883c-.547-1.293-1.008-1.46-2.215-1l-3.055 1.082c-1.168.465-1.46.965-1.086 2.176 1.673 4.514 5.603 6.772 11.747 6.772zm37.884-2.176c.375 1.21 1.047 1.547 3.09 1.547h3.14c1.165 0 1.544-.543 1.126-1.672l-9.992-26.663c-.37-1.047-.875-1.336-2.09-1.336h-3.215c-1.215 0-1.715.29-2.09 1.423L188.04 63.78c-.417 1.13-.038 1.673 1.13 1.673h2.887c2.047 0 2.59-.336 3.05-1.547l1.34-3.93h10.317zm-9.82-9.445l2.172-6.518a17.278 17.278 0 0 0 .957-5.93h.422l.043.79a25.325 25.325 0 0 0 1 5.183l2.176 6.476zm30.48-.335h9.61c1.3 0 1.718-.375 1.718-1.668v-2.8c0-1.3-.418-1.715-1.72-1.715h-9.608v-5.978h11.7c1.3 0 1.72-.375 1.72-1.672v-2.8c0-1.293-.423-1.71-1.72-1.71h-16.8c-1.3 0-1.715.417-1.715 1.71v26.25c0 1.293.417 1.71 1.714 1.71h3.387c1.3 0 1.712-.417 1.712-1.71zm41.856 9.617v-2.8c0-1.215-.5-1.715-1.715-1.715h-12.117v-5.69h9.61c1.3 0 1.71-.413 1.71-1.706v-2.8c0-1.3-.41-1.67-1.71-1.67h-9.61v-5.4h11.7c1.293 0 1.715-.376 1.715-1.673v-2.8c0-1.293-.422-1.71-1.715-1.71h-16.8c-1.293 0-1.715.417-1.715 1.71V63.74c0 1.293.422 1.71 1.715 1.71h17.22c1.294.003 1.712-.415 1.712-1.708zm-83.66 14.324h-1.02c-.457 0-.66.2-.66.613v22.91c0 1.27.05 2.944.2 5.026.1 2.086.156 3.453.156 4.117h-.1c-.355-.512-1.066-1.625-2.082-3.3q-1.6-2.514-2.594-3.965L163.3 78.42a.763.763 0 0 0-.71-.355h-1.013c-.46 0-.664.2-.664.66v34.75c0 .457.2.66.664.66h1.012c.41 0 .612-.2.612-.66V89.8c0-1.164-.055-2.742-.152-4.676s-.152-3.145-.152-3.7h.1a32.11 32.11 0 0 1 1.88 2.992 36.358 36.358 0 0 0 2.233 3.61l18.036 25.706a.81.81 0 0 0 .71.406h1.067c.406 0 .61-.2.61-.66V78.726c-.004-.456-.207-.66-.613-.66zm23.187 9.3c-7.11 0-10.977 3.96-10.977 10.617v6.86c0 6.245 3.61 10 10.672 10q7.7 0 10.82-5.79c.258-.406.2-.71-.2-.914l-.71-.407a.63.63 0 0 0-.915.254c-1.828 3.3-4.828 4.98-8.992 4.98-5.535 0-8.484-3-8.484-7.926v-3.456h18.595c.766 0 1.168-.355 1.168-1.12v-2.59c-.003-6.448-3.812-10.507-10.976-10.507zm8.793 12.447h-17.582v-2.035c0-5.28 3.047-8.484 8.79-8.484s8.788 3.2 8.788 8.484zm25.778-11.688H236.6v-5.54c0-.354-.2-.558-.613-.558h-.965c-.406 0-.6.2-.6.56v5.538h-5.492a.508.508 0 0 0-.56.56v.866a.51.51 0 0 0 .56.56h5.492v14.78c0 3.86.758 6.5 2.23 7.876 1.473 1.422 4.117 2.133 7.926 2.082a.535.535 0 0 0 .61-.605v-.867a.54.54 0 0 0-.61-.61c-3.1 0-5.23-.507-6.3-1.573-1.117-1.016-1.676-3.152-1.676-6.348V90.11h8.074c.41 0 .613-.2.613-.56v-.867c-.003-.355-.206-.558-.616-.558zm41.363 0h-.706c-.563 0-.922.2-1.02.56l-5.484 17.784c-.152.558-.355 1.417-.613 2.59-.3 1.163-.508 1.98-.656 2.386h-.104c-.152-.355-.355-1.168-.66-2.336s-.56-2.03-.762-2.695l-5.59-16.97c-.152-.452-.3-.558-.914-.558h-.508c-.656 0-.813.055-.965.613l-5.637 17.117c-.152.56-.41 1.375-.664 2.54a22.24 22.24 0 0 1-.66 2.288h-.1a20.49 20.49 0 0 1-.613-2.387 24.41 24.41 0 0 0-.61-2.387l-5.538-17.937c-.1-.406-.453-.61-1.012-.61h-.762c-.507 0-.663.157-.46.665l7.824 24.992a.8.8 0 0 0 .766.61h.762a.848.848 0 0 0 .81-.61l5.894-18.336c.2-.613.406-1.375.664-2.34.25-.914.355-1.422.4-1.523h.156c.047.2.2.76.453 1.626.2.914.405 1.676.558 2.238l6 18.336a.85.85 0 0 0 .813.61h.763a.816.816 0 0 0 .816-.61l7.82-24.992c.146-.46.1-.663-.463-.663zm20.09-.758c-6.65 0-10.87 3.453-10.87 8.938v9.656c0 5.485 4.22 8.888 10.87 8.888 6.708 0 10.927-3.4 10.927-8.887V96.3c-.005-5.53-4.223-8.933-10.93-8.933zm8.743 18.594c0 4.263-3.453 6.907-8.742 6.907-5.23 0-8.687-2.69-8.687-6.906v-9.706c0-4.215 3.457-6.906 8.688-6.906 5.29 0 8.743 2.637 8.743 6.906zM340.9 87.368h-1.574a24.383 24.383 0 0 0-9.043 1.625c-1.578.656-1.934 1.22-1.934 2.79v21.75a.537.537 0 0 0 .608.604h1.016c.355 0 .56-.2.56-.605V92.396a1.763 1.763 0 0 1 1.065-1.68 21.24 21.24 0 0 1 7.675-1.32h1.625c.355 0 .56-.2.56-.605v-.816c0-.408-.204-.607-.56-.607zm30.34 26.11l-4.676-9.3a6.747 6.747 0 0 0-4.777-4.066l9.043-11.32c.355-.46.254-.664-.406-.664h-.863a1.327 1.327 0 0 0-1.167.46l-8.84 11.173H352.9V77.15a.538.538 0 0 0-.61-.61h-.964a.538.538 0 0 0-.61.61v36.38a.537.537 0 0 0 .61.604h.965a.537.537 0 0 0 .61-.605V101.74h6.4a5.27 5.27 0 0 1 5.387 3.355l4.22 8.535a.944.944 0 0 0 .964.508h1.017c.45 0 .552-.202.353-.66z" transform="translate(-8.672 -6.141)"></path></g></svg>